<svg width="220" height="200" viewBox="0 0 220 200" fill="none" xmlns="http://www.w3.org/2000/svg">
<path d="M71.4928 66.1011H74.2807C75.9675 66.4835 71.6175 66.4096 70.0176 66.5934C59.4305 67.8093 45.2416 72.5942 41.0786 83.3963C41.3264 83.7589 44.1487 81.9917 45.916 81.3468C48.2116 80.6904 50.5072 80.0357 52.8029 79.3794C58.2966 78.5359 66.2517 80.6133 71.4944 82.4938C76.3581 84.5695 81.2234 86.6469 86.087 88.7227C86.361 88.9409 86.6334 89.1592 86.9075 89.379C75.5507 85.2768 65.8957 78.874 53.2951 79.7075C49.1518 81.2828 44.5442 81.7357 41.1623 84.7894C37.3225 88.2567 36.1673 94.3313 37.5556 94.1327C38.0577 94.0605 41.4215 89.8057 45.2612 87.5757C48.7892 85.5278 55.3102 84.371 59.3616 84.6253C65.5182 85.0126 81.7993 90.5113 85.0221 96.0181C86.2757 98.1612 85.6046 99.9169 85.0221 98.6403C84.8498 98.2645 85.3913 96.2987 81.3333 92.9841C77.1687 89.5842 66.68 86.0529 61.3306 85.4425C55.96 84.8304 49.5292 85.8494 44.9347 88.721C42.9738 89.9468 36.2691 95.4816 36.9829 97.984C37.4407 99.5888 38.5286 96.3004 39.6067 94.8695C42.0188 91.6697 47.3058 88.4552 51.3293 88.0663C51.7707 88.3814 50.417 89.5661 50.2644 90.444C49.8443 92.8364 50.7731 95.1321 52.3959 96.837C50.5647 97.0289 48.7334 97.2193 46.9038 97.4113C42.9984 98.0381 39.9972 100.294 37.6392 99.6249C37.3357 98.4533 36.0164 98.8569 36.3282 96.6745C36.5513 95.114 38.2825 94.794 36.1641 93.5601C36.3823 89.7909 37.8378 87.0391 40.4271 84.3792C40.3861 81.3501 44.6508 76.516 46.9038 74.6256C52.6273 69.8194 64.0907 66.4162 71.4977 66.1011H71.4928Z" fill="white"/>
<path d="M56.4087 87.7398C60.6455 87.3673 60.3468 92.1669 56.2446 91.6746C55.452 91.3202 54.6594 90.9641 53.8669 90.6097C52.8971 89.2051 55.2321 87.8448 56.4087 87.7414V87.7398Z" fill="white"/>
<path d="M53.1295 92.9857C54.2503 92.5689 56.8002 94.3788 54.6047 94.7891C52.2812 95.2239 52.3091 93.2909 53.1295 92.9857Z" fill="white"/>
<path d="M55.6725 112.002C50.5332 111.162 46.5146 110.53 42.1449 107.413C41.0684 106.645 38.5496 103.442 38.9484 106.348C39.1158 107.572 41.7396 108.532 42.6371 109.216C47.7535 113.12 51.0862 117.66 59.1972 118.069C53.7723 118.95 49.3173 115.309 45.261 112.33C43.0014 108.75 37.8949 108.415 38.4561 105.527C39.8903 104.108 37.3026 102.813 37.9638 100.938C38.379 99.7593 38.3839 102.039 38.4561 102.249C39.6228 105.676 45.2659 109.049 48.5395 110.199C50.9172 110.799 53.2948 111.402 55.6725 112.002Z" fill="white"/>
<path d="M180.527 20.1999C182.966 20.1769 185.209 19.9882 187.25 21.5109C189.564 23.2372 192.422 29.8812 193.399 32.7397C194.328 36.1281 195.256 39.515 196.187 42.9034C197.33 48.9469 196.846 54.8099 197.662 60.7713C196.85 64.3698 197.273 68.0864 197.17 71.7539C196.451 73.6163 196.899 75.2703 196.841 75.8528C196.241 79.2955 195.639 82.7381 195.038 86.1807C195.005 91.9469 195.322 97.7228 196.349 103.394C196.395 107.997 196.991 112.461 197.496 117C198.193 118.085 204.396 115.354 204.793 115.279C210.458 114.207 211.391 120.617 208.236 122.492C204.819 123.449 201.405 124.406 197.988 125.361C197.714 127.546 197.442 129.732 197.168 131.918C198.701 133.011 203.686 135.401 204.055 137.164C204.711 140.303 201.607 142.564 198.727 141.999C197.462 141.752 196.269 139.505 193.971 138.721C191.062 143.511 186.614 148.045 181.839 151.016C177.469 153.735 170.843 156.257 165.935 158.066C160.687 159.815 155.441 161.562 150.194 163.312C149.593 163.64 148.991 163.968 148.39 164.294C135.232 168.743 125.9 170.966 112.482 173.966C111.882 174.24 111.28 174.512 110.679 174.786C102.424 176.595 88.7975 178.987 80.6734 178.065C76.5761 177.366 61.7587 167.496 56.7342 165.115C55.8055 164.35 54.8767 163.586 53.9463 162.819C46.6869 158.054 40.1348 153.686 33.4514 148.066C32.0845 146.919 30.7193 145.77 29.3524 144.623C22.0553 136.474 16.8159 135.442 19.1049 122.738C16.5812 120.871 13.3306 121.946 11.6454 120.853C9.80429 119.66 10.1062 115.948 11.8095 114.788C13.6309 113.546 15.8724 114.34 19.6793 114.46C20.357 114.481 20.9542 115.282 21.4006 114.214C22.902 110.62 13.8639 110.269 13.3667 106.672C13.009 104.083 14.7664 101.741 17.5477 102.165C17.9104 102.221 21.9733 104.321 24.4346 104.625C26.7023 97.0566 28.9717 89.4888 31.2395 81.9193C31.1229 69.4894 31.2772 56.9414 33.5351 44.7068C33.9519 42.444 34.6197 38.7044 35.6666 37.0027C36.3377 34.2427 38.8286 24.4367 39.9297 22.9041C40.6123 22.4397 41.2966 21.9753 41.9792 21.5109C45.4152 20.6216 58.2701 23.0353 62.6382 23.8066C63.1846 24.0806 63.731 24.353 64.2775 24.627C72.6592 27.0309 82.7442 30.467 89.5277 35.9378C103.784 35.7917 117.883 38.0841 131.994 39.7086C138.776 31.3941 148.819 28.3109 158.556 24.7911C159.102 24.4629 159.649 24.1347 160.195 23.8082C166.631 21.68 173.713 20.2655 180.526 20.2015L180.527 20.1999ZM178.396 23.1502C177.685 23.3143 176.975 23.4784 176.264 23.6425C172.523 23.9969 170.168 24.1676 166.427 25.1177C161.071 26.9752 155.715 28.8327 150.359 30.6918C150.384 31.3482 147.215 32.2523 145.768 32.9874C140.329 35.7474 136.664 38.3483 132.815 43.1512C130.985 42.6901 129.144 42.1617 127.241 42.1683C127.569 42.0584 127.897 41.9501 128.225 41.8401C123.358 41.8943 118.61 40.7128 113.797 40.2009C105.354 39.3017 96.8692 38.8619 88.3824 38.5616C85.0874 36.348 81.6465 34.3527 78.0529 32.6609C76.1035 31.742 73.3796 31.0725 71.9864 29.8746C70.3275 29.4217 67.8218 28.8442 66.5764 27.9072C58.6131 26.2909 50.6497 24.5909 42.4731 24.4646C41.226 24.8978 39.3209 35.4718 38.2921 37.1685C37.4716 41.594 36.6528 46.0212 35.8323 50.4467C34.18 61.956 34.2144 70.6823 34.3572 82.2491C30.9999 90.7703 29.2096 99.9955 26.2412 108.559C23.345 107.576 20.4472 106.592 17.551 105.609C17.277 105.391 17.0046 105.173 16.7306 104.953C16.3466 105.045 16.0857 106.093 16.4024 106.428C16.7453 106.791 22.8987 109.347 25.0106 111.428C23.5633 119.084 24.1409 118.003 17.0587 117.41C16.6977 117.381 13.4143 116.273 13.2059 117.821C13.0205 119.201 14.8058 118.395 17.7151 119.05C19.0098 119.342 21.3284 120.371 22.3884 121.263C22.6788 122.094 20.8935 127.402 22.0602 131.591C23.3467 136.212 31.8318 142.06 35.0956 145.772C36.7906 147.029 38.4841 148.286 40.1791 149.543C40.8896 150.199 41.6001 150.854 42.3106 151.51C44.4422 152.931 46.5737 154.352 48.7053 155.772C49.1975 156.208 49.6898 156.646 50.1804 157.083C52.586 158.722 54.9899 160.361 57.3955 162C57.7778 162.11 58.1602 162.219 58.5425 162.329C60.8923 163.804 63.2421 165.279 65.5935 166.754C68.3289 168.361 71.3908 169.604 73.7914 171.672H74.2837C76.0871 172.655 77.8904 173.639 79.6938 174.622C83.5171 175.989 87.5488 175.328 91.4985 175.115C98.5494 173.748 105.599 172.382 112.65 171.016H114.289C115.054 170.742 115.82 170.469 116.585 170.195C119.809 169.485 123.033 168.774 126.258 168.064C126.368 167.9 126.476 167.735 126.586 167.571C130.413 166.533 134.238 165.496 138.064 164.457C145.606 161.943 153.149 159.429 160.691 156.915C160.801 156.751 160.909 156.587 161.019 156.423C166.342 154.447 177.21 150.836 181.514 147.898C184 145.631 186.487 143.363 188.973 141.095C190.202 139.21 191.433 137.324 192.662 135.439C193.369 135.247 197.649 137.366 198.4 137.899C199.137 138.419 199.129 139.858 200.696 139.046C202.67 138.024 198.768 136.54 196.761 135.111C195.75 134.318 194.739 133.526 193.727 132.733C194.163 129.891 194.602 127.051 195.038 124.209C196.174 121.521 206.451 120.558 207.171 119.455C207.676 118.681 206.665 118.018 205.942 118.062C205.374 118.096 200.653 120.991 194.956 120.358C193.295 109.373 192.652 98.1298 192.086 86.9979C193.794 76.0891 194.889 64.9556 194.218 53.8844C193.665 44.7626 191.479 29.1805 184.298 23.1469H178.396V23.1502Z" fill="white"/>
<path d="M178.397 23.1502H184.299C191.48 29.1822 193.665 44.7659 194.218 53.8877C194.889 64.9589 193.795 76.0924 192.087 87.0012C192.653 98.1347 193.296 109.377 194.957 120.361C200.652 120.996 205.375 118.1 205.943 118.065C206.668 118.023 207.679 118.684 207.172 119.458C206.451 120.561 196.173 121.524 195.039 124.212C194.602 127.054 194.164 129.894 193.728 132.737C194.738 133.529 195.749 134.322 196.762 135.114C198.768 136.543 202.672 138.027 200.697 139.049C199.129 139.86 199.138 138.422 198.401 137.902C197.648 137.37 193.37 135.252 192.663 135.442C191.434 137.328 190.203 139.213 188.974 141.099C186.488 143.366 184 145.634 181.514 147.902C177.21 150.839 166.343 154.451 161.019 156.426C160.909 156.59 160.801 156.754 160.691 156.919C153.15 159.432 145.606 161.946 138.065 164.46C134.238 165.499 130.413 166.536 126.587 167.575C126.477 167.739 126.368 167.903 126.258 168.067C123.034 168.777 119.81 169.488 116.585 170.198C115.821 170.472 115.054 170.745 114.29 171.019H112.65C105.599 172.386 98.5501 173.751 91.4991 175.118C87.5478 175.331 83.5177 175.992 79.6944 174.626C77.8911 173.643 76.0877 172.658 74.2844 171.675H73.7921C71.3914 169.608 68.3295 168.364 65.5941 166.757C63.2443 165.282 60.8946 163.807 58.5431 162.332C58.1608 162.222 57.7785 162.114 57.3961 162.004C54.9906 160.364 52.5867 158.725 50.1811 157.086C49.6888 156.649 49.1965 156.211 48.7059 155.775C46.5744 154.354 44.4428 152.933 42.3113 151.513C41.6008 150.857 40.8903 150.202 40.1798 149.546C38.4847 148.289 36.7913 147.032 35.0962 145.775C31.8325 142.063 23.3473 136.215 22.0609 131.594C20.8942 127.405 22.6795 122.097 22.389 121.267C21.329 120.376 19.0121 119.345 17.7157 119.053C14.8064 118.398 13.0211 119.204 13.2065 117.824C13.4149 116.277 16.6984 117.384 17.0594 117.414C24.1432 118.004 23.5639 119.086 25.0112 111.431C22.8994 109.35 16.746 106.794 16.403 106.431C16.0863 106.096 16.3472 105.048 16.7312 104.956C17.0052 105.174 17.2776 105.392 17.5517 105.612C20.4479 106.595 23.3457 107.58 26.2419 108.563C29.2103 99.9988 31.0005 90.772 34.3578 82.2524C34.2151 70.684 34.1806 61.9593 35.833 50.45C36.6534 46.0244 37.4723 41.5973 38.2927 37.1718C39.3216 35.4751 41.2267 24.9011 42.4737 24.4679C50.6487 24.5942 58.6137 26.2942 66.577 27.9105C67.8241 28.8474 70.3298 29.425 71.9871 29.8779C73.3802 31.0758 76.1041 31.7469 78.0535 32.6642C81.6471 34.3576 85.0881 36.3513 88.383 38.5649C96.8698 38.8652 105.355 39.3049 113.797 40.2041C118.61 40.7161 123.359 41.8976 128.226 41.8434C127.898 41.9534 127.57 42.0617 127.241 42.1716C129.146 42.1667 130.988 42.695 132.816 43.1545C136.665 38.3516 140.329 35.7507 145.769 32.9907C147.214 32.2572 150.385 31.3531 150.36 30.6951C155.716 28.8376 161.072 26.9801 166.428 25.1209C170.169 24.1709 172.524 24.0002 176.265 23.6458C176.976 23.4817 177.686 23.3176 178.397 23.1535V23.1502ZM133.144 45.7734C130.121 46.1081 128.992 48.4727 128.06 49.0519C126.972 49.728 119.56 51.9333 120.108 53.5595C120.725 55.3891 125.303 50.3614 125.518 52.2484C124.616 53.5874 123.715 54.9264 122.813 56.2653C121.188 57.5059 119.554 56.3162 119.288 57.3303C118.891 58.8448 121.656 58.1278 121.748 58.4773C121.07 59.9 118.689 63.0833 121.009 64.1335C122.138 64.6438 123.267 63.633 123.879 62.7404C125.615 60.2019 124.613 57.222 128.388 56.5935C129.296 56.4426 132.202 56.6132 132.405 56.1833C132.666 55.632 132.162 55.2234 131.667 55.1183C128.841 54.5161 126.893 56.5591 127.158 55.2004C128.333 53.4791 129.507 51.7578 130.682 50.0365C133.585 50.8044 136.23 48.1412 132.404 48.1511C132.034 47.5948 134.396 45.9424 133.142 45.7734H133.144ZM71.4932 66.1009C64.0861 66.416 52.6228 69.8192 46.8993 74.6255C44.6479 76.5158 40.3816 81.3515 40.4226 84.379C37.8333 87.0373 36.3778 89.7907 36.1595 93.5599C38.2763 94.7938 36.5468 95.1138 36.3236 96.6743C36.0119 98.8567 37.3311 98.4531 37.6347 99.6247C39.9911 100.294 42.9923 98.0395 46.8993 97.4111C48.7305 97.2191 50.5618 97.0287 52.3914 96.8368C50.7685 95.1302 49.8398 92.8346 50.2598 90.4438C50.4141 89.5659 51.7662 88.3812 51.3248 88.0661C47.3013 88.455 42.0126 91.6695 39.6022 94.8693C38.5241 96.3002 37.4362 99.5886 36.9783 97.9838C36.2646 95.483 42.9693 89.9466 44.9302 88.7208C49.5247 85.8493 55.9554 84.8302 61.3261 85.4423C66.6771 86.0527 77.1658 89.5823 81.3288 92.9839C85.3884 96.2985 84.8469 98.2627 85.0175 98.6401C85.6 99.9167 86.2712 98.1593 85.0175 96.0179C81.7948 90.5111 65.5137 85.0124 59.357 84.6251C55.3056 84.3708 48.7847 85.5276 45.2567 87.5755C41.4154 89.8055 38.0531 94.0603 37.551 94.1325C36.1628 94.3311 37.318 88.2548 41.1577 84.7892C44.5396 81.7355 49.1473 81.2826 53.2906 79.7073C65.8911 78.8738 75.5462 85.2782 86.9029 89.3788C86.6289 89.1606 86.3565 88.9424 86.0825 88.7225C81.2188 86.6467 76.3535 84.5693 71.4899 82.4936C66.2456 80.6115 58.2904 78.5341 52.7983 79.3792C50.5027 80.0355 48.2071 80.6902 45.9114 81.3466C44.1458 81.9915 41.3218 83.7571 41.074 83.3961C45.2387 72.594 59.4276 67.8091 70.0131 66.5932C71.613 66.4094 75.963 66.4833 74.2762 66.1009H71.4883H71.4932ZM132.323 69.2154C122.607 69.281 110.578 72.7269 104.859 81.1005C103.653 82.8661 100.765 88.8866 101.825 88.8866C102.815 88.8866 102.936 79.7779 113.958 73.9691C124.133 68.6066 133.979 69.0414 145.111 70.5265C145.001 70.4165 144.893 70.3082 144.783 70.1983C140.629 69.8701 136.475 69.5419 132.322 69.2154H132.323ZM117.074 84.2969C115.599 84.5152 114.122 84.7334 112.647 84.9533C108.95 85.7016 104.726 88.0103 101.661 90.1993C96.2446 94.0653 95.9066 95.273 95.5128 102.084C96.0838 103.079 97.4261 102.902 97.5623 102.985C98.1087 103.327 96.8009 104.511 99.8579 103.478C100.186 103.259 100.514 103.041 100.842 102.821C102.034 102.468 108.256 101.577 108.466 100.936C107.357 94.7331 111.156 92.4293 107.728 92.9856C106.945 93.1119 102.938 95.8949 102.154 96.5923C99.359 99.0717 98.2252 102.043 97.5623 102.331C94.7219 103.558 97.2603 98.8748 97.9725 97.987C98.898 96.8318 102.761 93.8388 104.121 92.9872C110.901 88.7422 119.171 87.3015 127.076 88.5617C134.312 89.7152 149.065 95.4207 148.309 104.546C148.199 104.874 148.091 105.202 147.981 105.529C148.348 106.064 149.717 105.135 148.965 102.25C147.918 98.2381 144.884 95.6159 141.506 93.4795C135.018 89.3788 124.015 86.8863 116.42 87.9053C108.94 88.9095 101.315 92.682 96.5794 98.5614C96.7418 92.0109 109.098 85.9559 114.615 85.119H117.074C117.184 85.0091 117.293 84.9008 117.402 84.7909C122.028 84.5382 130.892 85.5719 135.274 87.0865C142.512 89.5872 147.69 96.269 155.196 98.1511C153.146 97.1403 151.097 96.1295 149.047 95.1187C145.918 93.2366 141.342 89.072 136.422 87.2506C131.872 85.5654 121.854 84.0623 117.074 84.3002V84.2969ZM56.4083 87.7396C55.2334 87.843 52.8968 89.2033 53.8666 90.6079C54.6591 90.9623 55.4517 91.3184 56.2442 91.6728C60.3465 92.1667 60.6451 87.3671 56.4083 87.7379V87.7396ZM62.967 88.2318C64.3487 90.667 63.9827 93.0085 63.0491 95.5273C62.0695 98.1692 61.1489 96.5955 66.9019 97.7409C71.7049 98.6976 75.1967 99.9364 79.5271 102.166C82.2542 103.571 85.3227 106.9 84.3644 101.756C82.9336 94.0768 69.8605 89.0769 62.967 88.2318ZM124.618 91.3463C123.955 91.343 120.417 91.6252 120.272 92.0847C120.146 92.4867 122.084 95.1762 121.748 100.281C127.34 100.243 132.804 101.536 138.061 103.313C138.171 103.478 138.28 103.642 138.39 103.806C141.122 105.227 143.856 106.648 146.588 108.067C147.579 108.915 145.861 112.335 145.195 113.231C139.581 120.773 123.676 120.295 115.435 118.559C111.282 117.683 98.0808 113.292 96.8255 108.97C96.1888 106.779 97.5508 102.524 96.005 106.019C96.3857 110.461 92.4246 108.573 96.1691 113.561C98.1202 116.16 101.249 118.121 104.285 119.217C107.56 120.4 116.377 122.225 119.862 122.496H132.159C136.043 121.459 140.037 120.945 143.637 119.053C145.111 118.278 149.732 114.862 147.9 115.118C147.538 115.169 145.585 117.75 141.998 119.38C133.236 123.362 119.577 122.737 110.353 120.527C105.214 119.296 100.234 117.67 96.8255 113.395C94.2854 110.21 95.347 108.943 96.0871 109.052C96.5974 109.126 96.9978 112.051 104.121 115.281C114.355 119.921 129.873 122.061 140.357 117.412C145.129 115.295 146.381 113.165 148.309 108.477V107.33C146.591 103.136 145.121 100.601 141.504 97.7409C137.446 94.5313 129.78 91.3725 124.616 91.3479L124.618 91.3463ZM58.5399 92.3292C56.999 92.5753 56.8678 94.5608 59.1962 94.1325C60.952 93.8109 60.312 92.0453 58.5399 92.3292ZM114.452 92.4933C109.835 93.0676 112.191 99.7215 116.584 96.7547C118.904 95.1893 117.302 92.1388 114.452 92.4933ZM53.1298 92.9856C52.3093 93.2908 52.2814 95.2237 54.605 94.7889C56.8005 94.3787 54.2505 92.5688 53.1298 92.9856ZM117.731 97.5752C116.909 97.7032 116.083 99.0389 117.074 99.3785C119.657 100.265 120.279 97.1781 117.731 97.5752ZM53.6221 98.3956C50.78 98.778 47.938 99.1603 45.0959 99.5426C44.7546 99.6148 43.9292 99.7658 44.1114 100.035C49.9317 99.2834 55.5994 98.7025 61.4918 99.2144C63.1311 99.3572 70.4758 101.167 67.3942 99.5426C66.0273 99.3244 64.6621 99.1061 63.2952 98.8863C60.0708 98.7222 56.8464 98.5581 53.6221 98.394V98.3956ZM111.664 98.3956C110.192 98.6664 111.513 100.476 112.811 100.199C114.16 99.9118 113.041 98.1429 111.664 98.3956ZM55.6716 112.002C55.9997 112.056 56.3279 112.112 56.6561 112.166C61.0521 112.821 64.3979 113.382 68.871 112.658C72.2103 112.117 75.1918 110.98 78.0535 109.216C78.6377 108.855 84.2873 104.815 81.9884 105.609C81.3682 105.822 76.7703 110.514 70.6744 112.002C66.9216 112.918 60.5319 112.706 56.6561 112.166C56.3279 112.112 55.9997 112.056 55.6716 112.002C53.2939 111.401 50.9162 110.799 48.5385 110.199C45.2649 109.047 39.6218 105.676 38.4552 102.248C38.3846 102.038 38.378 99.7576 37.9629 100.937C37.3016 102.813 39.8877 104.109 38.4552 105.527C37.894 108.415 43.0005 108.75 45.26 112.33C49.3163 115.307 53.7714 118.95 59.1962 118.068C51.0852 117.662 47.7525 113.119 42.6362 109.216C41.7386 108.532 39.1148 107.57 38.9474 106.347C38.5487 103.441 41.0691 106.644 42.1439 107.412C46.512 110.53 50.5306 111.162 55.6716 112.002ZM111.008 102.329C110.045 102.396 102.472 103.507 102.236 103.886C101.699 104.746 105.975 103.568 106.745 103.476C114.487 102.552 121.946 102.995 129.617 104.214C129.153 103.968 128.689 103.722 128.224 103.476C125.174 102.555 114.401 102.091 111.008 102.329ZM80.1834 112.493C77.3922 112.416 67.578 115.5 65.5088 118.149C65.7598 118.521 67.6469 116.962 68.0506 116.756C70.5103 115.773 72.97 114.788 75.4281 113.805C77.6548 113.19 83.0189 112.571 80.1834 112.494V112.493ZM98.2186 116.592C97.7214 116.848 100.483 120.753 102.318 122.33C106.984 126.34 117.726 130.536 123.879 129.625C116.557 129.849 104.751 125.228 100.268 119.462C99.6167 118.625 98.6715 116.359 98.2186 116.593V116.592ZM65.5908 119.214C60.1135 119.69 59.1519 123.81 63.6234 126.918C64.5407 127.556 66.6558 128.675 67.7224 128.393C69.4847 127.927 67.0135 127.095 66.984 126.836C66.9249 126.311 69.6472 125.659 70.1 126.508C70.3019 126.885 70.4036 133.775 74.6093 132C76.7949 130.689 78.9823 129.378 81.168 128.065C83.2453 127.244 85.3211 126.426 87.3985 125.605C88.2632 125.026 87.9548 124.045 87.2344 123.474C84.645 121.421 69.15 118.902 65.5908 119.212V119.214ZM134.455 134.788C133.538 134.775 134.079 135.807 131.503 137.083C125.738 139.94 112.375 142.228 105.76 142.822C103.629 142.876 101.497 142.931 99.3656 142.986C99.2015 143.096 99.0374 143.204 98.8733 143.314C93.7816 143.519 72.5795 143.455 68.3771 142.986C63.5184 142.444 61.6986 140.874 61.3261 140.854C58.9616 140.736 64.4061 142.836 66.2456 143.15C71.3143 144.013 91.7896 144.044 97.8904 143.806C109.321 143.36 125.602 141.35 135.52 135.856C135.5 135.39 134.854 134.796 134.455 134.791V134.788ZM101.171 154.459C100.624 154.623 100.078 154.787 99.5313 154.951C94.0245 155.537 86.1826 155.429 80.6757 154.623C76.9082 154.467 80.7085 155.266 81.9868 155.443C84.8239 155.834 94.0704 155.955 97.0716 155.772C102.396 155.445 103.095 154.25 101.171 154.46V154.459Z" fill="black"/>
<path d="M133.143 45.7734C134.397 45.9424 132.037 47.5931 132.405 48.1511C136.231 48.1412 133.586 50.8044 130.683 50.0365C129.509 51.7578 128.334 53.4791 127.159 55.2004C126.895 56.5591 128.842 54.5161 131.668 55.1183C132.164 55.2234 132.667 55.6319 132.406 56.1833C132.203 56.6132 129.297 56.4426 128.389 56.5935C124.614 57.2236 125.616 60.2019 123.88 62.7404C123.27 63.633 122.139 64.6438 121.01 64.1335C118.69 63.0849 121.069 59.9016 121.749 58.4773C121.657 58.1278 118.892 58.8448 119.289 57.3303C119.555 56.3162 121.191 57.5042 122.814 56.2653C123.716 54.9264 124.617 53.5874 125.52 52.2484C125.303 50.3614 120.725 55.3891 120.109 53.5595C119.561 51.9333 126.973 49.728 128.061 49.0519C128.993 48.4727 130.122 46.1081 133.145 45.7734H133.143Z" fill="white"/>
<path d="M132.321 69.2155C136.475 69.5436 140.629 69.8718 144.783 70.1984C144.892 70.3083 145.001 70.4166 145.111 70.5265C133.979 69.0415 124.133 68.6067 113.958 73.9692C102.936 79.778 102.815 88.8883 101.825 88.8866C100.765 88.8866 103.653 82.8645 104.859 81.1005C110.578 72.727 122.607 69.2827 132.323 69.2155H132.321Z" fill="white"/>
<path d="M117.073 84.2969C121.852 84.059 131.871 85.5621 136.421 87.2473C141.341 89.0703 145.917 93.2333 149.046 95.1154C151.096 96.1262 153.145 97.137 155.195 98.1478C147.691 96.2641 142.511 89.5839 135.273 87.0832C130.891 85.5686 122.025 84.5349 117.401 84.7876C117.291 84.8975 117.183 85.0058 117.073 85.1158H114.614C109.095 85.9526 96.7408 92.0076 96.5783 98.5581C101.314 92.6803 108.939 88.9062 116.419 87.902C124.014 86.8814 135.017 89.3739 141.505 93.4762C144.885 95.6126 147.917 98.2348 148.964 102.247C149.717 105.132 148.347 106.06 147.98 105.525C148.09 105.197 148.198 104.869 148.308 104.542C149.064 95.419 134.311 89.7136 127.075 88.5584C119.17 87.2982 110.9 88.7405 104.12 92.9839C102.76 93.8355 98.8969 96.8285 97.9714 97.9837C97.2593 98.8715 94.7208 103.556 97.5612 102.327C98.2241 102.04 99.3564 99.0684 102.152 96.589C102.937 95.8932 106.944 93.1086 107.727 92.9823C111.154 92.4276 107.356 94.7298 108.465 100.932C108.255 101.574 102.033 102.465 100.841 102.818C100.513 103.036 100.185 103.254 99.8568 103.474C96.7998 104.51 98.1076 103.323 97.5612 102.982C97.425 102.897 96.0828 103.074 95.5117 102.081C95.9072 95.2697 96.2436 94.0636 101.66 90.196C104.725 88.007 108.949 85.6983 112.646 84.95C114.121 84.7318 115.598 84.5135 117.073 84.2937V84.2969Z" fill="white"/>
<path d="M62.9666 88.2318C69.8601 89.0769 82.9315 94.0767 84.364 101.756C85.3223 106.9 82.2538 103.571 79.5266 102.166C75.1963 99.9364 71.7044 98.6959 66.9015 97.7409C61.1485 96.5955 62.069 98.1708 63.0487 95.5273C63.9823 93.0085 64.3483 90.6686 62.9666 88.2318Z" fill="white"/>
<path d="M124.618 91.3463C129.782 91.3709 137.448 94.5296 141.506 97.7392C145.122 100.601 146.593 103.135 148.311 107.329V108.476C146.383 113.162 145.131 115.294 140.359 117.41C129.875 122.061 114.359 119.919 104.123 115.279C96.9995 112.05 96.5992 109.124 96.0888 109.05C95.3488 108.942 94.2871 110.208 96.8272 113.393C100.235 117.668 105.216 119.293 110.355 120.525C119.578 122.735 133.237 123.359 142 119.378C145.587 117.748 147.539 115.167 147.902 115.116C149.733 114.859 145.113 118.277 143.639 119.051C140.039 120.943 136.045 121.457 132.161 122.494H119.864C116.38 122.223 107.562 120.399 104.287 119.215C101.251 118.119 98.1219 116.16 96.1709 113.559C92.428 108.571 96.3875 110.461 96.0068 106.018C97.5525 102.522 96.1906 106.779 96.8272 108.968C98.0825 113.29 111.284 117.683 115.437 118.557C123.677 120.295 139.583 120.771 145.196 113.229C145.864 112.333 147.58 108.914 146.589 108.065C143.857 106.644 141.124 105.223 138.391 103.804C138.281 103.64 138.173 103.476 138.063 103.312C132.806 101.535 127.342 100.242 121.749 100.279C122.084 95.1745 120.148 92.4851 120.274 92.083C120.419 91.6252 123.956 91.3414 124.619 91.3446L124.618 91.3463Z" fill="white"/>
<path d="M58.5397 92.3291C60.3118 92.0452 60.9502 93.8108 59.196 94.1325C56.8676 94.5607 56.9989 92.5769 58.5397 92.3291Z" fill="white"/>
<path d="M114.451 92.4932C117.302 92.1388 118.903 95.1893 116.583 96.7547C112.19 99.7198 109.834 93.0659 114.451 92.4932Z" fill="white"/>
<path d="M117.731 97.5751C120.281 97.178 119.657 100.263 117.074 99.3785C116.083 99.0388 116.909 97.7031 117.731 97.5751Z" fill="white"/>
<path d="M53.6206 98.3955C56.845 98.5596 60.0694 98.7237 63.2937 98.8878C64.6606 99.106 66.0259 99.3243 67.3927 99.5441C70.4744 101.169 63.128 99.3587 61.4904 99.216C55.5995 98.7024 49.9302 99.2832 44.1099 100.036C43.9278 99.7673 44.7531 99.6163 45.0945 99.5441C47.9365 99.1618 50.7786 98.7795 53.6206 98.3972V98.3955Z" fill="white"/>
<path d="M111.664 98.3957C113.041 98.143 114.16 99.9119 112.811 100.199C111.512 100.476 110.191 98.6664 111.664 98.3957Z" fill="white"/>
<path d="M111.008 102.329C114.402 102.091 125.174 102.555 128.225 103.476C128.689 103.722 129.153 103.968 129.618 104.214C121.946 102.995 114.487 102.554 106.745 103.476C105.976 103.568 101.699 104.746 102.236 103.886C102.472 103.507 110.043 102.396 111.008 102.329Z" fill="white"/>
<path d="M56.6543 112.164C60.5318 112.704 66.9198 112.916 70.6726 112C76.7685 110.512 81.3664 105.821 81.9866 105.607C84.2855 104.813 78.6359 108.853 78.0517 109.214C75.19 110.978 72.2101 112.115 68.8692 112.657C64.3961 113.382 61.0503 112.819 56.6543 112.164Z" fill="white"/>
<path d="M80.1844 112.493C83.0199 112.571 77.6558 113.188 75.429 113.804C72.9693 114.787 70.5096 115.771 68.0515 116.754C67.6495 116.961 65.7608 118.52 65.5098 118.147C67.5789 115.499 77.3932 112.416 80.1844 112.491V112.493Z" fill="white"/>
<path d="M98.2191 116.592C98.6719 116.359 99.6171 118.623 100.269 119.46C104.752 125.226 116.558 129.847 123.88 129.624C117.726 130.536 106.985 126.339 102.318 122.328C100.484 120.751 97.7219 116.848 98.2191 116.59V116.592Z" fill="white"/>
<path d="M65.5919 119.214C69.151 118.904 84.6461 121.424 87.2354 123.475C87.9558 124.046 88.2643 125.026 87.3995 125.607C85.3221 126.427 83.2464 127.246 81.169 128.066C78.9833 129.378 76.796 130.689 74.6103 132.001C70.4047 133.777 70.3029 126.887 70.1011 126.509C69.6482 125.661 66.9259 126.312 66.985 126.837C67.0145 127.097 69.4841 127.929 67.7234 128.395C66.6568 128.677 64.5417 127.558 63.6244 126.92C59.153 123.812 60.1145 119.691 65.5919 119.215V119.214Z" fill="white"/>
<path d="M134.454 134.788C134.853 134.794 135.499 135.387 135.519 135.853C125.601 141.346 109.32 143.356 97.8897 143.803C91.7905 144.041 71.3136 144.009 66.2448 143.146C64.4054 142.833 58.9608 140.733 61.3254 140.851C61.6962 140.869 63.5176 142.441 68.3764 142.982C72.5804 143.45 93.7809 143.516 98.8726 143.31C99.0367 143.201 99.2008 143.092 99.3649 142.982C101.496 142.928 103.628 142.872 105.759 142.818C112.374 142.224 125.736 139.937 131.502 137.08C134.077 135.803 133.535 134.771 134.454 134.784V134.788Z" fill="white"/>
<path d="M101.171 154.459C103.095 154.249 102.396 155.443 97.0716 155.77C94.072 155.954 84.8255 155.832 81.9867 155.442C80.7085 155.266 76.9081 154.467 80.6756 154.621C86.1825 155.427 94.0244 155.535 99.5313 154.95C100.078 154.785 100.624 154.621 101.171 154.457V154.459Z" fill="white"/>
</svg>
