<svg width="220" height="200" viewBox="0 0 220 200" fill="none" xmlns="http://www.w3.org/2000/svg">
<path d="M183.954 19.8467C185.794 19.8099 187.229 19.9939 188.481 20.9508C189.622 21.7973 190.394 23.159 191.314 24.7415C195.252 31.7341 197.166 40.7508 197.939 49.8043C198.712 58.8946 198.344 68.1321 197.608 75.7503V75.8239L197.461 76.8175V77.0016C197.056 79.909 196.651 82.8164 196.283 85.687C195.952 90.2138 196.43 96.3599 197.056 102.727C197.203 104.236 197.35 105.745 197.497 107.29C197.976 111.854 198.417 116.344 198.601 120.098C200.81 120.171 202.907 119.73 204.564 119.178C205.484 118.883 206.293 118.552 206.882 118.294C207.14 118.184 207.471 118.037 207.655 117.963C207.765 117.926 207.876 117.89 207.986 117.816C208.06 117.816 208.244 117.706 208.428 117.706C209.79 117.522 210.857 118.258 211.298 119.251C211.703 120.135 211.666 121.57 210.378 122.306C210.194 122.416 210.01 122.49 209.9 122.527C209.753 122.564 209.606 122.637 209.458 122.674C209.127 122.784 208.685 122.895 208.207 123.005C207.839 123.116 207.397 123.189 206.993 123.3C206.293 123.484 205.52 123.668 204.748 123.888C203.496 124.22 202.245 124.551 201.214 124.882C200.699 125.029 200.294 125.177 199.963 125.324C199.706 125.434 199.595 125.508 199.558 125.508C199.558 125.508 199.485 125.581 199.448 125.729C199.338 125.913 199.227 126.207 199.154 126.575C198.933 127.311 198.749 128.231 198.601 129.225C198.454 130.218 198.344 131.249 198.233 132.169C198.233 132.427 198.197 132.647 198.16 132.868C198.16 133.2 198.086 133.494 198.049 133.752C198.197 133.862 198.381 134.009 198.565 134.156C199.227 134.635 200.074 135.187 200.957 135.739C201.141 135.849 201.288 135.96 201.472 136.07C202.171 136.512 202.871 136.953 203.423 137.358C203.754 137.579 204.085 137.8 204.343 138.021C204.453 138.131 204.6 138.242 204.711 138.352C204.784 138.426 204.858 138.499 204.932 138.61C205.005 138.683 205.116 138.867 205.189 139.125C205.336 139.714 205.3 140.266 205.079 140.781C204.858 141.259 204.49 141.627 204.159 141.848C203.533 142.253 202.723 142.474 201.987 142.363L201.619 142.29L201.325 142.069C200.773 141.627 200.221 141.186 199.669 140.781C199.154 140.376 198.601 139.934 198.049 139.53C196.909 138.904 196.32 138.683 195.988 138.646C195.915 138.646 195.878 138.646 195.878 138.646C195.878 138.646 195.804 138.683 195.768 138.757C195.51 139.014 195.289 139.419 194.848 140.192C194.774 140.302 194.7 140.413 194.664 140.523C194.148 141.407 193.449 142.511 192.419 143.799C189.695 147.185 185.5 150.607 181.709 152.705C179.869 153.699 175.821 155.355 171.772 156.974C167.687 158.593 163.492 160.139 161.21 160.986C144.575 167.058 126.91 172.505 109.539 176.075C104.386 176.995 99.2337 177.915 94.0813 178.835C93.6029 178.909 93.1245 178.982 92.646 179.056C90.8795 179.314 88.9658 179.608 87.0888 179.755C84.6598 179.939 82.1572 179.902 79.8018 179.24C78.9922 179.019 77.8881 178.541 76.7104 177.989C75.4959 177.4 74.1342 176.7 72.7725 175.964C70.0491 174.492 67.2889 172.91 65.8536 172.1C52.1629 164.151 34.7183 152.116 23.4199 140.965C21.2485 138.83 19.5188 137.101 18.5251 134.929C17.4946 132.721 17.237 130.182 17.5314 126.465C17.5314 126.06 17.6786 125.618 17.7522 125.25C17.7522 125.14 17.8258 124.992 17.8258 124.882C17.8994 124.588 17.973 124.33 18.0098 124.072C18.0835 123.778 18.1203 123.557 18.1203 123.373C17.6786 123.152 17.2002 122.932 16.7586 122.711H16.6849C16.0593 122.379 15.4336 122.085 14.808 121.791C14.0719 121.68 13.3727 121.57 12.6734 121.459C11.9006 121.349 11.1645 121.239 10.3549 121.091L9.83961 121.018L9.47159 120.613C8.99315 120.098 9.02995 119.435 9.02995 119.178C9.02995 118.846 9.14036 118.552 9.25077 118.294C9.36118 118.037 9.47159 117.816 9.58199 117.632C9.6556 117.522 9.72921 117.411 9.83961 117.301C9.91322 117.227 10.134 116.969 10.5389 116.822L10.8333 116.712H11.1277C12.6734 116.859 14.2192 116.969 15.7281 117.117C17.0162 117.227 18.2675 117.337 19.5556 117.411C19.5556 117.411 19.5556 117.337 19.5924 117.301C19.8132 116.822 20.034 116.123 20.2548 115.424C20.4756 114.688 20.6229 113.952 20.7333 113.4C20.7333 113.326 20.7333 113.289 20.7333 113.216C19.5188 112.443 18.2675 111.67 17.053 110.897C15.5809 109.977 14.0719 109.057 12.5998 108.137L11.7166 107.585L11.9374 106.554C11.9742 106.333 12.011 106.223 12.0478 106.076C12.0478 105.929 12.1214 105.818 12.1582 105.597L12.5262 104.015L14.0719 104.567C15.6913 105.156 17.3474 105.745 18.9667 106.333C20.2548 106.775 21.5429 107.254 22.831 107.695C23.8983 104.088 24.9288 100.519 25.9961 96.9119C27.4314 92.0539 28.8667 87.196 30.302 82.338C30.118 64.8566 30.8908 50.0987 35.4544 33.0222V32.9853C36.3745 29.9307 37.2945 26.8761 38.2146 23.7846V23.6742L38.2882 23.5638C38.6562 22.791 39.1715 22.0917 39.9812 21.6869C40.6436 21.3924 41.3797 21.3556 41.9317 21.3556C41.9685 21.3556 42.0053 21.3556 42.0421 21.3556H42.0789H42.1525H42.2261C43.6982 21.4661 45.1336 21.6133 46.6057 21.7237C48.0778 21.8341 49.5131 21.9813 50.9852 22.0917C59.5235 23.159 68.9818 25.9192 76.784 29.4891H76.8208L76.8576 29.5259L88.7817 36.04C102.656 36.1872 116.421 37.9905 130.075 39.7939C131.031 39.9043 131.988 40.0515 132.945 40.1619C133.571 39.5363 134.196 38.9106 134.859 38.2482C140.527 32.5797 147.712 29.1123 155.137 26.2136C162.056 23.527 169.343 21.4661 174.643 20.73L183.844 19.8467H183.954Z" fill="black" stroke="white" stroke-width="2.90743"/>
<path d="M133.094 44.7623C135.854 44.5414 130.996 47.3017 134.86 47.5225C135.559 47.9641 133.646 49.7306 131.364 49.1418C130.186 50.8347 128.972 52.4909 127.794 54.1838C127.683 55.3983 131.364 53.4477 132.689 54.5518C134.676 56.2447 128.088 55.5455 126.874 56.4656C126.101 57.0544 123.856 62.8325 123.451 63.2373C122.421 64.3046 119.881 63.3477 120.249 61.3235C120.728 60.4035 121.206 59.4834 121.721 58.5633C121.869 57.3488 120.139 57.7905 119.697 56.6496C121.721 55.5455 122.605 56.944 124.666 53.7422C128.199 48.1849 122.641 53.0797 121.537 53.0797C120.433 53.0797 120.47 52.5277 120.581 52.1228C120.801 51.35 127.352 48.737 128.383 48.1113C129.524 47.4121 131.732 44.8727 133.204 44.7623H133.094Z" fill="white"/>
<path d="M136 76.56C144.133 76.1919 153.408 80.3875 158.376 86.8279C165 95.4766 163.676 103.426 158.67 112.48C151.457 125.581 136.773 129.593 123.156 123.925C105.785 116.675 107.956 93.3052 121.536 82.3748C125.548 79.1362 130.774 76.7808 135.963 76.56H136Z" fill="white"/>
<path d="M66.4433 85.5767C72.9574 85.0982 78.3674 88.1161 80.7964 94.2621C86.8689 109.572 71.2645 123.447 59.1563 113.436C49.1092 105.119 51.2437 86.7175 66.4433 85.5767Z" fill="white"/>
<path d="M71.265 129.188C74.6877 128.82 83.3363 132.022 86.8694 133.42C88.0471 133.899 98.2783 137.763 93.862 139.382C90.3657 140.302 86.8694 141.223 83.3731 142.143C79.5457 143.467 76.7854 146.633 76.4542 137.395C76.1598 136.512 74.1356 136.181 73.9884 137.248C73.9516 137.505 75.1293 140.56 70.713 137.321C67.5111 134.966 65.855 129.703 71.3018 129.151L71.265 129.188Z" fill="white"/>
</svg>
