<svg width="220" height="200" viewBox="0 0 220 200" fill="none" xmlns="http://www.w3.org/2000/svg">
<path d="M180.032 20.03C186.872 20 189.482 23.63 192.252 30.27C198.392 44.97 197.442 70.01 194.742 85.74C195.412 96.23 196.072 106.73 196.742 117.22C197.972 119.16 208.262 112.28 209.712 117.72C211.092 122.89 201.922 124.02 198.482 124.97C194.162 132.96 198.082 131.76 200.972 134.46C207.132 140.22 201.232 145.22 193.492 138.96L186.012 147.95C177.862 154.74 143.722 166.2 132.122 169.44C122.502 172.12 89.902 179.63 81.732 178.43C73.362 177.2 39.9519 154.02 32.3319 147.45C25.1219 141.23 15.182 133.43 19.112 122.71C15.872 120.6 8.96192 122.98 10.1319 117.21C11.3119 111.39 24.222 117.44 21.362 112.46C20.752 111.4 12.4319 109.5 13.1319 105.21C14.1419 98.99 23.902 105.88 24.612 104.71C26.772 96.88 28.9319 89.05 31.1019 81.22C30.9019 69.67 31.1119 58.13 33.1019 46.74C33.7619 42.96 38.3719 23.15 40.8319 22C48.1419 18.59 82.162 28.99 89.732 35.99C103.792 35.91 117.782 37.86 131.642 39.99C139.872 29.2 167.192 20.06 180.042 20L180.032 20.03ZM178.032 23.03C165.872 23.55 140.892 32.57 132.632 42.52C117.662 41.19 102.692 39.85 87.732 38.52C74.762 29.17 58.2619 24.85 42.3319 24.53C34.6519 43.29 33.9819 63.65 33.6019 83.74C31.0219 91.99 28.442 100.23 25.872 108.48C25.252 108.68 12.8019 103.24 16.8919 106.98C18.7919 108.72 28.9519 109.71 22.3819 117.97C8.40192 116.66 11.3919 116.98 22.1319 121.22C23.8219 125.61 13.512 127.01 33.862 144.96C40.612 150.91 74.4319 174.26 81.2619 175.44C90.5419 177.05 125.032 168.56 135.642 165.45C142.862 163.33 172.792 152.8 178.052 149.96C193.912 141.41 188.862 129.62 199.502 139.47C203.072 137.9 197.152 136.34 193.262 132.72C193.762 130.05 194.262 127.39 194.762 124.72C196.102 121.88 212.932 118.32 205.492 117.97C204.912 117.94 199.412 121.68 194.262 120.22C193.432 110.73 192.602 101.23 191.772 91.74C191.642 74.68 200.312 42.35 184.042 23.03H178.052H178.032Z" fill="white"/>
<path d="M178.033 23.03H184.023C200.293 42.35 191.623 74.68 191.753 91.74C192.583 101.23 193.413 110.73 194.243 120.22C199.393 121.68 204.883 117.94 205.473 117.97C212.913 118.32 196.083 121.87 194.743 124.72C194.243 127.39 193.743 130.05 193.243 132.72C197.123 136.33 203.043 137.89 199.483 139.47C188.833 129.62 193.893 141.42 178.033 149.96C172.773 152.8 142.843 163.33 135.623 165.45C125.013 168.57 90.5227 177.05 81.2427 175.44C74.4127 174.26 40.5927 150.91 33.8427 144.96C13.4927 127.02 23.8127 125.62 22.1127 121.22C11.3727 116.98 8.38273 116.66 22.3627 117.97C28.9327 109.71 18.7727 108.71 16.8727 106.98C12.7827 103.24 25.2327 108.68 25.8527 108.48C28.4327 100.23 31.0127 91.99 33.5827 83.74C33.9627 63.65 34.6327 43.28 42.3127 24.53C58.2427 24.85 74.7427 29.17 87.7127 38.52C102.683 39.85 117.653 41.19 132.613 42.52C140.873 32.57 165.863 23.55 178.013 23.03H178.033ZM131.133 46.01C129.973 47.01 128.803 48.01 127.643 49.01C125.063 50.43 122.483 51.84 119.913 53.26C120.163 55.5 123.553 51.66 124.903 52.26C123.533 57.66 118.913 56.87 118.913 57.76C119.743 58.09 120.573 58.43 121.403 58.76C121.563 59.03 117.963 63.1 120.653 64.01C123.713 65.05 124.623 59.17 124.893 58.76C126.953 55.66 135.683 56.26 131.633 55.01C130.053 55.09 128.473 55.18 126.893 55.26C130.403 47.98 133.773 50.48 133.883 49.26L132.383 47.76C132.243 47.12 134.873 45.23 131.133 46.01ZM52.8027 75C67.7827 78.75 74.5227 102.12 84.9827 96.74C73.7527 91.54 61.9127 74.67 52.8027 75ZM139.113 79.99C129.803 85.49 120.483 90.98 111.173 96.48C109.693 97.35 105.083 98.51 105.933 99.73C111.903 102.17 120.963 91.77 131.133 85.49C134.023 83.71 138.723 80.59 141.113 80.99C140.443 80.66 139.783 80.32 139.113 79.99ZM49.3027 82.49C45.2727 83.4 40.2027 93.34 43.0627 102.23C48.2527 118.32 78.6327 118.53 80.9827 105.73C82.5527 97.14 77.8127 98.28 70.7527 93.99C66.7227 91.54 53.0827 81.64 49.3027 82.5V82.49ZM140.613 86.99C129.803 92.32 118.993 97.65 108.183 102.98C99.6727 124.44 138.683 128.35 148.343 112.72C154.793 102.29 150.113 85.34 140.613 86.99ZM78.2427 112.97C77.3927 112.91 71.0227 118.39 64.5227 118.22C76.3727 119.46 82.6927 113.3 78.2427 112.97ZM105.683 114.97C102.673 115.8 109.803 122.29 115.663 123.96C123.253 126.13 113.523 122.31 111.673 120.96L105.683 114.96V114.97ZM72.7527 128.96C62.2427 130.13 73.6627 140.9 75.4927 138.2C75.2427 137.62 74.9927 137.03 74.7427 136.45C77.9827 133.38 77.6527 141.97 80.2327 142.45C85.3027 140.03 90.3827 137.62 95.4527 135.2C96.0927 132.47 76.5627 128.53 72.7527 128.95V128.96ZM122.153 141.46C109.293 142.61 95.7827 157.21 76.2527 150.45C61.2327 149.52 58.4027 155.86 62.7827 154.95C64.4427 153.95 66.1127 152.95 67.7727 151.95C84.5427 147.76 99.8927 163.87 119.663 160.44C142.023 156.56 136.293 140.19 122.153 141.45V141.46Z" fill="black"/>
<path d="M131.132 46.01C134.872 45.23 132.242 47.12 132.382 47.76L133.882 49.26C133.782 50.47 130.402 47.97 126.892 55.26C128.472 55.18 130.052 55.09 131.632 55.01C135.682 56.26 126.952 55.66 124.892 58.76C124.622 59.17 123.712 65.04 120.652 64.01C117.962 63.1 121.562 59.03 121.402 58.76C120.572 58.43 119.742 58.09 118.912 57.76C118.912 56.87 123.522 57.66 124.902 52.26C123.552 51.66 120.162 55.5 119.912 53.26C122.492 51.84 125.072 50.43 127.642 49.01C128.802 48.01 129.972 47.01 131.132 46.01Z" fill="white"/>
<path d="M52.8027 75C61.9127 74.67 73.7527 91.53 84.9827 96.74C74.5227 102.13 67.7727 78.76 52.8027 75Z" fill="white"/>
<path d="M139.112 79.99C139.782 80.32 140.442 80.66 141.112 80.99C138.722 80.59 134.022 83.7 131.132 85.49C120.962 91.78 111.902 102.17 105.932 99.73C105.082 98.51 109.692 97.36 111.172 96.48C120.482 90.98 129.802 85.49 139.112 79.99Z" fill="white"/>
<path d="M49.302 82.49C53.082 81.63 66.7219 91.53 70.7519 93.98C77.8119 98.28 82.552 97.13 80.982 105.72C78.632 118.53 48.252 118.32 43.062 102.22C40.192 93.33 45.262 83.4 49.302 82.48V82.49Z" fill="white"/>
<path d="M140.612 86.99C150.122 85.34 154.792 102.3 148.342 112.72C138.682 128.35 99.6622 124.44 108.182 102.98C118.992 97.65 129.802 92.32 140.612 86.99Z" fill="white"/>
<path d="M78.2415 112.97C82.6915 113.3 76.3715 119.46 64.5215 118.22C71.0215 118.4 77.3915 112.91 78.2415 112.97Z" fill="white"/>
<path d="M105.682 114.97L111.672 120.97C113.522 122.32 123.252 126.13 115.662 123.97C109.802 122.3 102.672 115.8 105.682 114.98V114.97Z" fill="white"/>
<path d="M72.7524 128.96C76.5624 128.53 96.1024 132.48 95.4524 135.21C90.3824 137.63 85.3025 140.04 80.2325 142.46C77.6525 141.98 77.9825 133.39 74.7425 136.46C74.9925 137.04 75.2425 137.63 75.4925 138.21C73.6625 140.91 62.2424 130.14 72.7524 128.97V128.96Z" fill="white"/>
<path d="M122.152 141.46C136.292 140.2 142.023 156.57 119.663 160.45C99.8925 163.88 84.5425 147.77 67.7725 151.96C66.1125 152.96 64.4425 153.96 62.7825 154.96C58.4025 155.87 61.2325 149.53 76.2525 150.46C95.7825 157.22 109.292 142.61 122.152 141.47V141.46Z" fill="white"/>
</svg>
