<svg width="220" height="200" viewBox="0 0 220 200" fill="none" xmlns="http://www.w3.org/2000/svg">
<path d="M180.022 20.02C186.862 19.99 189.472 23.6199 192.242 30.2599C198.382 44.9599 197.432 70 194.732 85.73C195.402 95.89 196.062 106.05 196.732 116.21C198.002 120.12 208.132 111.82 209.702 117.71C211.392 124.03 197.962 124.06 197.232 125.71C197.062 127.71 196.902 129.71 196.732 131.71C196.972 132.35 208.452 138.08 201.972 141.45C197.162 143.95 195.462 138.43 193.492 138.95C192.542 139.2 189.292 147.13 179.522 152.44C173.562 155.68 140.132 167.19 132.122 169.43C122.522 172.11 89.872 179.62 81.732 178.42C72.082 177.01 23.062 143.85 19.112 133.2C17.872 129.85 18.052 126.09 19.112 122.71C15.872 120.6 8.96192 122.98 10.1319 117.21C11.2719 111.59 27.512 117.41 19.862 111.46C18.242 110.2 12.4719 109.2 13.1219 105.21C14.1319 99.04 23.7219 105.87 24.6019 104.71C26.7619 97.38 28.9219 90.05 31.0919 82.72C30.8719 69.67 31.1119 56.58 33.5819 43.74C34.2319 40.39 38.6619 23.01 40.8119 22C48.1219 18.59 82.1419 28.99 89.7119 35.99C103.632 35.8 117.422 37.91 131.122 39.99C140.142 29.41 166.782 20.06 180.022 20V20.02ZM178.022 23.02C165.592 23.55 140.422 32.6899 132.122 43.0099C117.432 40.4699 102.622 39.1899 87.7119 38.5099C74.7119 29.2199 58.1819 24.79 42.3119 24.52C34.9919 42.96 33.4019 62.97 34.0819 82.73C31.3419 91.31 28.5919 99.89 25.8519 108.46C22.5319 107.61 13.4519 103.63 16.8719 106.96C18.9019 108.93 28.912 109.66 22.362 117.95C8.36196 116.74 11.492 116.96 22.112 121.2C23.822 125.64 13.4519 126.97 33.8419 144.94C40.6219 150.92 74.3619 174.23 81.2419 175.42C90.5219 177.03 125.012 168.54 135.622 165.43C142.842 163.31 172.772 152.78 178.032 149.94C193.842 141.42 187.832 132.35 197.492 137.45C198.442 137.95 199.112 140.59 200.482 138.95C201.712 137.49 194.952 134.76 193.252 132.7C194.942 117.4 199.082 124.66 206.722 118.71C206.152 116.87 198.402 122.44 194.252 119.71C193.422 110.55 192.592 101.39 191.762 92.23C193.092 70.45 198.862 41 184.032 23.02H178.042H178.022Z" fill="white"/>
<path d="M178.022 23.02H184.012C198.842 41 193.082 70.45 191.742 92.23C192.572 101.39 193.402 110.55 194.232 119.71C198.382 122.44 206.132 116.87 206.702 118.71C199.062 124.67 194.922 117.4 193.232 132.7C194.942 134.75 201.692 137.48 200.462 138.95C199.082 140.59 198.412 137.95 197.472 137.45C187.812 132.35 193.822 141.42 178.012 149.94C172.752 152.78 142.822 163.31 135.602 165.43C124.992 168.55 90.502 177.03 81.222 175.42C74.342 174.23 40.602 150.92 33.822 144.94C13.442 126.98 23.812 125.65 22.092 121.2C11.472 116.96 8.34197 116.74 22.342 117.95C28.892 109.66 18.882 108.93 16.852 106.96C13.432 103.63 22.512 107.61 25.832 108.46C28.572 99.88 31.3219 91.3 34.0619 82.73C33.3819 62.97 34.972 42.96 42.292 24.52C58.172 24.79 74.7019 29.2299 87.6919 38.5099C102.592 39.1899 117.412 40.4599 132.102 43.0099C140.402 32.6899 165.572 23.55 178.002 23.02H178.022ZM131.122 46.0099C129.962 47.0099 128.792 48.0099 127.632 49.0099C124.052 50.9799 117.642 52.8399 121.142 54.0099C127.162 48.7099 124.952 56.5499 119.392 57.2599C119.432 58.8699 121.192 58.3299 121.392 58.7599C121.522 59.0399 117.982 63.0999 120.642 64.0099C123.952 65.1299 124.822 57.8199 126.132 57.0099C128.042 56.7599 129.962 56.5099 131.872 56.2599C133.422 54.0099 126.972 55.5499 126.882 55.2599C130.362 47.9999 133.812 50.4499 133.872 49.2599C130.492 47.4899 135.432 45.0999 131.132 46.0099H131.122ZM63.262 73.49C60.952 73.72 54.562 76.08 57.272 76.99C69.132 75.15 89.112 84.41 78.232 76.99C74.782 74.64 67.472 73.07 63.262 73.49ZM127.632 80.98C126.872 81.06 118.782 83.55 120.642 84.48C131.782 82.59 149.002 90.2 144.092 85.48C141.032 82.54 131.812 80.55 127.622 80.98H127.632ZM51.292 81.48C27.312 83.03 39.7919 90.12 40.0619 91.22C41.1919 95.81 35.122 111.8 60.272 114.46C90.932 117.69 79.8719 91.29 95.6919 93.47C104.972 94.75 98.252 107.89 102.922 115.71C107.892 124.02 138.982 128.88 146.582 124.45C154.332 119.94 153.352 103.72 162.552 104.96C167.052 98.1 163.652 97.1 155.072 94.47C136.292 88.72 116.662 88.26 97.1919 89.47C87.5419 88.48 75.252 79.93 51.292 81.47V81.48ZM71.2519 127.96C64.9419 129.56 72.2619 137.8 74.2419 137.45C75.6919 137.2 73.7919 134.55 76.2419 134.95C78.5419 135.33 76.222 141.19 79.232 141.95C84.472 140.37 89.712 138.79 94.952 137.2C96.162 134.24 75.9719 126.76 71.2519 127.96Z" fill="black"/>
<path d="M131.123 46.0099C135.423 45.0999 130.493 47.4899 133.863 49.2599C133.813 50.4399 130.353 47.9999 126.873 55.2599C126.963 55.5499 133.413 54.0099 131.863 56.2599C129.953 56.5099 128.033 56.7599 126.123 57.0099C124.823 57.8099 123.943 65.1299 120.633 64.0099C117.973 63.1099 121.513 59.0399 121.383 58.7599C121.183 58.3299 119.423 58.8699 119.383 57.2599C124.943 56.5499 127.153 48.7099 121.133 54.0099C117.623 52.8399 124.033 50.9799 127.623 49.0099C128.783 48.0099 129.953 47.0099 131.113 46.0099H131.123Z" fill="white"/>
<path d="M63.2612 73.49C67.4712 73.07 74.7812 74.64 78.2312 76.99C89.1112 84.41 69.1312 75.15 57.2712 76.99C54.5612 76.09 60.9512 73.72 63.2612 73.49Z" fill="white"/>
<path d="M127.633 80.98C131.813 80.54 141.043 82.54 144.103 85.48C149.013 90.2 131.793 82.59 120.653 84.48C118.783 83.55 126.873 81.06 127.643 80.98H127.633Z" fill="white"/>
<path d="M51.2928 81.48C75.2528 79.93 87.5427 88.49 97.1927 89.48C116.653 88.27 136.283 88.72 155.073 94.48C163.653 97.11 167.063 98.12 162.553 104.97C153.353 103.72 154.343 119.95 146.583 124.46C138.983 128.88 107.893 124.02 102.923 115.72C98.2428 107.9 104.973 94.76 95.6927 93.48C79.8627 91.3 90.9328 117.7 60.2728 114.47C35.1228 111.82 41.1927 95.82 40.0627 91.23C39.7927 90.12 27.3028 83.04 51.2928 81.49V81.48ZM49.2928 84.48C39.7928 86.09 43.2128 101.5 45.3028 101.97C47.7828 102.53 48.0528 97.36 49.5428 95.22C51.1028 92.97 57.9428 89.39 57.0228 86.23C56.4528 84.25 51.0128 84.19 49.2928 84.48ZM112.663 92.48C103.033 94.06 106.563 109.52 108.673 109.97C111.133 110.49 110.933 106.08 112.913 103.22C114.463 100.99 123.843 95.67 119.153 92.98C116.993 92.81 114.833 92.65 112.663 92.48Z" fill="white"/>
<path d="M49.2931 84.48C51.0231 84.19 56.4531 84.25 57.0231 86.23C57.9431 89.4 51.1031 92.98 49.5431 95.22C48.0531 97.36 47.7831 102.53 45.3031 101.97C43.2131 101.5 39.7931 86.09 49.2931 84.48Z" fill="black"/>
<path d="M112.663 92.48C114.823 92.65 116.983 92.81 119.153 92.98C123.853 95.68 114.473 100.99 112.913 103.22C110.933 106.07 111.133 110.49 108.673 109.97C106.563 109.52 103.033 94.06 112.663 92.48Z" fill="black"/>
<path d="M71.2518 127.96C75.9718 126.76 96.1618 134.24 94.9518 137.2C89.7118 138.78 84.4718 140.36 79.2318 141.95C76.2218 141.19 78.5418 135.34 76.2418 134.95C73.8018 134.54 75.6918 137.2 74.2418 137.45C72.2618 137.79 64.9418 129.56 71.2518 127.96Z" fill="white"/>
</svg>
