<svg width="72" height="28" viewBox="0 0 72 28" fill="none" xmlns="http://www.w3.org/2000/svg">
<path d="M59.0468 20.6177C58.2053 20.7277 57.4906 20.0147 57.3452 19.0215C56.9368 16.2335 61.3733 12.7289 62.4469 10.3382C47.7824 17.0954 21.9988 24.6508 7.4117 16.3612C0.593016 12.4842 -0.610459 5.75886 2.15538 6.4399C5.17181 7.18125 10.1157 26.8997 60.5906 7.50404C58.329 7.32314 52.8221 5.68082 53.6327 2.00956C54.1401 -0.288973 56.9894 1.96344 60.2812 1.8322C63.3471 1.7116 74.296 -3.55941 71.5673 4.8437C70.9516 6.73431 60.6246 20.4049 59.0468 20.6142V20.6177Z" fill="black"/>
<path d="M17.6196 27.7087C13.1986 27.7938 7.3421 26.602 4.0163 23.101C-0.089144 18.777 5.21668 23.2925 10.2007 24.5198C14.7362 25.1122 19.2686 25.701 23.8041 26.2934C24.3702 26.9531 18.0342 27.7016 17.6196 27.7122V27.7087Z" fill="black"/>
</svg>
