<svg width="220" height="200" viewBox="0 0 220 200" fill="none" xmlns="http://www.w3.org/2000/svg">
<path d="M176.614 22.0297C184.894 21.6897 188.144 24.1497 191.834 35.7697C197.414 53.3597 194.534 74.1597 192.834 92.2397C193.504 100.57 194.164 108.9 194.834 117.23C195.904 119.69 206.334 112.68 207.804 118.23C209.514 124.66 196.554 123.57 195.334 126.72C195.164 128.39 195.004 130.05 194.834 131.72C195.094 132.47 205.834 137.26 200.074 141.46C196.394 144.15 193.124 138.87 192.094 138.96C190.294 139.12 187.674 151.08 162.654 158.45C157.904 164.17 154.204 176.1 144.694 173.44C141.134 172.45 139.624 167.31 135.714 167.44C127.894 169.61 120.084 171.77 112.264 173.94C101.824 176.1 85.4236 179.86 75.8336 175.94C70.0736 173.58 45.1036 157.05 38.4136 151.45C30.1136 159.76 21.7536 148.91 23.1936 139.21C22.2936 135.67 17.2336 131.88 20.2036 123.22C19.5936 121.29 9.3736 123.78 11.2236 117.22C12.6236 112.27 23.0536 117.11 22.7036 113.72C19.8736 111.72 17.0436 109.72 14.2236 107.72C12.9536 103.22 18.0936 101.54 24.4536 105.47C24.8736 105.22 25.2836 104.97 25.7036 104.72C27.5336 98.3897 29.3636 92.0597 31.1936 85.7297C27.3736 78.1797 22.1036 66.2697 20.2136 58.2497C18.2736 50.0297 17.2136 48.8497 30.4436 43.0097C39.2736 39.1097 52.7136 36.0397 62.3736 35.5097C79.5836 34.5797 111.924 39.5397 130.734 41.5097C138.384 31.3497 164.754 22.5097 176.644 22.0197L176.614 22.0297ZM176.114 25.0297C162.994 25.6097 140.344 34.1597 131.704 44.5197C103.924 41.9197 68.0436 34.1697 41.3936 42.0197C38.1736 42.9697 21.7736 49.4097 21.6836 52.2597C24.6836 63.8497 28.7136 75.0697 34.1536 85.7397C31.8236 93.3997 29.4936 101.06 27.1636 108.73C23.8336 107.9 20.5136 107.06 17.1836 106.23C20.0136 108.23 22.8436 110.23 25.6636 112.23C25.9236 113 24.3536 119.24 22.4236 118.48C20.8036 117.84 12.9436 116.99 14.1936 118.73C28.2436 120.66 20.9236 123.27 22.1736 130.72C23.3336 132.89 24.5036 135.05 25.6636 137.22C26.5836 140.47 25.1936 149.04 30.4036 150.96C37.1436 153.45 35.7436 146.9 37.3936 146.96C44.2136 151.96 51.0336 156.95 57.8536 161.95C85.5736 179.69 83.3036 175.95 116.734 169.95C146.524 159.88 138.544 168.03 145.174 170.45C153.004 173.31 156.464 160.04 161.144 155.96C167.294 153.29 173.454 150.63 179.604 147.96C191.814 139.75 186.704 132.51 196.074 137.97C196.674 138.32 197.254 140.53 198.564 138.97C199.754 137.56 193.024 134.6 191.824 133.22C192.154 130.39 192.494 127.56 192.824 124.73C193.854 122.4 211.194 118.85 203.554 118.48C202.974 118.45 197.944 121.85 192.324 120.73C191.744 108.54 189.784 96.4897 190.324 84.2497C193.084 70.4897 193.244 47.1297 188.324 34.2797C184.464 24.2097 181.774 24.7897 176.104 25.0397L176.114 25.0297Z" fill="white"/>
<path d="M176.114 25.0297C181.784 24.7797 184.484 24.2097 188.334 34.2697C193.254 47.1197 193.084 70.4797 190.334 84.2397C189.784 96.4797 191.744 108.53 192.334 120.72C197.944 121.84 202.974 118.44 203.564 118.47C211.214 118.83 193.864 122.39 192.834 124.72C192.504 127.55 192.164 130.38 191.834 133.21C193.034 134.58 199.754 137.55 198.574 138.96C197.264 140.52 196.684 138.31 196.084 137.96C186.724 132.5 191.824 139.74 179.614 147.95C173.464 150.62 167.304 153.28 161.154 155.95C156.474 160.03 153.014 173.3 145.184 170.44C138.554 168.02 146.534 159.87 116.744 169.94C83.3144 175.95 85.5944 179.69 57.8644 161.94C51.0444 156.94 44.2244 151.95 37.4044 146.95C35.7544 146.89 37.1644 153.44 30.4144 150.95C25.2044 149.03 26.5944 140.46 25.6744 137.21C24.5144 135.04 23.3444 132.88 22.1844 130.71C20.9344 123.26 28.2444 120.65 14.2044 118.72C12.9544 116.98 20.8144 117.83 22.4344 118.47C24.3744 119.23 25.9344 112.99 25.6744 112.22C22.8444 110.22 20.0144 108.22 17.1944 106.22C20.5244 107.05 23.8444 107.89 27.1744 108.72C29.5044 101.06 31.8344 93.3997 34.1644 85.7297C28.7144 75.0597 24.6844 63.8397 21.6944 52.2497C21.7844 49.3997 38.1844 42.9496 41.4044 42.0096C68.0544 34.1596 103.934 41.9096 131.714 44.5096C140.354 34.1496 163.004 25.5997 176.124 25.0197L176.114 25.0297ZM130.204 47.5096C128.874 48.6796 127.544 49.8396 126.214 51.0096C123.964 52.0896 121.724 53.1796 119.474 54.2596C118.774 57.1796 123.824 52.6696 124.464 53.7596C122.024 59.3596 118.564 57.8996 118.474 58.7596C118.334 60.0896 120.444 59.6496 120.474 59.7596C119.974 60.9296 119.474 62.0896 118.974 63.2596C118.874 65.3496 120.724 66.6496 122.964 63.7596C125.534 60.4396 122.224 58.3196 131.444 57.2596C130.054 55.4496 126.074 57.2896 125.954 56.7596C130.004 49.4096 132.604 52.0096 132.944 50.7596L131.444 49.2596C131.384 49.0696 133.854 46.4296 130.194 47.5096H130.204ZM78.3144 62.9997C72.4544 67.9197 67.3544 64.7197 68.0844 67.2497C69.1944 71.0697 88.7944 64.7697 78.3144 62.9997ZM126.714 67.4997C120.794 70.1097 138.974 74.7597 139.934 70.7497C140.474 68.4997 136.404 70.3797 133.694 69.9997C131.984 69.7597 128.494 66.7097 126.704 67.4997H126.714ZM66.3344 73.4997C49.0344 74.5397 35.8944 93.6597 47.6244 108.73C47.2244 109.36 40.6444 108.41 39.1444 111.73C35.4544 119.86 54.0644 125.06 57.3544 115.98C68.9444 121.74 86.4544 115.63 91.0344 103.24C97.3244 86.2497 83.0444 72.4996 66.3344 73.5096V73.4997ZM129.204 77.4997C106.094 80.4297 97.4144 111.84 118.724 123.97C133.744 132.52 145.884 124.24 147.164 124.97C147.704 125.27 148.094 130.45 157.644 129.47C167.944 128.41 168.514 115.99 156.394 117.73C172.134 95.9397 154.274 74.3197 129.204 77.4997ZM34.9044 120.97C24.8944 120.68 25.7744 130.94 36.4044 129.46C43.4444 128.48 41.3644 121.15 34.9044 120.97ZM76.8144 122.47C71.5844 123.78 74.9344 130.61 78.8144 131.46C83.0244 132.39 78.0444 129.14 82.3044 129.46C84.6044 140.91 86.6444 133.9 100.514 129.71C101.504 126.81 81.0344 121.41 76.8144 122.46V122.47ZM163.134 132.96C156.604 134.28 158.464 142.5 167.124 141.45C176.014 140.37 172.004 131.16 163.134 132.96Z" fill="black"/>
<path d="M130.203 47.5096C133.853 46.4296 131.393 49.0596 131.453 49.2596L132.953 50.7596C132.623 51.9996 130.013 49.3996 125.963 56.7596C126.083 57.2896 130.063 55.4496 131.453 57.2596C122.223 58.3096 125.543 60.4296 122.973 63.7596C120.733 66.6596 118.883 65.3496 118.983 63.2596C119.483 62.0896 119.983 60.9296 120.483 59.7596C120.453 59.6496 118.343 60.0896 118.483 58.7596C118.573 57.8996 122.033 59.3596 124.473 53.7596C123.833 52.6696 118.783 57.1796 119.483 54.2596C121.733 53.1796 123.973 52.0896 126.223 51.0096C127.553 49.8396 128.883 48.6796 130.213 47.5096H130.203Z" fill="white"/>
<path d="M78.3135 62.9997C88.7935 64.7597 69.1935 71.0697 68.0835 67.2497C67.3535 64.7197 72.4535 67.9197 78.3135 62.9997Z" fill="white"/>
<path d="M126.714 67.4997C128.494 66.7097 131.984 69.7597 133.704 69.9997C136.404 70.3797 140.484 68.4997 139.944 70.7497C138.974 74.7597 120.804 70.1097 126.724 67.4997H126.714Z" fill="white"/>
<path d="M66.3342 73.4997C83.0442 72.4897 97.3142 86.2397 91.0342 103.23C86.4542 115.62 68.9442 121.73 57.3542 115.97C54.0542 125.05 35.4542 119.85 39.1442 111.72C40.6542 108.4 47.2242 109.35 47.6242 108.72C35.8942 93.6497 49.0342 74.5297 66.3342 73.4897V73.4997ZM63.8442 77.4997C56.5842 78.5197 48.0842 85.7097 47.1242 93.2397C44.1442 116.71 77.9342 121.83 86.5442 103.73C93.4242 89.2597 80.8842 75.1097 63.8442 77.4997ZM44.3842 109.98C42.4542 109.98 38.2842 113.1 41.8942 113.98C46.7942 115.18 48.9142 109.98 44.3842 109.98Z" fill="white"/>
<path d="M63.843 77.4997C80.893 75.1197 93.423 89.2697 86.543 103.73C77.933 121.83 44.143 116.7 47.123 93.2397C48.073 85.7097 56.573 78.5197 63.843 77.4997ZM64.843 79.4897C63.333 79.7597 57.923 83.3997 57.603 84.7397C56.343 90.0297 63.803 83.3197 70.073 97.2297C72.253 102.07 71.993 110.71 80.303 106.47C90.313 101.37 86.563 75.6297 64.833 79.4897H64.843ZM53.863 91.9897C43.943 94.1997 56.883 116.45 66.833 111.98C75.463 108.1 64.943 89.5297 53.863 91.9897Z" fill="black"/>
<path d="M129.203 77.4997C154.273 74.3197 172.143 95.9297 156.393 117.73C168.513 115.99 167.943 128.41 157.643 129.47C148.093 130.46 147.703 125.28 147.163 124.97C145.883 124.24 133.743 132.52 118.723 123.97C97.4126 111.84 106.093 80.4297 129.203 77.4997ZM130.703 80.9897C121.943 82.0997 111.963 90.6597 110.993 99.7297C108.323 124.72 143.593 132.29 155.403 113.22C165.313 97.2097 152.293 78.2497 130.703 80.9897ZM151.163 120.47C148.243 121.34 149.473 125.82 153.163 123.97C155.663 122.72 155.073 119.3 151.163 120.47Z" fill="white"/>
<path d="M64.8434 79.4897C86.5734 75.6297 90.3234 101.37 80.3134 106.47C72.0034 110.71 72.2634 102.07 70.0834 97.2297C63.8034 83.3197 56.3534 90.0297 57.6134 84.7397C57.9334 83.3997 63.3333 79.7597 64.8533 79.4897H64.8434Z" fill="white"/>
<path d="M130.703 80.9897C152.293 78.2497 165.313 97.2097 155.403 113.22C143.593 132.29 108.323 124.72 110.993 99.7297C111.963 90.6597 121.943 82.0997 130.703 80.9897ZM134.193 83.4897C131.173 83.7997 122.923 87.9897 123.963 91.7397C124.623 94.1097 131.603 92.8297 135.443 98.2397C139.103 103.4 139.053 119.16 148.663 115.48C161.303 110.64 158.043 81.0897 134.193 83.4997V83.4897ZM119.233 97.9797C108.743 100.62 122.873 126.24 134.703 120.97C144.743 116.5 131.533 94.8897 119.233 97.9797Z" fill="black"/>
<path d="M134.193 83.4897C158.043 81.0797 161.303 110.63 148.663 115.47C139.053 119.15 139.103 103.39 135.443 98.2296C131.603 92.8196 124.623 94.0996 123.963 91.7296C122.923 87.9896 131.173 83.7896 134.193 83.4796V83.4897Z" fill="white"/>
<path d="M53.8632 91.9897C64.9432 89.5297 75.4632 108.1 66.8332 111.98C56.8832 116.46 43.9332 94.1997 53.8632 91.9897Z" fill="white"/>
<path d="M119.234 97.9797C131.524 94.8897 144.734 116.49 134.704 120.97C122.884 126.24 108.754 100.62 119.234 97.9797Z" fill="white"/>
<path d="M44.3832 109.98C48.9032 109.98 46.7932 115.17 41.8932 113.98C38.2932 113.1 42.4632 109.99 44.3832 109.98Z" fill="black"/>
<path d="M151.164 120.47C155.074 119.3 155.654 122.71 153.164 123.97C149.474 125.82 148.254 121.35 151.164 120.47Z" fill="black"/>
<path d="M34.9043 120.97C41.3643 121.16 43.4443 128.49 36.4043 129.46C25.7743 130.94 24.9043 120.68 34.9043 120.97ZM30.9143 122.47C28.7943 122.92 28.9443 125.72 31.4143 125.47C33.5643 125.25 34.0143 121.81 30.9143 122.47Z" fill="white"/>
<path d="M30.9135 122.47C34.0135 121.81 33.5635 125.25 31.4135 125.47C28.9435 125.72 28.7935 122.92 30.9135 122.47Z" fill="black"/>
<path d="M76.8143 122.47C81.0343 121.41 101.504 126.81 100.514 129.72C86.6443 133.91 84.5943 140.92 82.3043 129.47C78.0443 129.15 83.0243 132.4 78.8143 131.47C74.9343 130.61 71.5843 123.79 76.8143 122.48V122.47Z" fill="white"/>
<path d="M163.134 132.96C172.004 131.16 176.014 140.38 167.124 141.45C158.464 142.5 156.604 134.28 163.134 132.96ZM162.144 134.46C160.454 134.94 160.834 137.48 162.644 137.46C164.784 137.44 165.814 133.41 162.144 134.46Z" fill="white"/>
<path d="M162.144 134.46C165.814 133.41 164.784 137.44 162.644 137.46C160.834 137.48 160.454 134.95 162.144 134.46Z" fill="black"/>
</svg>
