<svg width="220" height="200" viewBox="0 0 220 200" fill="none" xmlns="http://www.w3.org/2000/svg">
<path d="M179.974 21.0002C186.814 20.9702 189.424 24.6002 192.194 31.2402C198.334 45.9302 197.384 70.9602 194.684 86.6702C195.354 96.8202 196.014 106.98 196.684 117.13C197.954 121.04 208.084 112.74 209.654 118.63C211.324 124.89 197.924 124.95 197.184 126.62C197.014 128.62 196.854 130.62 196.684 132.61C196.924 133.25 208.404 138.98 201.924 142.35C197.044 144.89 195.294 139.37 193.444 139.85C192.494 140.1 189.244 148.03 179.474 153.33C173.474 156.59 140.124 168.06 132.074 170.31C122.424 173.01 89.904 180.5 81.684 179.3C72.094 177.9 22.994 144.71 19.074 134.1C17.954 131.09 17.854 127.12 19.074 124.11C16.344 121.75 9.09397 123.57 10.094 118.12C11.124 112.52 27.474 118.31 19.824 112.38C18.204 111.12 12.434 110.12 13.084 106.14C14.094 99.9802 23.684 106.8 24.564 105.64C26.724 98.3202 28.884 90.9902 31.054 83.6702C30.864 70.6402 31.074 57.5302 33.544 44.7202C34.194 41.3702 38.624 24.0002 40.774 23.0002C48.134 19.5702 82.074 30.0002 89.664 36.9802C103.754 36.7902 117.694 38.9502 131.574 40.9802C139.774 30.1902 167.194 21.0602 179.974 21.0002ZM177.984 24.0002C165.554 24.5302 140.384 33.6702 132.084 43.9802C117.564 41.4402 102.904 40.1902 88.184 39.4902C74.694 30.5302 58.554 25.6602 42.284 25.5102C34.984 43.9402 33.384 63.9502 34.054 83.6902C31.314 92.2602 28.564 100.84 25.824 109.41C25.204 109.61 12.754 104.17 16.844 107.91C19.004 109.89 28.854 110.67 22.334 118.9C8.84399 117.4 10.794 118.25 22.084 122.15C24.014 126.05 13.154 127.69 33.804 145.87C40.564 151.82 74.364 175.15 81.204 176.33C90.484 177.94 124.974 169.46 135.584 166.34C142.804 164.22 172.724 153.69 177.994 150.86C193.804 142.34 187.794 133.28 197.454 138.37C198.404 138.87 199.074 141.51 200.444 139.87C201.614 138.48 193.894 134.79 193.214 133.63C193.714 130.8 194.214 127.97 194.714 125.14C195.794 124.39 196.874 123.64 197.954 122.89C198.464 122.67 213.464 119.17 205.434 118.89C204.844 118.87 197.834 123.26 194.204 120.64C193.374 111.48 192.544 102.33 191.714 93.1702C193.104 71.8402 198.684 41.2602 183.984 24.0002H177.994H177.984Z" fill="white"/>
<path d="M177.985 24.0002H183.975C198.685 41.2502 193.105 71.8402 191.705 93.1702C192.535 102.33 193.365 111.48 194.195 120.64C197.815 123.27 204.835 118.87 205.425 118.89C213.455 119.16 198.445 122.67 197.945 122.89C196.865 123.64 195.785 124.39 194.705 125.14C194.205 127.97 193.705 130.8 193.205 133.63C193.895 134.79 201.605 138.49 200.435 139.87C199.055 141.51 198.385 138.87 197.445 138.37C187.785 133.27 193.795 142.34 177.985 150.86C172.725 153.69 142.795 164.22 135.575 166.34C124.965 169.46 90.4749 177.93 81.1949 176.33C74.3549 175.15 40.5549 151.82 33.7949 145.87C13.1449 127.69 23.9949 126.05 22.0749 122.15C10.7849 118.25 8.83489 117.4 22.3249 118.9C28.8449 110.67 19.0049 109.89 16.8349 107.91C12.7449 104.17 25.1949 109.61 25.8149 109.41C28.5549 100.84 31.3049 92.2602 34.0449 83.6902C33.3749 63.9502 34.9849 43.9402 42.2749 25.5102C58.5449 25.6602 74.6849 30.5302 88.1749 39.4902C102.905 40.2002 117.565 41.4502 132.075 43.9802C140.375 33.6702 165.545 24.5302 177.975 24.0002H177.985ZM131.085 46.9702C129.925 47.9702 128.755 48.9702 127.595 49.9702C124.005 51.9402 117.605 53.8002 121.105 54.9602C126.955 49.6302 125.125 57.5102 119.355 58.2102C122.895 60.7702 119.315 61.8802 119.355 63.2002C119.505 68.5102 124.615 62.3702 126.585 57.9602C133.925 57.3702 134.285 55.6302 126.835 56.2102C130.345 48.9302 133.715 51.4302 133.815 50.2202L132.315 48.7202C132.175 48.0802 134.805 46.1902 131.065 46.9702H131.085ZM65.2249 67.9402C64.0649 68.2702 62.8949 68.6102 61.7349 68.9402C61.0249 71.6902 67.6949 69.0702 69.2149 68.9402C69.5849 68.9102 79.8249 69.4302 73.7049 67.9402H65.2249ZM135.575 73.4402L133.575 74.4402C144.725 76.3502 148.335 74.4402 141.055 73.4402H135.565H135.575ZM62.2349 83.9302C56.8249 84.5502 44.4249 93.8202 45.0249 99.6602C45.3249 102.62 51.6649 113.11 54.2549 114.89C67.2849 123.87 88.8049 104.97 88.4349 102.16C88.2749 100.97 77.9449 84.4502 72.7149 84.9302C75.4149 112.02 65.2149 104.81 67.4749 84.1802C65.7249 84.1002 63.9849 84.0102 62.2349 83.9302ZM130.085 86.9202C124.215 87.4302 108.695 100.52 110.875 105.65C111.285 106.6 121.115 120.76 123.595 121.88C135.725 127.36 154.985 115.62 164.255 107.65C160.435 107.21 160.185 102.67 158.265 100.16C153.335 93.7002 147.665 88.5702 139.305 88.1702C139.735 114.36 130.295 110.02 133.815 87.1702C132.565 87.0902 131.325 87.0002 130.075 86.9202H130.085ZM71.2149 128.87C64.1349 130.66 73.8049 140.1 74.9549 138.11C75.1149 137.84 74.0149 135.44 76.2049 135.86C78.3949 136.28 76.4149 142.02 79.1949 142.85C84.5949 141.1 90.0049 139.35 95.4049 137.61C95.7549 135.85 76.6549 127.5 71.2049 128.87H71.2149Z" fill="black"/>
<path d="M131.083 46.9702C134.823 46.1902 132.193 48.0702 132.333 48.7202L133.833 50.2202C133.733 51.4302 130.353 48.9302 126.853 56.2102C134.303 55.6202 133.943 57.3702 126.603 57.9602C124.623 62.3702 119.523 68.5202 119.373 63.2002C119.333 61.8702 122.913 60.7602 119.373 58.2102C125.143 57.5202 126.973 49.6302 121.123 54.9602C117.623 53.8002 124.023 51.9402 127.613 49.9702C128.773 48.9702 129.943 47.9702 131.103 46.9702H131.083Z" fill="white"/>
<path d="M135.574 73.4402H141.064C148.344 74.4302 144.734 76.3502 133.584 74.4402L135.584 73.4402H135.574Z" fill="white"/>
<path d="M130.084 86.9202C131.334 87.0002 132.574 87.0902 133.824 87.1702C130.304 110.01 139.744 114.36 139.314 88.1702C147.674 88.5602 153.344 93.7002 158.274 100.16C160.194 102.68 160.444 107.21 164.264 107.65C154.994 115.63 135.734 127.36 123.604 121.88C121.124 120.76 111.284 106.6 110.884 105.65C108.694 100.52 124.224 87.4302 130.094 86.9202H130.084Z" fill="white"/>
<path d="M65.2244 67.9402H73.7044C79.8244 69.4302 69.5844 68.9102 69.2144 68.9402C67.6844 69.0702 61.0244 71.6902 61.7344 68.9402C62.8944 68.6102 64.0644 68.2702 65.2244 67.9402Z" fill="white"/>
<path d="M62.2349 83.9302C63.9849 84.0102 65.7249 84.1002 67.4749 84.1802C65.2149 104.81 75.4049 112.02 72.7149 84.9302C77.9349 84.4502 88.2749 100.97 88.4349 102.16C88.8049 104.97 67.2849 123.87 54.2549 114.89C51.6649 113.1 45.3249 102.61 45.0249 99.6602C44.4249 93.8202 56.8349 84.5502 62.2349 83.9302Z" fill="white"/>
<path d="M71.214 128.87C76.654 127.5 95.764 135.85 95.414 137.61C90.014 139.36 84.604 141.11 79.204 142.85C76.424 142.02 78.394 136.28 76.214 135.86C74.024 135.44 75.124 137.84 74.964 138.11C73.804 140.1 64.144 130.66 71.224 128.87H71.214Z" fill="white"/>
</svg>
