<svg width="220" height="200" viewBox="0 0 220 200" fill="none" xmlns="http://www.w3.org/2000/svg">
<path d="M180.013 20.01C186.853 19.98 189.463 23.61 192.233 30.25C198.373 44.95 197.423 69.99 194.723 85.72C195.393 95.88 196.053 106.04 196.723 116.2C197.873 121.01 207.893 111.36 209.693 118.2C211.273 124.2 198.073 124.28 197.223 126.2C197.053 128.2 196.893 130.2 196.723 132.2C197.133 133.18 205.483 135.64 203.213 140.2C200.363 145.9 195.013 138.98 193.483 139.45C192.583 139.72 189.193 147.3 180.013 152.44C167.613 159.4 121.873 173.07 106.673 175.93C99.0826 177.35 85.1126 180.11 78.2326 177.93C70.7226 175.55 38.3726 153.22 31.3326 146.95C11.4526 129.26 20.0826 126.28 19.1126 123.21C16.0726 121.04 8.9426 123.08 10.1326 117.21C11.2426 111.78 27.5326 117.77 19.3626 111.46C17.3726 109.92 12.3826 109.24 13.1226 105.21C14.2526 99.1 23.2526 106.25 24.6026 104.71C26.7626 97.55 28.9226 90.39 31.0926 83.22C32.0826 76.13 30.1026 61.77 33.5826 43.74C34.2326 40.39 38.6626 23.01 40.8126 22C47.7726 18.75 82.2226 28.69 89.2126 35.99C103.463 35.82 117.553 38.06 131.623 39.99C139.953 29.21 167.133 20.06 180.023 20L180.013 20.01ZM178.013 23.01C166.433 23.5 139.713 32.61 132.613 43C118.213 41.03 103.823 38.69 89.2026 39C75.2526 29.96 59.0426 24.6 42.3026 24.51C35.0026 42.94 33.4126 62.99 34.0726 82.72L25.8426 108.95C22.6826 107.78 19.5226 106.62 16.3626 105.45C13.7526 107.02 24.8826 109 24.5926 113.7C24.0426 122.59 12.9526 114.34 13.3626 118.95C28.6226 119.55 17.6426 125.53 22.5926 134.19C27.7826 143.27 69.1326 171.67 81.7126 175.91C99.8726 175.44 125.473 169.03 143.083 163.42C155.223 158.76 167.363 154.09 179.503 149.43C188.493 144.13 191.133 136.33 191.973 135.94C194.723 134.66 200.343 141.65 200.703 138.69C192.993 132.28 191.913 134.96 195.463 123.45C202.673 121.57 210.933 118.09 204.943 118.45C204.373 118.48 199.343 121.92 194.213 120.2C193.383 110.87 192.553 101.54 191.723 92.22C191.483 75.16 200.183 41.93 183.993 23.01H178.003H178.013Z" fill="white"/>
<path d="M178.012 23.01H184.002C200.192 41.93 191.492 75.16 191.732 92.22C192.562 101.55 193.392 110.88 194.222 120.2C199.352 121.92 204.382 118.49 204.952 118.45C210.942 118.09 202.682 121.56 195.472 123.45C191.912 134.96 193.002 132.28 200.712 138.69C200.342 141.65 194.732 134.66 191.982 135.94C191.142 136.33 188.492 144.14 179.512 149.43C167.372 154.09 155.232 158.76 143.092 163.42C125.482 169.04 99.8825 175.44 81.7225 175.91C69.1325 171.67 27.7825 143.26 22.6025 134.19C17.6525 125.53 28.6324 119.55 13.3724 118.95C12.9624 114.34 24.0525 122.59 24.6025 113.7C24.8925 109 13.7624 107.03 16.3724 105.45C19.5324 106.62 22.6925 107.78 25.8525 108.95L34.0824 82.72C33.4224 62.98 35.0124 42.93 42.3124 24.51C59.0524 24.6 75.2624 29.96 89.2124 39C103.832 38.69 118.222 41.03 132.622 43C139.732 32.61 166.442 23.5 178.022 23.01H178.012ZM131.112 45.99C129.782 47.16 128.452 48.32 127.122 49.49C124.712 50.74 122.302 51.99 119.892 53.24C120.132 55.37 123.662 51.87 124.882 52.24C123.212 58.11 118.882 56.76 118.892 57.74C119.722 58.07 120.552 58.41 121.382 58.74C121.572 59.06 117.052 65.04 121.632 64.49C124.812 64.11 122.412 56.17 131.862 56.24C129.482 52.65 123.292 59.38 130.612 49.99C136.572 50.3 132.492 48.48 132.362 48.24C131.842 47.32 135.042 45.16 131.112 45.99ZM64.2524 78.97C63.3424 79.13 56.8724 82.19 57.5124 83.22C63.1724 81.37 72.4224 82.25 71.4824 79.72C71.1024 78.69 65.5024 78.75 64.2524 78.97ZM118.142 79.47C116.882 79.75 114.662 80.99 115.652 82.47C124.932 80.86 132.532 84.34 129.622 81.47C128.102 79.97 120.302 79 118.142 79.47ZM129.612 90.46C120.632 90.8 113.222 97.05 109.902 105.2C103.812 120.18 114.232 113.33 127.112 111.45C131.232 110.85 157.862 108.39 158.792 106.2C161.822 99.14 139.772 90.07 129.602 90.46H129.612ZM60.7624 91.46C57.6024 91.96 54.4425 92.46 51.2825 92.96C46.3525 94.31 34.5024 102.28 39.3124 105.45C52.2824 107.62 65.2624 109.78 78.2324 111.95C79.3124 111.7 80.3925 111.45 81.4725 111.2C82.7125 108.39 78.9224 91.06 60.7624 91.46ZM72.2424 128.94C67.6924 130.26 70.9924 137.64 75.2324 137.93C78.5224 138.16 75.8124 136.43 76.7324 135.93C80.3124 133.98 78.4825 142.68 83.2225 141.93C87.7925 139.51 92.3724 137.1 96.9424 134.68C97.5524 132.11 76.8824 127.59 72.2424 128.93V128.94ZM123.632 138.94C122.382 139.36 121.142 139.77 119.892 140.19C120.192 143.28 119.202 160.39 120.642 161.43C142.412 154.87 141.132 136.24 123.632 138.94ZM116.642 140.43L102.422 145.68V163.17L103.172 163.92C123.052 162.84 117.012 164.66 117.892 140.68C117.472 140.6 117.062 140.51 116.642 140.43ZM99.6824 145.93C94.9424 147.18 90.2024 148.43 85.4624 149.68C85.5424 153.43 85.6324 157.18 85.7124 160.92C90.6324 161.7 95.3724 164.26 100.432 163.17V146.18C100.182 146.1 99.9324 146.01 99.6824 145.93ZM82.2124 149.93C81.5024 149.86 72.5024 152.85 68.2424 151.93C68.1624 152.18 68.0724 152.43 67.9924 152.68C73.0624 155.1 78.1424 157.51 83.2124 159.93C83.2924 156.68 83.3824 153.43 83.4624 150.19C83.0424 150.11 82.6324 150.02 82.2124 149.94V149.93Z" fill="black"/>
<path d="M131.113 45.99C135.043 45.16 131.843 47.32 132.363 48.24C132.503 48.48 136.573 50.3 130.613 49.99C123.293 59.38 129.473 52.64 131.863 56.24C122.413 56.16 124.813 64.1 121.633 64.49C117.053 65.04 121.573 59.07 121.383 58.74C120.553 58.41 119.723 58.07 118.893 57.74C118.893 56.77 123.203 58.12 124.883 52.24C123.663 51.86 120.133 55.37 119.893 53.24C122.303 51.99 124.713 50.74 127.123 49.49C128.453 48.32 129.783 47.16 131.113 45.99Z" fill="white"/>
<path d="M64.2526 78.97C65.5126 78.75 71.1026 78.69 71.4826 79.72C72.4226 82.25 63.1726 81.36 57.5126 83.22C56.8626 82.19 63.3326 79.13 64.2526 78.97Z" fill="white"/>
<path d="M118.143 79.47C120.293 78.99 128.103 79.97 129.623 81.47C132.533 84.34 124.933 80.86 115.653 82.47C114.663 80.99 116.893 79.75 118.143 79.47Z" fill="white"/>
<path d="M129.612 90.46C139.782 90.07 161.832 99.14 158.802 106.2C157.862 108.39 131.242 110.84 127.122 111.45C114.242 113.33 103.822 120.18 109.912 105.2C113.222 97.05 120.642 90.8 129.622 90.46H129.612Z" fill="white"/>
<path d="M60.7636 91.46C78.9236 91.06 82.7036 108.39 81.4736 111.2C80.3936 111.45 79.3136 111.7 78.2336 111.95C65.2636 109.78 52.2836 107.62 39.3136 105.45C34.5136 102.28 46.3636 94.31 51.2836 92.96C54.4436 92.46 57.6036 91.96 60.7636 91.46Z" fill="white"/>
<path d="M72.243 128.94C76.883 127.59 97.553 132.12 96.943 134.69C92.373 137.11 87.793 139.52 83.223 141.94C78.483 142.69 80.313 133.99 76.733 135.94C75.823 136.44 78.523 138.17 75.233 137.94C70.993 137.64 67.693 130.27 72.243 128.95V128.94Z" fill="white"/>
<path d="M123.633 138.94C141.133 136.23 142.413 154.87 120.643 161.43C119.203 160.4 120.203 143.28 119.893 140.19C121.143 139.77 122.383 139.36 123.633 138.94Z" fill="white"/>
<path d="M116.642 140.43C117.062 140.51 117.472 140.6 117.892 140.68C117.012 164.65 123.052 162.83 103.172 163.92L102.422 163.17V145.68L116.642 140.43Z" fill="white"/>
<path d="M99.6829 145.93C99.9329 146.01 100.183 146.1 100.433 146.18V163.17C95.3729 164.26 90.6329 161.7 85.7129 160.92C85.6329 157.17 85.5429 153.42 85.4629 149.68C90.2029 148.43 94.9429 147.18 99.6829 145.93Z" fill="white"/>
<path d="M82.2122 149.93C82.6322 150.01 83.0422 150.1 83.4622 150.18C83.3822 153.43 83.2922 156.68 83.2122 159.92C78.1422 157.5 73.0622 155.09 67.9922 152.67C68.0722 152.42 68.1622 152.17 68.2422 151.92C72.5122 152.84 81.5022 149.85 82.2122 149.92V149.93Z" fill="white"/>
</svg>
