<svg width="576" height="281" viewBox="0 0 576 281" fill="none" xmlns="http://www.w3.org/2000/svg">
<g clip-path="url(#clip0_160_7137)">
<rect y="54.0723" width="157" height="97" rx="32" fill="#2424F7" fill-opacity="0.11"/>
<rect x="131" y="184.072" width="157" height="97" rx="32" fill="#2424F7" fill-opacity="0.11"/>
<path d="M443.305 54.3458C459.899 96.8681 440.085 145.219 399.154 162.385C358.224 179.551 311.555 159.084 294.961 116.562C278.368 74.0396 298.182 25.6891 339.112 8.52264C380.043 -8.6438 426.712 11.8235 443.305 54.3458Z" fill="white" fill-opacity="0.2" stroke="white" stroke-width="3"/>
<path opacity="0.2" d="M316.056 97.8487C315.635 98.3902 315.049 98.7709 314.356 98.8918C312.679 99.1847 311.008 97.8511 310.623 95.9144C309.877 92.1577 309.472 88.3281 309.419 84.5331C309.392 82.5771 310.764 81.0865 312.484 81.205C314.204 81.3223 315.62 83.0031 315.648 84.9588C315.694 88.2597 316.046 91.5888 316.696 94.8556C316.92 95.9898 316.653 97.081 316.056 97.8487Z" fill="white"/>
<path opacity="0.2" d="M359.206 142.765C358.492 143.574 357.415 144.024 356.288 143.874C346.359 142.553 337.184 138.272 329.754 131.492C325.998 128.064 322.8 124.101 320.25 119.709C319.327 118.12 319.852 116.052 321.427 115.087C323.001 114.125 325.025 114.633 325.948 116.222C328.162 120.032 330.938 123.473 334.2 126.451C340.652 132.337 348.616 136.054 357.234 137.201C359.039 137.44 360.291 139.129 360.03 140.972C359.932 141.664 359.635 142.279 359.206 142.765Z" fill="white"/>
<path d="M426.988 142.335L444.086 157.749" stroke="white" stroke-width="3"/>
<path d="M490.817 191.788L452.957 156.576C450.326 154.129 446.287 154.348 443.936 157.064C441.585 159.781 441.812 163.967 444.443 166.414L482.303 201.626C484.934 204.073 488.972 203.854 491.323 201.137C493.674 198.421 493.447 194.235 490.817 191.788Z" fill="black" stroke="white" stroke-width="3"/>
<path d="M484.695 194.879C490.423 198.116 494.238 186.263 492.6 185.381C464.228 170.114 494.827 134.807 519.086 156.284C531.721 155.896 551.938 161.267 551.084 182.914C584.355 217.685 503.796 309.883 458.303 221.961C452.297 210.354 447.181 196.177 449.129 189.779C452.663 178.174 465.097 181.632 470.221 182.834C475.345 184.036 478.966 191.643 484.695 194.879Z" fill="black" stroke="white" stroke-width="3"/>
<path d="M494.828 181.293C491.862 183.544 487.989 180.165 484.825 175.997C481.661 171.829 483.037 168.247 486.003 165.995C488.969 163.744 492.254 165.946 495.418 170.114C498.582 174.282 497.794 179.042 494.828 181.293Z" fill="#FFAAF1"/>
<path d="M475.997 194.723C474.086 197.919 469.896 197.514 465.405 194.829C460.913 192.143 458.786 190.375 460.697 187.179C462.608 183.983 467.121 182.626 471.613 185.311C476.104 187.996 477.908 191.527 475.997 194.723Z" fill="#FFAAF1"/>
<path d="M546.031 203.052C549.734 196.221 551.178 187.516 551.102 181.291" stroke="white" stroke-width="3" stroke-linecap="round"/>
<path d="M526.283 188.147C526.283 188.147 529.89 172.774 525.516 166.071C524.137 163.652 521.85 160.027 519.09 156.284" stroke="white" stroke-width="3" stroke-linecap="round"/>
<path d="M460.318 179.507C457.567 175.788 455.216 174.546 453.981 175.661C452.745 176.775 452.13 182.691 453.039 183.447" stroke="white" stroke-width="3" stroke-linecap="round"/>
<rect x="353" y="51.0723" width="157" height="97" rx="32" fill="#2424F7" fill-opacity="0.11"/>
<mask id="mask0_160_7137" style="mask-type:alpha" maskUnits="userSpaceOnUse" x="290" y="3" width="158" height="165">
<path d="M398.658 161.12C438.968 144.214 458.425 96.6323 442.118 54.8433C425.81 13.0542 379.913 -7.11751 339.604 9.78846C299.294 26.6944 279.837 74.2761 296.144 116.065C312.452 157.854 358.349 178.026 398.658 161.12Z" fill="white"/>
</mask>
<g mask="url(#mask0_160_7137)">
<path d="M353 99.5723C353 84.1926 353 76.5027 355.588 70.4645C358.825 62.9139 364.842 56.8973 372.392 53.6606C378.43 51.0723 386.12 51.0723 401.5 51.0723H461.5C476.88 51.0723 484.57 51.0723 490.608 53.6606C498.158 56.8973 504.175 62.9139 507.412 70.4645C510 76.5027 510 84.1926 510 99.5723V99.5723C510 114.952 510 122.642 507.412 128.68C504.175 136.231 498.158 142.247 490.608 145.484C484.57 148.072 476.88 148.072 461.5 148.072H401.5C386.12 148.072 378.43 148.072 372.392 145.484C364.842 142.247 358.825 136.231 355.588 128.68C353 122.642 353 114.952 353 99.5723V99.5723Z" fill="white"/>
<path d="M444.493 123.946H439.742L447.264 103.543H453.902L461.424 123.946H456.46L454.816 119.408H446.167L444.493 123.946ZM448.817 112.161L447.66 115.328H453.324L452.166 112.161L450.674 107.563H450.37L448.817 112.161Z" fill="black"/>
<path d="M427.247 123.946H422.679V107.654H416.102V103.543H433.824V107.654H427.247V123.946Z" fill="black"/>
<path d="M401.638 123.946H397.07V103.543H401.943L408.551 113.775L410.256 116.515H410.56L410.499 113.775V103.543H415.067V123.946H410.195L403.861 114.292L401.882 111.156H401.577L401.638 114.292V123.946Z" fill="black"/>
<path d="M385.293 124.25C379.355 124.25 376.34 121.083 376.34 115.998V103.543H380.877V115.937C380.877 118.86 381.912 119.835 385.293 119.835C388.642 119.835 389.678 118.86 389.678 115.937V103.543H394.245V115.998C394.245 121.083 391.231 124.25 385.293 124.25Z" fill="black"/>
<path d="M448.528 94.2499C442.438 94.2499 438.723 90.1085 438.723 83.7441C438.723 77.3797 442.438 73.2383 448.528 73.2383C454.618 73.2383 458.303 77.3797 458.303 83.7441C458.303 90.1085 454.618 94.2499 448.528 94.2499ZM448.528 89.8344C452.03 89.8344 453.431 88.525 453.431 83.7441C453.431 78.9632 452.03 77.6538 448.528 77.6538C445.026 77.6538 443.595 78.9632 443.595 83.7441C443.595 88.525 445.026 89.8344 448.528 89.8344Z" fill="black"/>
<path d="M427.474 94.2499C421.353 94.2499 417.699 90.1085 417.699 83.7441C417.699 77.3797 421.353 73.2383 427.474 73.2383C433.504 73.2383 436.762 76.4052 436.762 81.4602V81.7343H431.89V81.582C431.89 78.6587 430.672 77.6538 427.444 77.6538C424.003 77.6538 422.571 78.9023 422.571 83.7441C422.571 88.5859 424.003 89.8344 427.444 89.8344C430.672 89.8344 431.89 88.8295 431.89 85.9062V85.7539H436.762V86.028C436.762 91.0829 433.504 94.2499 427.474 94.2499Z" fill="black"/>
<path d="M406.447 94.2499C400.326 94.2499 396.672 90.1085 396.672 83.7441C396.672 77.3797 400.326 73.2383 406.447 73.2383C412.476 73.2383 415.735 76.4052 415.735 81.4602V81.7343H410.862V81.582C410.862 78.6587 409.644 77.6538 406.416 77.6538C402.975 77.6538 401.544 78.9023 401.544 83.7441C401.544 88.5859 402.975 89.8344 406.416 89.8344C409.644 89.8344 410.862 88.8295 410.862 85.9062V85.7539H415.735V86.028C415.735 91.0829 412.476 94.2499 406.447 94.2499Z" fill="black"/>
<path d="M379.813 93.9455H375.062L382.584 73.543H389.222L396.744 93.9455H391.78L390.136 89.4083H381.488L379.813 93.9455ZM384.137 82.1608L382.98 85.3277H388.644L387.487 82.1608L385.995 77.5626H385.69L384.137 82.1608Z" fill="black"/>
</g>
</g>
<defs>
<clipPath id="clip0_160_7137">
<rect width="576" height="281" fill="white"/>
</clipPath>
</defs>
</svg>
