<svg width="195" height="163" viewBox="0 0 195 163" fill="none" xmlns="http://www.w3.org/2000/svg">
<path d="M174.03 113.163C164.438 146.933 104.403 161.306 75.2577 127.98L71.4393 124.633L61.7537 126.387L48.4415 122.053C47.4272 121.723 41.0804 114.515 38.0337 110.952L33.6992 94.1166L38.918 86.7013C38.972 84.3818 39.0359 79.4481 38.859 78.2687C38.6378 76.7945 39.6108 65.1924 40.0236 63.9246C40.3538 62.9103 44.0629 58.696 45.8762 56.7156C43.8222 54.4109 39.6285 49.6335 39.2865 48.9613C38.8589 48.1209 30.7657 36.3715 29.7043 35.3248C28.6428 34.2781 34.4365 18.6366 35.4832 17.5752C36.5299 16.5138 45.1541 13.7127 46.7562 13.0986C48.3584 12.4845 63.9061 12.1058 70.0241 12.6955C76.1422 13.2852 97.9164 21.7766 99.8181 22.3958C101.34 22.8911 111.882 29.1281 116.963 32.1846L137.857 42.7592C153.804 54.696 183.622 79.394 174.03 113.163Z" fill="black"/>
<path d="M124.441 90.3986C117.68 88.3606 105.971 75.9005 94.6757 83.2918C86.2002 90.4534 96.6864 99.6009 97.6917 107.755C98.6971 115.91 93.8773 116.42 99.0834 125.645C104.29 134.869 118.791 136.983 133.425 126.966C148.059 116.95 157.508 108.317 153.481 98.7607C149.455 89.2049 131.202 92.4366 124.441 90.3986Z" fill="#FFAAF1"/>
<path d="M75.261 127.979C104.406 161.306 164.441 146.932 174.033 113.163C183.626 79.3936 153.807 54.6956 137.86 42.7588C121.913 30.822 87.536 21.2124 89.8325 48.8564C91.2168 65.5196 113.465 86.3657 132.603 74.7004" stroke="white" stroke-width="4" stroke-linecap="round" stroke-linejoin="round"/>
<path d="M123.733 35.0894C77.781 4.1214 41.9908 7.26588 33.1438 21.7844C24.2969 36.303 44.0419 56.6507 60.0226 63.2457C72.8073 68.5216 82.8325 67.4243 86.247 66.2161" stroke="white" stroke-width="4" stroke-linecap="round" stroke-linejoin="round"/>
<path d="M45.85 56.0057C31.396 71.8588 35.6848 93.8142 56.3059 98.5385C76.9271 103.263 81.7206 99.5178 82.1111 98.3186C82.4234 97.3591 80.0958 92.799 78.8929 90.6388C81.9785 89.2117 87.7404 84.102 86.103 75.08" stroke="white" stroke-width="4" stroke-linecap="round" stroke-linejoin="round"/>
<path d="M37.5988 86.5382C29.6528 95.87 38.277 123.217 57.6924 126.032C80.4551 129.334 76.3115 105.452 75.884 104.612" stroke="white" stroke-width="4" stroke-linecap="round" stroke-linejoin="round"/>
<path d="M73.8066 108.843C78.244 110.288 83.109 112.573 83.5365 113.413C83.964 114.253 77.448 117.039 73.8656 117.275" stroke="white" stroke-width="4" stroke-linecap="round" stroke-linejoin="round"/>
<path d="M40.6115 23.4512C40.6115 23.4512 29.8644 24.1588 28.4049 26.4881C26.9455 28.8173 37.7367 34.4341 37.7367 34.4341" stroke="white" stroke-width="4" stroke-linecap="round" stroke-linejoin="round"/>
<path d="M96.9967 48.3852C93.6994 49.1813 86.9396 51.2806 86.2792 53.3091C85.6187 55.3376 94.0434 58.174 98.3383 59.3387" stroke="white" stroke-width="4" stroke-linecap="round" stroke-linejoin="round"/>
<ellipse cx="59.4964" cy="40.0304" rx="16" ry="11.3333" transform="rotate(40.4857 59.4964 40.0304)" fill="#FFAAF1"/>
</svg>
