<svg width="220" height="200" viewBox="0 0 220 200" fill="none" xmlns="http://www.w3.org/2000/svg">
<path d="M180.002 21.02C186.842 20.99 189.452 24.62 192.222 31.26C200.892 51.99 194.522 78.5 194.712 93.72C195.382 101.88 196.042 110.04 196.712 118.21C197.822 120.89 207.992 113.01 209.682 119.21C211.332 125.25 197.992 125.09 197.212 127.21C197.042 129.04 196.882 130.87 196.712 132.71C197.192 134.22 211.232 140.26 198.462 143.45C191.062 135.77 194.172 145.52 180.002 153.44C167.532 160.41 121.912 174.06 106.662 176.93C94.912 179.13 85.202 181.88 74.232 176.93C65.602 173.04 38.832 154.63 31.322 147.95C24.702 142.06 15.082 134.17 19.102 124.21C18.472 122.07 8.81198 124.65 10.122 118.21C11.232 112.78 27.522 118.77 19.352 112.46C17.362 110.92 12.372 110.24 13.112 106.21C14.242 100.1 23.242 107.25 24.592 105.71C26.752 98.21 28.912 90.72 31.082 83.22C30.832 70.33 31.122 57.42 33.572 44.74C34.212 41.45 38.592 24.08 40.802 23C47.532 19.72 82.262 29.69 89.202 36.99C103.452 36.82 117.552 39.03 131.612 40.99C139.942 30.21 167.122 21.06 180.012 21L180.002 21.02ZM178.002 24.01C166.422 24.5 139.712 33.61 132.602 44C118.372 42.05 104.132 39.79 89.692 40C75.212 31.34 59.422 25.47 42.292 25.51C34.472 44.42 33.932 64.95 33.562 85.22C31.902 88.13 26.962 109.83 25.332 109.96C22.342 108.79 19.342 107.63 16.352 106.46C13.742 108.03 24.862 110 24.582 114.71C24.072 123.43 12.732 115.45 13.352 119.96C28.822 120.81 17.062 126.19 23.082 135.7C29.312 145.55 68.512 172.1 81.712 176.93C100.022 176.43 125.342 170.09 143.082 164.44C155.222 159.78 167.362 155.11 179.502 150.45C188.772 144.99 190.792 136.61 193.972 136.96C194.442 137.01 204.202 143.67 199.962 138.46C197.712 136.88 195.472 135.3 193.222 133.71C193.722 131.04 194.222 128.38 194.722 125.71C196.072 123.62 213.462 118.95 204.952 119.46C204.392 119.49 201.782 121.97 194.222 121.71C193.392 112.05 192.562 102.39 191.732 92.73C191.622 75.71 200.312 43.45 184.002 24.02H178.012L178.002 24.01Z" fill="white"/>
<path d="M178.002 24.01H183.992C200.302 43.44 191.612 75.7 191.722 92.72C192.552 102.38 193.382 112.04 194.212 121.7C201.762 121.96 204.382 119.48 204.942 119.45C213.452 118.94 196.072 123.61 194.712 125.7C194.212 128.37 193.712 131.03 193.212 133.7C195.462 135.28 197.702 136.86 199.952 138.45C204.192 143.66 194.432 137 193.962 136.95C190.782 136.6 188.762 144.98 179.492 150.44C167.352 155.1 155.212 159.77 143.072 164.43C125.332 170.08 100.012 176.43 81.7017 176.92C68.5117 172.1 29.3117 145.55 23.0717 135.69C17.0517 126.18 28.8117 120.8 13.3417 119.95C12.7117 115.45 24.0517 123.42 24.5717 114.7C24.8517 109.99 13.7317 108.03 16.3417 106.45C19.3317 107.62 22.3317 108.78 25.3217 109.95C26.9517 109.83 31.8917 88.12 33.5517 85.21C33.9217 64.94 34.4617 44.41 42.2817 25.5C59.4117 25.46 75.2017 31.33 89.6817 39.99C104.122 39.78 118.362 42.04 132.592 43.99C139.702 33.6 166.412 24.49 177.992 24L178.002 24.01ZM131.102 47C127.362 49.42 123.622 51.83 119.872 54.25C122.432 55.76 128.362 49.4 122.122 57.5C115.612 59.07 121.162 59.4 121.372 59.75C121.522 60.01 118.262 63.48 120.122 65C124.202 68.31 122.442 56.39 131.852 57.25C129.472 53.66 123.282 60.39 130.602 51C136.562 51.31 132.482 49.49 132.352 49.25C131.832 48.33 135.032 46.17 131.102 47ZM65.7417 73.48C56.3217 74.15 45.1817 81.59 43.0417 91.22C38.3217 112.4 63.1417 126.36 81.7117 114.96C101.482 102.81 92.8717 71.55 65.7417 73.49V73.48ZM131.102 77.48C107.262 80.14 97.0817 111.03 118.632 124.45C138.952 137.11 169.262 120.58 162.792 95.72C159.222 82.02 144.082 76.04 131.112 77.48H131.102ZM42.7917 116.96C42.4017 117.05 35.7517 122.42 40.3017 121.46C40.7317 121.37 48.1917 115.66 42.7917 116.96ZM48.7717 118.46C47.0917 118.28 39.7017 124.53 44.2817 123.96C44.7217 123.9 51.8417 118.79 48.7717 118.46ZM76.7216 123.45C71.5716 124.72 74.6216 131.7 78.7216 132.44C82.4916 133.12 79.9216 131.36 79.9716 131.19L82.2216 130.44C83.6016 130.91 82.0917 137.99 87.2117 136.94L91.7017 133.94C94.6117 133.02 97.5217 132.11 100.432 131.19C102.482 127.59 80.7317 122.46 76.7317 123.44L76.7216 123.45ZM119.132 130.95C118.182 131.23 111.092 137.87 116.642 135.45C118.622 134.58 124.852 129.24 119.132 130.95ZM123.622 133.45C119.782 134.35 115.982 143.14 126.862 133.7C125.782 133.62 124.702 133.53 123.622 133.45Z" fill="black"/>
<path d="M131.101 47C135.031 46.17 131.831 48.33 132.351 49.25C132.491 49.49 136.561 51.31 130.601 51C123.281 60.39 129.461 53.65 131.851 57.25C122.441 56.39 124.201 68.3 120.121 65C118.251 63.49 121.521 60.01 121.371 59.75C121.161 59.4 115.611 59.07 122.121 57.5C128.371 49.4 122.431 55.76 119.871 54.25C123.611 51.83 127.351 49.42 131.101 47Z" fill="white"/>
<path d="M65.742 73.48C92.862 71.55 101.482 102.81 81.7121 114.95C63.1521 126.35 38.332 112.4 43.042 91.21C45.182 81.58 56.322 74.14 65.742 73.47V73.48ZM64.742 77.48C38.772 80 40.962 118.61 70.232 115.46C95.352 112.75 94.612 74.58 64.742 77.48Z" fill="white"/>
<path d="M64.7419 77.48C94.6119 74.58 95.3519 112.75 70.2319 115.46C40.9619 118.62 38.7719 80 64.7419 77.48ZM71.2319 80.48C63.7019 81.37 67.752 99.82 78.712 99.97C94.762 100.19 80.0619 79.43 71.2319 80.48ZM82.702 100.47C76.842 100.6 77.562 105.53 82.202 105.47C85.752 105.42 88.292 100.35 82.702 100.47Z" fill="black"/>
<path d="M131.102 77.48C144.082 76.03 159.213 82.02 162.783 95.72C169.263 120.58 138.952 137.11 118.622 124.45C97.0825 111.03 107.263 80.13 131.093 77.48H131.102ZM133.102 80.98C102.452 83.68 105.373 127.97 138.093 124.95C168.173 122.18 167.032 77.98 133.102 80.98Z" fill="white"/>
<path d="M71.2319 80.48C80.0719 79.43 94.762 100.19 78.712 99.97C67.752 99.82 63.7019 81.38 71.2319 80.48Z" fill="white"/>
<path d="M133.101 80.98C167.031 77.99 168.171 122.18 138.091 124.95C105.371 127.97 102.451 83.68 133.101 80.98ZM141.081 85.48C134.881 86.95 138.781 107.1 152.561 104.47C163.811 102.32 149.981 83.37 141.081 85.48ZM153.551 104.96C149.531 104.96 146.411 109.38 152.051 109.96C157.411 110.51 158.511 104.97 153.551 104.96Z" fill="black"/>
<path d="M141.082 85.48C149.982 83.37 163.812 102.32 152.562 104.47C138.792 107.1 134.882 86.95 141.082 85.48Z" fill="white"/>
<path d="M82.7016 100.47C88.3016 100.35 85.7516 105.42 82.2016 105.47C77.5616 105.54 76.8416 100.6 82.7016 100.47Z" fill="white"/>
<path d="M153.552 104.96C158.512 104.96 157.412 110.5 152.052 109.96C146.412 109.38 149.532 104.96 153.552 104.96Z" fill="white"/>
<path d="M42.7925 116.96C48.1925 115.66 40.7325 121.37 40.3025 121.46C35.7625 122.43 42.4125 117.06 42.7925 116.96Z" fill="white"/>
<path d="M48.7723 118.46C51.8423 118.79 44.7223 123.9 44.2823 123.96C39.7023 124.53 47.0923 118.28 48.7723 118.46Z" fill="white"/>
<path d="M76.7226 123.45C80.7226 122.46 102.473 127.59 100.423 131.2C97.5127 132.12 94.6027 133.03 91.6927 133.95L87.2027 136.95C82.0827 138.01 83.5927 130.92 82.2127 130.45L79.9627 131.2C79.9127 131.37 82.4827 133.13 78.7127 132.45C74.6227 131.71 71.5627 124.72 76.7127 123.46L76.7226 123.45Z" fill="white"/>
<path d="M119.131 130.95C124.851 129.24 118.621 134.58 116.641 135.45C111.091 137.87 118.191 131.24 119.131 130.95Z" fill="white"/>
<path d="M123.623 133.45C124.703 133.53 125.783 133.62 126.863 133.7C115.983 143.14 119.783 134.35 123.623 133.45Z" fill="white"/>
</svg>
