<svg width="220" height="200" viewBox="0 0 220 200" fill="none" xmlns="http://www.w3.org/2000/svg">
<path d="M54.3023 69.3896C57.7541 69.0382 66.1037 69.6754 69.4226 70.733C72.866 72.4967 76.3111 74.2604 79.7545 76.0241C79.6906 76.5 77.5654 75.6122 77.1501 75.4357C73.3536 73.8216 70.8888 70.6976 63.5413 69.8923C57.0765 69.6266 53.9005 69.1491 47.7501 71.7401C45.8468 72.8044 43.9418 73.867 42.0386 74.9313C40.5607 76.3217 40.9037 77.7862 42.0386 77.4516C42.3967 77.3457 44.4042 74.6774 48.2545 73.4197C55.1716 71.1617 72.2204 71.6325 76.5633 78.7109C75.1661 79.027 74.3507 77.1607 72.6155 75.9401C69.2646 73.5812 63.0873 72.7556 59.0067 72.5807C49.7055 72.184 40.0445 75.4138 39.0979 85.934C40.2463 84.8428 41.3946 83.7499 42.5413 82.6587C44.5724 80.9538 49.2953 78.0771 51.782 77.2835C55.1951 76.1956 63.2655 75.3886 66.7342 76.1082C69.7219 76.7269 71.5479 78.7143 74.2094 79.8879C75.3847 82.0719 76.5616 84.2543 77.7369 86.4384C78.5204 89.3505 79.3056 92.2609 80.0891 95.173L79.8369 95.4252C78.6885 95.7884 77.5402 96.1532 76.3935 96.5164C77.8428 92.3281 76.4372 86.6603 74.2094 82.9109C73.2998 81.3792 71.3444 80.0426 71.8572 79.3835C70.5407 78.5714 69.2259 77.7593 67.9094 76.9472C63.4505 75.3953 55.1413 76.5134 50.7732 78.2906C47.1969 79.745 39.688 85.3371 39.6006 86.773C39.5636 87.3783 42.4539 84.9185 42.8759 84.673C45.1675 83.3498 51.7668 81.1422 54.4671 80.473C60.4325 78.9968 57.2833 80.0493 55.3918 82.4048C52.3587 86.1795 51.7097 91.3227 52.9555 95.9262C50.1746 94.6097 39.7166 91.5278 38.5918 89.1235C38.5279 85.9357 38.2724 81.3187 41.1121 78.373C41.329 77.455 39.6023 77.3238 40.6077 75.5181C41.8755 73.2415 51.6357 69.6586 54.2989 69.3879L54.3023 69.3896Z" fill="white"/>
<path d="M37.6665 89.7137C39.0166 89.4683 37.352 90.1526 37.4143 90.8049C38.0027 91.5044 38.5895 92.2055 39.178 92.9049C40.6895 93.5203 42.2027 94.1374 43.7143 94.7527C45.3939 95.6489 47.0736 96.545 48.7549 97.4395C54.6346 99.8304 61.4272 99.0587 67.5709 100.463C69.6994 100.35 71.8263 100.239 73.9549 100.126C75.5236 99.7346 77.0906 99.3428 78.6593 98.9511C81.1276 98.8132 76.6686 100.192 74.4593 100.463C71.7154 100.518 68.9714 100.575 66.2275 100.631C61.0657 99.5782 53.0861 99.79 48.4187 97.9439C46.9626 97.1033 45.5066 96.2643 44.0505 95.4236C42.4818 94.8637 40.9148 94.3038 39.3461 93.7439C38.038 93.0109 35.4942 90.1072 37.6665 89.7121V89.7137Z" fill="white"/>
<path d="M38.005 96.0961C38.4371 95.7867 38.691 98.4281 39.2643 99.8757C41.5056 105.532 49.8787 110.198 55.8962 109.954C49.0817 111.153 37.6317 103.802 38.005 96.0961Z" fill="white"/>
<path d="M181.643 20.0068C186.116 20.0472 187.775 21.9387 189.959 25.6343C198.736 40.489 197.752 69.0416 194.832 85.7676C194.704 96.2508 196.047 106.742 197.016 117.178C199.948 117.796 203.386 115.484 204.491 115.247C209.772 114.113 211.598 120.336 207.682 122.302C204.378 123.253 201.075 124.205 197.771 125.156C197.687 125.296 197.603 125.437 197.519 125.577C197.238 127.537 196.959 129.496 196.678 131.456C197.87 132.839 203.085 135.177 203.566 136.495C204.757 139.764 201.767 142.449 198.61 141.955C196.752 141.664 195.578 139.006 193.569 138.764C185.534 150.982 177.786 152.937 165.01 158.081C144.61 165.379 126.986 171.267 105.537 175.382C98.151 176.799 86.1378 179.378 79.1619 177.398C72.983 175.644 47.7241 158.96 41.3619 154.219C36.2119 150.38 21.3035 138.431 19.2707 132.97C18.1106 129.854 18.4889 125.77 19.1026 122.555C16.2695 120.703 9.58112 122.645 10.1982 117.348C10.558 114.255 13.5121 113.949 15.9938 114.073C19.6339 114.255 21.1505 115.891 21.6212 112.982C21.6935 111.706 16.4528 109.829 15.3212 109.034C10.8993 105.93 14.526 101.337 17.6734 101.979C18.2333 102.371 18.7932 102.763 19.3531 103.154C20.1013 103.452 24.1668 104.851 24.4778 104.414C26.7174 96.8544 28.9586 89.2967 31.1982 81.7374C30.9813 69.3543 31.2755 56.9594 33.5504 44.7848C35.0619 38.8497 36.5751 32.9145 38.0866 26.9794C40.0505 20.4406 42.6902 21.1115 49.93 21.8563C63.3085 23.2333 78.3095 28.1933 89.4097 35.798C103.552 35.9376 117.638 37.7618 131.578 39.8299C134.972 35.904 139.225 32.7682 143.842 30.4245C148.087 28.2673 162.385 22.8971 166.858 21.858C169.418 21.2628 179.214 19.9883 181.642 20.0102L181.643 20.0068ZM180.3 23.0299C177.5 23.3107 174.699 23.5898 171.9 23.8706C164.169 25.0189 145.999 31.7998 139.643 36.3008C136.982 38.1855 134.729 40.5915 132.587 43.0194C125.348 41.5045 117.887 41.1935 110.578 39.9963C103.129 39.5491 95.6811 39.1002 88.2345 38.653C85.4905 36.9178 82.7465 35.181 80.0026 33.4458H79.33C67.2092 27.6065 55.9392 24.7381 42.3707 24.5431C41.6074 24.9887 38.4935 36.2234 38.0866 37.8963C34.581 52.2937 33.584 67.2526 34.2229 82.072C33.3822 84.5923 32.5433 87.111 31.7026 89.6313C30.0229 95.5665 28.3433 101.502 26.6619 107.437C25.8666 109.402 25.2429 108.008 21.8734 106.848C20.3619 106.401 18.8487 105.952 17.3372 105.505C17.2447 105.463 15.9854 104.012 16.0778 105.757C16.1333 106.793 25.0949 109.86 24.9822 112.139C24.9671 112.435 23.4875 117.315 22.8822 117.599C19.8575 117.375 16.8344 117.152 13.8097 116.926C13.428 117.037 12.9135 117.816 13.0531 118.186C13.233 118.663 20.3619 118.562 22.4619 121.545C20.4275 129.22 20.9016 131.815 26.0734 137.25C35.7328 147.401 54.4831 160.244 66.73 167.484C70.7619 169.724 74.7938 171.963 78.8256 174.203C81.8706 175.366 85.3543 175.393 88.569 175.21C106.418 172.48 124.156 168.843 141.321 163.284C142.665 162.724 144.01 162.165 145.353 161.605C150.562 159.925 155.769 158.245 160.978 156.566C174.163 151.179 184.907 148.724 192.226 135.234C197.07 135.994 198.731 138.969 199.114 139.098C199.859 139.349 201.603 138.528 200.458 137.419C198.134 135.878 195.81 134.338 193.485 132.8C193.932 129.832 194.381 126.865 194.828 123.897C195.688 121.748 205.382 120.341 206.337 119.781C207.591 119.046 206.536 117.807 205.496 117.933C204.935 118.002 200.099 120.846 194.576 120.286C193.029 109.172 192.098 97.7337 191.804 86.4401C194.366 71.1601 195.408 50.0037 190.795 35.2096C189.998 32.6522 187.708 27.124 186.09 25.1316C184.091 22.6667 183.4 22.9139 180.295 23.0316L180.3 23.0299Z" fill="white"/>
<path d="M180.298 23.0299C183.404 22.9122 184.095 22.6651 186.094 25.1299C187.71 27.1223 190.001 32.6522 190.798 35.2079C195.41 50.002 194.369 71.1584 191.807 86.4385C192.101 97.7321 193.033 109.17 194.58 120.284C200.103 120.844 204.938 118.001 205.5 117.932C206.539 117.806 207.595 119.045 206.341 119.78C205.386 120.338 195.691 121.745 194.832 123.895C194.385 126.863 193.936 129.831 193.488 132.798C195.812 134.338 198.136 135.878 200.461 137.417C201.606 138.527 199.862 139.347 199.118 139.097C198.734 138.967 197.073 135.993 192.229 135.233C184.909 148.722 174.166 151.179 160.981 156.564C155.773 158.244 150.565 159.923 145.357 161.603C144.013 162.163 142.668 162.723 141.325 163.283C124.16 168.841 106.422 172.478 88.5725 175.208C85.3578 175.392 81.8724 175.363 78.8291 174.201C74.7973 171.962 70.7654 169.722 66.7335 167.483C54.4883 160.243 35.7363 147.399 26.0769 137.249C20.9034 131.813 20.431 129.22 22.4654 121.543C20.3654 118.561 13.2365 118.661 13.0566 118.184C12.917 117.814 13.4315 117.036 13.8132 116.925C16.8379 117.148 19.861 117.372 22.8857 117.597C23.491 117.315 24.9706 112.434 24.9857 112.138C25.0984 109.858 16.1368 106.791 16.0813 105.755C15.9889 104.01 17.2482 105.461 17.3407 105.503C18.8522 105.95 20.3654 106.399 21.8769 106.847C25.2463 108.005 25.8701 109.401 26.6654 107.435C28.3451 101.5 30.0247 95.5648 31.7061 89.6297C32.5467 87.1093 33.3857 84.5907 34.2264 82.0703C33.5875 67.251 34.5845 52.292 38.0901 37.8947C38.497 36.2217 41.6109 24.987 42.3742 24.5414C55.9443 24.7365 67.2127 27.6048 79.3335 33.4442H80.0061C82.75 35.1793 85.494 36.9161 88.2379 38.6513C95.6863 39.0985 103.135 39.5474 110.581 39.9947C117.89 41.1918 125.35 41.5028 132.59 43.0177C134.732 40.5899 136.985 38.1839 139.647 36.2991C146.001 31.7998 164.171 25.0173 171.903 23.8689C174.703 23.5881 177.504 23.309 180.303 23.0282L180.298 23.0299ZM131.914 45.8743C130.055 46.1265 128.748 48.5376 127.546 49.2337C126.519 49.8272 119.58 51.9575 119.735 53.3496C119.941 55.2176 123.41 52.2029 124.355 51.9221C126.749 51.2076 122.791 56.0767 122.507 56.2886C120.938 57.4605 119.381 56.2735 119.064 57.2117C118.608 58.5584 120.58 58.3953 121.416 58.2188C121.73 58.9518 118.171 62.7954 120.659 64.0144C123.777 65.541 124.491 58.1667 126.203 57.1276C127.699 56.2197 131.926 56.6518 132.166 56.0364C132.459 55.2899 131.062 54.9856 130.571 54.9452C128.758 54.7956 126.85 56.1289 126.791 55.5337C127.918 53.5766 129.031 51.5775 130.571 49.9062C132.728 51.179 136.284 47.9542 131.998 48.1425C132.446 47.4145 132.894 46.6864 133.342 45.9584C132.866 45.9298 132.39 45.9029 131.914 45.8743ZM54.2983 69.3896C51.6334 69.6603 41.8749 73.245 40.6071 75.5198C39.6017 77.3256 41.3284 77.4584 41.1115 78.3747C38.2717 81.3205 38.529 85.9358 38.5912 89.1253C39.7177 91.5296 50.174 94.6115 52.9549 95.928C51.709 91.3245 52.358 86.1812 55.3912 82.4066C57.2827 80.051 60.4335 78.9985 54.4664 80.4747C51.7645 81.1439 45.1669 83.3498 42.8753 84.6747C42.4516 84.9185 39.563 87.3783 39.6 86.7747C39.6857 85.3389 47.1963 79.7467 50.7725 78.2924C55.1407 76.5152 63.4499 75.3971 67.9088 76.949C69.2253 77.7611 70.5401 78.5731 71.8566 79.3852C71.3438 80.0443 73.2992 81.381 74.2088 82.9127C76.4366 86.6621 77.8422 92.3299 76.3929 96.5181C77.5412 96.155 78.6896 95.7901 79.8363 95.4269L80.0885 95.1747C79.305 92.2627 78.5198 89.3522 77.7363 86.4402C76.561 84.2561 75.3841 82.0737 74.2088 79.8896C71.5456 78.7177 69.7213 76.7287 66.7335 76.11C63.2649 75.392 55.1945 76.1974 51.7813 77.2852C49.2963 78.0771 44.5717 80.9556 42.5407 82.6605C41.3923 83.7517 40.2439 84.8446 39.0973 85.9358C40.0422 75.4139 49.7032 72.1857 59.0061 72.5825C63.0867 72.7574 69.264 73.5829 72.6149 75.9418C74.35 77.1625 75.1655 79.0288 76.5627 78.7127C72.2198 71.6342 55.1709 71.1651 48.2539 73.4215C44.4036 74.6775 42.3961 77.3474 42.0379 77.4534C40.903 77.788 40.56 76.3235 42.0379 74.933C43.9412 73.8687 45.8462 72.8061 47.7495 71.7418C53.9015 69.1509 57.0759 69.6284 63.5407 69.894C70.8881 70.6994 73.353 73.8217 77.1495 75.4374C77.5648 75.614 79.69 76.5 79.7539 76.0259C76.3105 74.2622 72.8654 72.4984 69.422 70.7347C66.103 69.6771 57.7552 69.0399 54.3017 69.3913L54.2983 69.3896ZM119.987 70.5649C113.019 70.6422 106.659 72.9961 102.096 78.3747C99.244 81.7358 96.1588 88.4561 95.7115 92.8209C95.6981 92.952 96.6245 93.1908 95.3753 95.1731C95.2054 95.4421 93.1693 97.0864 94.7868 96.7687C95.688 96.5921 96.7086 93.3085 97.2231 92.4863C99.9687 88.0929 107.246 80.0241 111.755 77.4534C118.958 73.3458 126.179 72.754 134.266 71.91C139.998 71.9554 145.962 72.1336 151.403 74.094C154.863 75.3416 157.965 77.4685 160.223 80.3924C163.255 84.3183 163.48 89.0126 160.559 86.6066C162.703 82.6958 146.974 76.643 144.18 75.9402C133.717 73.3105 116.72 76.5656 108.564 83.8341C102.654 89.1017 100.762 95.9498 100.248 96.5165C99.7938 97.0158 97.5593 96.4711 97.2231 98.7005C97.0146 100.088 97.6114 100.967 98.6505 101.808C101.894 104.431 109.793 105.34 113.939 105.503C124.281 105.907 137.429 103.445 147.035 99.6236C149.368 98.6955 153.703 96.6123 151.403 97.1032C150.283 97.7186 149.163 98.3357 148.043 98.951C138.261 102.911 123.637 105.727 113.1 105.165C109.845 104.992 96.986 103.677 98.0637 98.5307C98.2033 97.8666 99.2238 96.7922 99.9956 97.1032C102.371 103.354 117.305 101.737 123.264 100.883C120.046 94.788 121.413 87.2472 126.455 82.5747C121.206 81.9106 116.468 80.3974 111.335 82.4066C117.702 77.4937 131.474 74.5732 139.307 75.4358C141.197 75.6442 146.043 76.9187 147.875 77.6198C149.844 78.3714 159.125 83.1598 159.551 84.9269C159.682 85.4734 159.616 86.6671 158.962 86.8588C158.347 87.0387 148.106 84.6932 146.278 85.0951C146.559 85.3759 146.838 85.655 147.119 85.9358C151.297 92.1147 146.224 96.1516 152.578 91.7313C154.612 90.3157 157.479 86.6991 159.969 87.0286C160.512 87.1009 163.364 89.1589 163.413 85.6012C163.446 83.1262 158.809 77.4399 156.776 76.1117C154.816 75.271 152.857 74.432 150.897 73.5913C144.112 71.3602 136.276 71.5872 129.224 72.0798C126.268 70.9096 123.151 70.5329 119.983 70.5683L119.987 70.5649ZM59.5071 83.4995C58.8094 83.5987 56.9431 85.164 56.5664 85.7676C54.6161 88.8882 57.4407 91.849 60.6824 90.05C63.2263 88.6394 62.4495 83.0825 59.5071 83.4995ZM66.7302 83.8341C64.4284 84.2813 65.2825 88.3821 68.0736 87.8659C70.4611 87.4237 69.7532 83.2473 66.7302 83.8341ZM137.626 85.5137C135.116 85.845 134.922 89.6044 137.121 90.0483C140.798 90.7915 141.518 85.0009 137.626 85.5137ZM127.21 87.3615C124.678 87.5767 122.679 91.6591 123.598 93.1571C123.896 93.6414 125.919 94.7241 128.219 93.7456C132.488 91.9297 130.628 87.0723 127.21 87.3632V87.3615ZM37.6664 89.7137C35.4941 90.1072 38.038 93.0125 39.3461 93.7456C40.9148 94.3055 42.4818 94.8654 44.0505 95.4253C45.5066 96.2659 46.9626 97.1049 48.4186 97.9456C53.0861 99.7917 61.064 99.5815 66.2275 100.632C68.9714 100.577 71.7154 100.52 74.4593 100.464C76.6686 100.194 81.1275 98.8149 78.6593 98.9527C77.0906 99.3445 75.5236 99.7362 73.9549 100.128C71.8263 100.241 69.6994 100.352 67.5708 100.464C61.4272 99.0603 54.6346 99.8321 48.7549 97.4412C47.0753 96.545 45.3956 95.6489 43.7142 94.7544C42.2027 94.139 40.6895 93.522 39.178 92.9066C38.5895 92.2072 38.0027 91.506 37.4142 90.8066C37.352 90.1526 39.0166 89.4699 37.6664 89.7154V89.7137ZM65.5549 91.5615C62.362 92.192 65.3212 96.3601 68.0753 94.7527C70.0172 93.6195 68.0837 91.0622 65.5549 91.5615ZM136.955 94.9209C133.693 95.1697 135.753 100.649 138.803 99.2873C140.793 98.3996 139.373 94.7359 136.955 94.9209ZM38.0027 96.0961C37.6311 103.802 49.0811 111.153 55.8939 109.954C49.8764 110.198 41.5033 105.532 39.262 99.8758C38.6887 98.4281 38.4348 95.7884 38.0027 96.0961ZM84.3709 101.808C82.634 102.423 80.8989 103.04 79.162 103.655C73.7935 105.908 66.1753 110.749 61.9417 114.825C62.2494 115.307 65.7735 112.072 67.2329 111.045C72.6334 107.248 78.5063 104.267 84.6214 101.89C84.5373 101.861 84.4532 101.835 84.3692 101.806L84.3709 101.808ZM97.6417 104.494C97.7258 104.747 97.8098 104.999 97.8939 105.251C98.7867 106.673 109.774 112.664 111.921 113.565C115.592 115.104 125.53 117.261 125.949 116.672C125.865 116.533 125.781 116.392 125.697 116.252C125.071 116.025 118.832 115.879 112.76 113.397C110.818 112.604 100.83 107.148 99.3197 106.006C98.4672 105.36 98.2504 104.373 97.64 104.494H97.6417ZM65.3868 119.109C59.8333 119.559 59.0666 123.874 63.539 126.834C66.631 128.882 68.9344 128.175 67.9071 127.339C67.5439 127.199 67.1791 127.058 66.8159 126.919C66.4141 125.982 69.7078 125.468 70.0071 126.582C71.3438 135.929 74.7687 131.115 78.3231 129.185C83.3923 126.434 89.4838 125.659 87.0593 123.473C84.613 121.269 68.9327 118.82 65.3868 119.107V119.109ZM143.171 125.155C143.226 125.323 143.283 125.491 143.339 125.659C146.562 127.921 145.387 125.622 143.171 125.155ZM139.139 125.491C140.035 125.995 140.931 126.498 141.827 127.003C143.371 128.173 144.814 131.107 145.271 130.446C145.77 129.725 140.659 124.639 139.139 125.491ZM136.787 130.362C135.778 131.09 134.771 131.818 133.762 132.546C128.346 135.645 117.297 138.464 110.914 140.776C99.9855 142.777 79.2999 148.574 69.0824 146.822C65.5112 146.21 60.0704 143.446 57.1549 141.279C53.651 138.676 52.7447 135.66 52.7027 137.163C52.654 138.881 58.0427 142.442 59.5071 143.293C61.0186 144.077 62.5319 144.86 64.0434 145.645C71.1891 148.532 79.8934 147.357 87.3956 146.15C95.4038 144.47 103.412 142.79 111.42 141.111C117.749 138.984 124.076 136.855 130.404 134.728C132.955 133.644 139.112 130.071 136.788 130.362H136.787Z" fill="black"/>
<path d="M131.916 45.8743C132.391 45.9029 132.867 45.9298 133.343 45.9584C132.896 46.6864 132.447 47.4144 132 48.1425C136.284 47.9542 132.728 51.179 130.572 49.9062C129.032 51.5758 127.919 53.5766 126.793 55.5337C126.851 56.1305 128.76 54.7955 130.572 54.9452C131.063 54.9855 132.46 55.2899 132.168 56.0364C131.926 56.6518 127.7 56.2213 126.204 57.1276C124.491 58.1666 123.778 65.541 120.661 64.0144C118.172 62.7954 121.732 58.9535 121.417 58.2188C120.582 58.3936 118.611 58.5567 119.065 57.2116C119.383 56.2718 120.94 57.4588 122.508 56.2886C122.793 56.0767 126.751 51.2076 124.356 51.9221C123.413 52.2029 119.943 55.2192 119.736 53.3496C119.583 51.9574 126.522 49.8272 127.547 49.2337C128.75 48.5376 130.056 46.1265 131.916 45.8743Z" fill="white"/>
<path d="M119.989 70.5649C123.155 70.5296 126.274 70.9062 129.23 72.0764C136.281 71.5838 144.118 71.3568 150.902 73.5879C152.863 74.4286 154.821 75.2676 156.782 76.1083C158.815 77.4382 163.452 83.1245 163.418 85.5978C163.369 89.1555 160.518 87.0975 159.975 87.0253C157.485 86.6957 154.616 90.314 152.584 91.728C146.23 96.1482 151.301 92.1113 147.124 85.9324C146.843 85.6516 146.564 85.3725 146.284 85.0917C148.111 84.6899 158.352 87.0353 158.968 86.8554C159.622 86.6638 159.687 85.47 159.556 84.9236C159.131 83.1565 149.85 78.3697 147.881 77.6164C146.048 76.917 141.203 75.6409 139.313 75.4324C131.481 74.5698 117.709 77.4903 111.34 82.4032C116.473 80.394 121.211 81.9072 126.461 82.5714C121.418 87.2438 120.051 94.7847 123.269 100.88C117.311 101.735 102.379 103.351 100.001 97.0999C99.2295 96.7888 98.2089 97.8632 98.0693 98.5273C96.9899 103.674 109.851 104.989 113.106 105.162C123.644 105.722 138.267 102.906 148.049 98.9477C149.169 98.3323 150.289 97.7152 151.408 97.0999C153.708 96.6072 149.374 98.6904 147.04 99.6202C137.435 103.442 124.285 105.903 113.945 105.5C109.798 105.338 101.899 104.427 98.6561 101.804C97.6171 100.964 97.0185 100.084 97.2287 98.6972C97.5649 96.4677 99.7978 97.0141 100.253 96.5131C100.768 95.9465 102.659 89.0984 108.569 83.8307C116.726 76.5622 133.724 73.3072 144.185 75.9368C146.98 76.6396 162.709 82.6924 160.565 86.6032C163.485 89.0076 163.26 84.3132 160.229 80.389C157.971 77.4651 154.87 75.3365 151.408 74.0907C145.968 72.1302 140.005 71.952 134.272 71.9066C126.185 72.7506 118.963 73.3425 111.761 77.45C107.251 80.0208 99.9743 88.0895 97.2287 92.4829C96.7142 93.3051 95.6936 96.5887 94.7924 96.7653C93.1749 97.0831 95.2111 95.4387 95.3809 95.1697C96.6301 93.1874 95.7037 92.9503 95.7171 92.8175C96.1644 88.4544 99.2496 81.7341 102.101 78.3714C106.664 72.9911 113.025 70.6372 119.992 70.5615L119.989 70.5649ZM117.637 71.0693C106.158 71.8982 98.1349 81.9089 96.4687 92.7368C105.94 79.8913 111.184 74.469 127.801 72.3286C128.12 71.8831 123.952 71.108 123.517 71.0693H117.637Z" fill="white"/>
<path d="M117.639 71.0693H123.519C123.954 71.1097 128.122 71.8848 127.803 72.3287C111.186 74.469 105.942 79.8914 96.4707 92.7368C98.1369 81.909 106.16 71.8982 117.639 71.0693Z" fill="black"/>
<path d="M59.5094 83.4995C62.4518 83.0825 63.2286 88.6393 60.6847 90.05C57.4431 91.849 54.6184 88.8865 56.5688 85.7676C56.9454 85.1657 58.81 83.5987 59.5094 83.4995Z" fill="white"/>
<path d="M66.7318 83.834C69.7548 83.2472 70.4644 87.4237 68.0752 87.8659C65.2841 88.3821 64.43 84.2813 66.7318 83.834Z" fill="white"/>
<path d="M137.628 85.5138C141.522 85.001 140.8 90.7916 137.123 90.0484C134.924 89.6046 135.117 85.8434 137.628 85.5138Z" fill="white"/>
<path d="M127.212 87.3615C130.629 87.0706 132.488 91.928 128.221 93.7439C125.921 94.7224 123.898 93.6397 123.601 93.1554C122.681 91.6574 124.68 87.5767 127.212 87.3598V87.3615Z" fill="white"/>
<path d="M65.5567 91.5616C68.0854 91.0622 70.0173 93.6195 68.077 94.7527C65.3247 96.3584 62.3638 92.1921 65.5567 91.5616Z" fill="white"/>
<path d="M136.957 94.9209C139.374 94.7376 140.795 98.3996 138.804 99.2873C135.754 100.648 133.695 95.168 136.957 94.9209Z" fill="white"/>
<path d="M84.3728 101.808C84.4568 101.836 84.5409 101.863 84.625 101.892C78.5099 104.268 72.637 107.25 67.2365 111.047C65.7771 112.074 62.2513 115.309 61.9453 114.826C66.1789 110.749 73.7971 105.91 79.1656 103.657C80.9025 103.042 82.6376 102.425 84.3745 101.809L84.3728 101.808Z" fill="white"/>
<path d="M97.6426 104.494C98.2546 104.373 98.4698 105.362 99.3222 106.006C100.832 107.148 110.819 112.602 112.763 113.397C118.834 115.879 125.074 116.025 125.699 116.252C125.783 116.392 125.867 116.533 125.951 116.672C125.533 117.259 115.594 115.104 111.924 113.565C109.775 112.664 98.7893 106.673 97.8965 105.251C97.8124 104.999 97.7283 104.747 97.6443 104.494H97.6426Z" fill="white"/>
<path d="M65.388 119.109C68.934 118.821 84.6142 121.271 87.0606 123.475C89.4851 125.661 83.3952 126.434 78.3243 129.187C74.7699 131.115 71.345 135.931 70.0084 126.584C69.7074 125.469 66.4153 125.984 66.8172 126.92C67.1803 127.06 67.5452 127.201 67.9083 127.341C68.9357 128.176 66.6322 128.884 63.5402 126.836C59.0678 123.874 59.8345 119.559 65.388 119.11V119.109Z" fill="white"/>
<path d="M143.172 125.155C145.388 125.622 146.563 127.919 143.34 125.659C143.285 125.491 143.227 125.323 143.172 125.155Z" fill="white"/>
<path d="M139.141 125.491C140.661 124.64 145.772 129.725 145.272 130.446C144.815 131.107 143.373 128.173 141.829 127.003C140.933 126.498 140.037 125.996 139.141 125.491Z" fill="white"/>
<path d="M136.789 130.362C139.113 130.073 132.956 133.644 130.405 134.728C124.077 136.855 117.75 138.984 111.421 141.111C103.413 142.79 95.4046 144.47 87.3963 146.15C79.8941 147.357 71.1898 148.532 64.0441 145.645C62.5326 144.862 61.0194 144.078 59.5078 143.293C58.0434 142.441 52.6564 138.881 52.7034 137.163C52.7455 135.66 53.6517 138.676 57.1556 141.279C60.0728 143.446 65.5119 146.21 69.0831 146.822C79.3006 148.574 99.9862 142.777 110.915 140.776C117.297 138.464 128.347 135.645 133.763 132.546C134.772 131.818 135.779 131.09 136.788 130.362H136.789Z" fill="white"/>
</svg>
