<svg width="220" height="200" viewBox="0 0 220 200" fill="none" xmlns="http://www.w3.org/2000/svg">
<path d="M183.493 24.0681C195.633 24.9981 197.803 56.2381 197.713 65.2981C196.883 74.1281 196.053 82.9581 195.223 91.7781C196.053 100.108 196.883 108.438 197.713 116.768C198.543 117.808 208.373 111.868 209.693 117.268C211.213 123.528 199.053 122.558 197.713 125.268C197.543 126.938 197.383 128.598 197.213 130.268C197.443 130.908 208.843 136.518 201.953 140.008C197.983 142.028 196.213 137.208 194.473 137.508C191.813 140.508 189.153 143.508 186.493 146.498C180.093 151.598 153.123 161.228 144.083 163.988C133.313 167.278 98.213 176.018 88.693 174.978C80.003 174.028 47.393 151.318 39.793 144.498C21.423 127.998 29.343 125.678 28.063 122.258C25.973 119.978 19.333 122.188 19.583 117.258C19.873 111.658 29.643 115.008 30.563 113.758C30.453 110.558 24.213 109.828 23.083 107.758C21.063 104.088 24.783 99.8681 32.813 105.008C37.133 98.0181 35.473 88.8581 39.553 81.7681C39.723 74.6081 39.883 67.4481 40.053 60.2781C40.523 55.3581 45.7131 27.7081 49.2831 26.0481C55.8231 22.9981 88.143 32.3781 94.693 39.0381C108.263 39.5081 121.703 41.0581 135.113 43.0381C142.483 33.0281 172.783 23.2281 183.513 24.0481L183.493 24.0681ZM182.003 27.0681C170.633 26.6681 143.593 35.8381 136.593 46.0581C122.483 44.2981 108.443 42.1181 94.183 42.0581C81.543 33.2581 66.123 29.0581 50.773 28.5681C43.523 46.0281 42.013 65.4081 42.543 84.2881C40.213 92.1181 37.883 99.9481 35.553 107.778C35.133 108.028 34.723 108.278 34.303 108.528C31.473 107.528 28.643 106.528 25.823 105.528V106.528C29.283 108.708 34.033 109.268 33.553 113.778C32.803 120.928 22.613 113.808 22.823 118.028C37.773 118.808 26.963 124.308 32.053 132.768C37.553 141.888 75.443 167.358 87.693 171.998C109.363 171.608 143.523 161.878 164.033 154.008C175.143 149.748 187.433 145.518 192.973 134.018C197.423 134.418 199.053 137.898 200.453 137.518C203.283 136.748 194.463 132.388 194.213 131.768C194.543 128.938 194.883 126.108 195.213 123.278C195.983 121.718 212.693 117.568 205.443 117.528C204.923 117.528 202.213 119.658 195.463 120.028C192.913 103.658 191.503 86.8181 194.713 70.3081C195.153 61.1881 194.273 27.5181 181.993 27.0881L182.003 27.0681Z" fill="white"/>
<path d="M182.003 27.0681C194.293 27.4981 195.173 61.1681 194.723 70.2881C191.513 86.7981 192.923 103.638 195.473 120.008C202.223 119.638 204.933 117.508 205.453 117.508C212.703 117.538 195.993 121.688 195.223 123.258C194.893 126.088 194.553 128.918 194.223 131.748C194.473 132.368 203.293 136.728 200.463 137.498C199.053 137.878 197.423 134.398 192.983 133.998C187.443 145.498 175.143 149.728 164.043 153.988C143.523 161.858 109.373 171.588 87.7033 171.978C75.4533 167.338 37.5633 141.878 32.0633 132.748C26.9733 124.288 37.7833 118.788 22.8333 118.008C22.6233 113.788 32.8133 120.908 33.5633 113.758C34.0333 109.258 29.2833 108.698 25.8333 106.508V105.508C28.6633 106.508 31.4933 107.508 34.3133 108.508C34.7333 108.258 35.1433 108.008 35.5633 107.758C37.8933 99.9281 40.2233 92.0981 42.5533 84.2681C42.0233 65.3881 43.5333 46.0081 50.7833 28.5481C66.1333 29.0381 81.5533 33.2381 94.1933 42.0381C108.453 42.0881 122.493 44.2781 136.603 46.0381C143.593 35.8181 170.643 26.6481 182.013 27.0481L182.003 27.0681ZM134.593 49.0581C133.763 49.8881 132.933 50.7281 132.103 51.5581C129.523 52.9781 126.943 54.3881 124.373 55.8081C124.633 58.0881 130.853 51.9381 128.363 56.8081C127.533 58.4281 125.133 59.8381 123.373 59.8081C127.983 61.3381 122.203 64.0881 124.623 66.0581C127.593 68.4781 128.763 60.4281 130.113 59.5581C132.023 59.1381 133.943 58.7281 135.853 58.3081C135.733 55.5981 126.863 61.7981 134.103 53.0581C140.983 52.4681 136.013 51.0881 135.853 50.8081C135.753 50.6381 138.613 48.0181 134.603 49.0581H134.593ZM68.2333 67.0481C64.7633 66.9981 57.1733 70.1581 57.0033 74.2981C65.5133 68.8581 78.4933 71.7381 72.2233 68.0481C70.8933 67.7181 69.5633 67.3781 68.2333 67.0481ZM143.583 76.0381C135.853 78.1481 151.273 78.5381 157.303 85.2781C158.023 79.5381 148.003 74.8281 143.583 76.0381ZM60.2533 76.5381C53.2833 77.5681 50.3633 86.1281 51.0233 92.2781C51.6033 97.7081 63.1033 118.498 67.7433 118.008C69.8033 117.788 84.8733 107.948 87.4533 104.768C98.5433 91.0881 85.0333 73.3481 72.2333 84.5281C71.3533 78.7481 65.8033 75.7181 60.2533 76.5281V76.5381ZM124.123 83.0381C115.323 84.1581 109.773 94.0681 110.903 102.278C111.433 106.168 122.303 125.268 124.623 126.518C126.123 126.688 127.613 126.848 129.113 127.018C131.523 126.588 150.923 115.208 154.063 112.028C170.443 95.4281 150.133 78.5481 138.093 91.5381C136.473 84.7081 130.833 82.1881 124.123 83.0481V83.0381ZM78.2133 124.508C69.2833 126.268 81.0933 135.908 81.9533 132.758C82.0033 132.588 79.6533 129.528 83.2033 131.508C84.1833 132.058 83.6333 136.298 85.6933 137.508C90.6033 135.428 95.5033 133.348 100.413 131.258C101.243 128.518 82.2833 123.708 78.2133 124.508ZM85.6933 140.998C80.6333 151.408 67.5133 136.208 74.2133 144.498L79.4533 146.748C78.8433 158.138 98.5133 163.428 95.9233 148.748C110.163 144.378 96.5033 148.218 91.1833 146.498C86.7133 145.058 87.5533 140.438 85.6933 140.998Z" fill="black"/>
<path d="M31.8136 28.0681C38.8836 27.0581 40.9636 32.5981 40.0436 38.8081C39.8236 40.2781 31.1236 64.2681 26.3236 64.0381C23.7836 63.9181 13.2836 50.4681 12.1036 47.7981C6.13361 34.2281 13.8136 25.1081 23.3336 34.0581C24.5436 31.5881 29.2936 28.4181 31.8136 28.0581V28.0681ZM31.8136 31.0681C28.1936 31.6181 25.1936 35.9681 23.8336 39.0681C16.3936 28.5081 9.91361 34.1181 14.1036 45.3181C15.7536 49.7381 22.8936 57.0681 26.3236 61.0581C28.2736 61.2981 37.4236 38.8181 37.5536 36.8181C37.8336 32.6081 36.0936 30.4181 31.8136 31.0681Z" fill="white"/>
<path d="M31.8128 31.0681C36.0928 30.4181 37.8228 32.5981 37.5528 36.8181C37.4228 38.8081 28.2728 61.2881 26.3228 61.0581C22.8928 57.0681 15.7528 49.7381 14.1028 45.3181C9.91282 34.1181 16.3928 28.5081 23.8328 39.0681C25.2028 35.9781 28.1928 31.6281 31.8128 31.0681Z" fill="black"/>
<path d="M134.593 49.0581C138.603 48.0081 135.743 50.6381 135.843 50.8081C136.003 51.0881 140.973 52.4681 134.093 53.0581C126.853 61.7981 135.723 55.5881 135.843 58.3081C133.933 58.7281 132.013 59.1381 130.103 59.5581C128.763 60.4181 127.593 68.4681 124.613 66.0581C122.193 64.0881 127.973 61.3381 123.363 59.8081C125.123 59.8381 127.523 58.4281 128.353 56.8081C130.843 51.9381 124.613 58.0881 124.363 55.8081C126.943 54.3881 129.523 52.9781 132.093 51.5581C132.923 50.7281 133.753 49.8881 134.583 49.0581H134.593Z" fill="white"/>
<path d="M32.3036 66.0481C38.0436 65.3581 38.9336 70.6281 38.5436 75.2881C36.7136 81.2881 34.8836 87.2781 33.0536 93.2781C29.0836 99.8581 14.8136 80.4181 14.0936 76.2881C12.7136 68.4281 20.4536 66.3181 25.8236 72.0381C27.2936 69.8681 29.5836 66.3681 32.3136 66.0381L32.3036 66.0481ZM33.3036 68.5481C31.5036 68.5481 26.8436 74.9081 26.3136 77.0381C13.5236 63.4181 13.2636 78.0781 29.8036 92.0281C31.6136 88.9581 39.4436 68.5481 33.2936 68.5381L33.3036 68.5481Z" fill="white"/>
<path d="M68.2339 67.0481C69.5639 67.3781 70.8939 67.7181 72.2239 68.0481C78.4939 71.7381 65.5239 68.8581 57.0039 74.2981C57.1739 70.1581 64.7639 67.0081 68.2339 67.0481Z" fill="white"/>
<path d="M33.3043 68.5481C39.4443 68.5481 31.6143 88.9581 29.8143 92.0381C13.2743 78.0881 13.5243 63.4281 26.3243 77.0481C26.8443 74.9081 31.5043 68.5481 33.3143 68.5581L33.3043 68.5481Z" fill="black"/>
<path d="M143.584 76.0381C148.004 74.8381 158.034 79.5481 157.304 85.2781C151.274 78.5381 135.854 78.1381 143.584 76.0381Z" fill="white"/>
<path d="M60.2545 76.5381C65.8045 75.7181 71.3445 78.7481 72.2345 84.5381C85.0345 73.3581 98.5445 91.0981 87.4545 104.778C84.8745 107.958 69.8045 117.798 67.7445 118.018C63.1045 118.508 51.6145 97.7081 51.0245 92.2881C50.3645 86.1381 53.2845 77.5781 60.2545 76.5481V76.5381ZM61.7445 80.0381C56.0845 80.8581 53.5445 88.2081 54.0145 93.2781C54.3945 97.4481 64.0545 115.468 68.2345 115.018C69.7045 114.858 82.9945 106.398 85.4445 102.778C91.0845 94.4681 87.2145 82.6181 76.2145 84.0381C67.1045 95.2881 75.0045 78.1281 61.7445 80.0381Z" fill="white"/>
<path d="M61.744 80.0381C75.004 78.1281 67.104 95.2881 76.214 84.0381C87.214 82.6181 91.084 94.4681 85.444 102.778C82.994 106.398 69.704 114.858 68.234 115.018C64.054 115.478 54.394 97.4481 54.014 93.2781C53.554 88.2081 56.084 80.8481 61.744 80.0381ZM75.964 96.0281C75.374 93.5881 70.0539 93.7381 71.4739 97.7781C72.3139 100.168 76.644 98.8581 75.964 96.0281C76.684 98.5281 76.974 107.378 83.694 101.528C89.784 96.2281 84.344 82.5881 76.704 87.0381C72.044 89.7581 74.954 92.5381 75.954 96.0281H75.964Z" fill="black"/>
<path d="M124.123 83.0381C130.833 82.1881 136.483 84.6981 138.093 91.5281C150.133 78.5381 170.433 95.4081 154.063 112.018C150.923 115.208 131.523 126.578 129.113 127.008C127.613 126.838 126.123 126.678 124.623 126.508C122.303 125.268 111.433 106.158 110.903 102.268C109.783 94.0581 115.323 84.1481 124.123 83.0281V83.0381ZM124.613 86.0281C120.183 86.6881 114.893 91.8981 113.883 96.2681C111.613 106.148 124.603 123.578 126.103 123.998C130.033 125.098 149.233 113.138 152.303 109.258C162.553 96.2881 148.983 85.0981 140.573 91.0181C138.623 92.3981 137.933 96.2481 136.083 95.0181C135.353 94.5281 138.003 84.0281 124.603 86.0281H124.613Z" fill="white"/>
<path d="M75.9645 96.0281C74.9645 92.5281 72.0545 89.7481 76.7145 87.0381C84.3445 82.5881 89.7945 96.2281 83.7045 101.528C76.9745 107.378 76.6845 98.5381 75.9745 96.0281H75.9645Z" fill="white"/>
<path d="M124.613 86.0281C138.013 84.0281 135.353 94.5381 136.093 95.0181C137.943 96.2481 138.633 92.3981 140.583 91.0181C148.993 85.0981 162.553 96.2881 152.313 109.258C149.253 113.138 130.043 125.098 126.113 123.998C124.603 123.578 111.623 106.138 113.893 96.2681C114.893 91.8981 120.193 86.6881 124.623 86.0281H124.613ZM145.073 92.5281C141.303 93.4581 140.423 98.3481 143.323 101.268C134.743 97.1781 140.243 110.728 143.573 102.018C143.533 116.868 158.573 105.338 152.303 95.2681C150.763 92.7981 147.893 91.8281 145.063 92.5181L145.073 92.5281Z" fill="black"/>
<path d="M145.074 92.5281C147.894 91.8381 150.774 92.8081 152.314 95.2781C158.584 105.348 143.544 116.878 143.584 102.028C140.254 110.738 134.754 97.1881 143.334 101.278C140.434 98.3581 141.314 93.4581 145.084 92.5381L145.074 92.5281Z" fill="white"/>
<path d="M75.9644 96.0281C76.6444 98.8581 72.3144 100.168 71.4744 97.7781C70.0544 93.7381 75.3744 93.5881 75.9644 96.0281Z" fill="white"/>
<path d="M78.2139 124.508C82.2839 123.708 101.244 128.518 100.414 131.258C95.5039 133.338 90.6039 135.418 85.6939 137.508C83.6239 136.298 84.1839 132.058 83.2039 131.508C79.6539 129.528 82.0039 132.588 81.9539 132.758C81.0939 135.908 69.2839 126.278 78.2139 124.508Z" fill="white"/>
<path d="M85.693 140.998C87.553 140.438 86.713 145.048 91.183 146.498C96.503 148.218 110.163 144.378 95.923 148.748C98.523 163.428 78.843 158.138 79.453 146.748L74.213 144.498C67.513 136.208 80.633 151.408 85.693 140.998Z" fill="white"/>
</svg>
