<svg width="220" height="200" viewBox="0 0 220 200" fill="none" xmlns="http://www.w3.org/2000/svg">
<path d="M121.793 91.1932C127.583 90.5532 139.683 91.1832 145.493 92.9432C136.593 92.8632 127.703 92.7732 118.803 92.6932C116.573 91.9732 120.983 91.2832 121.793 91.1932Z" fill="white"/>
<path d="M122.293 93.1932C127.943 92.5332 150.613 93.8932 155.223 96.1932C164.273 100.703 154.253 99.5032 153.973 99.9432C154.723 100.863 155.473 101.773 156.223 102.693C154.313 102.613 152.393 102.523 150.483 102.443C162.623 109.873 146.473 104.853 136.263 103.693C129.823 102.963 117.203 104.153 117.053 100.943C117.883 100.443 118.713 99.9432 119.543 99.4432C119.703 98.7332 106.903 94.9832 122.283 93.2032L122.293 93.1932Z" fill="white"/>
<path d="M122.293 104.183C124.783 104.353 127.283 104.513 129.773 104.683C140.953 106.573 131.013 107.693 121.543 104.933L122.293 104.183Z" fill="white"/>
<path d="M67.4126 123.653C72.4826 122.393 93.1926 130.753 92.1126 133.393C86.7126 135.143 81.3026 136.893 75.9026 138.633C72.5826 136.953 74.4426 131.663 72.9126 131.143L70.6626 131.893C70.6126 132.063 73.1426 133.963 69.4126 133.143C66.2726 132.453 61.9726 125.013 67.4126 123.653Z" fill="white"/>
<path d="M62.4219 146.133C81.8019 146.573 84.8919 159.583 62.4219 147.133V146.133Z" fill="white"/>
<path d="M52.442 23.2732C64.652 22.0732 81.182 24.9932 92.852 28.7632C105.482 27.3332 117.972 30.4932 130.272 32.7632C132.382 32.6532 143.572 22.9232 171.182 24.7732C182.302 25.5232 207.972 32.3632 208.852 39.5032C209.312 43.2532 198.512 84.3032 194.882 90.9432C195.552 98.2632 196.212 105.593 196.882 112.913C198.462 114.623 208.372 108.143 209.852 113.413C211.742 120.113 198.342 119.853 197.382 121.403C197.052 123.563 196.712 125.733 196.382 127.893C197.002 129.703 207.202 132.243 202.872 137.383C199.002 141.973 195.172 135.013 193.142 135.633C189.872 140.653 185.392 145.523 180.172 148.613C169.452 154.953 124.462 169.123 110.822 172.083C105.462 173.253 84.102 177.213 80.392 176.083C71.582 170.923 62.762 165.763 53.952 160.603C47.252 156.133 25.772 139.583 21.772 133.883C18.382 129.043 18.352 125.093 19.282 119.403C18.242 117.123 8.14198 120.203 10.302 112.913C11.782 107.913 23.072 113.893 21.782 108.913C21.292 107.053 10.912 104.873 13.802 99.9232C15.882 96.3632 21.502 100.283 24.532 100.673C25.372 100.453 29.482 85.4132 29.272 83.9432C21.422 71.0232 15.832 57.0632 11.812 42.4932C8.44199 36.3432 33.362 27.5232 38.002 26.2632C42.822 25.2632 47.652 24.2632 52.472 23.2632L52.442 23.2732ZM54.442 26.2732C42.442 27.1232 24.962 33.2532 14.782 40.0032C17.532 55.8032 24.932 70.4932 32.742 84.4532C30.742 91.1132 28.752 97.7732 26.752 104.433L16.272 101.433C21.012 106.573 28.972 105.663 23.012 114.163C19.852 113.993 16.692 113.833 13.532 113.663C10.312 115.613 19.802 114.243 22.762 118.403C21.502 122.073 21.132 126.803 22.762 130.393C24.222 133.583 41.052 147.663 44.962 150.623C51.772 155.753 78.392 173.663 85.372 173.593C105.032 171.863 166.012 154.403 179.672 145.623C191.412 138.083 188.472 129.643 196.632 133.633C197.352 133.983 200.862 137.693 200.872 134.883C198.382 133.053 195.882 131.223 193.392 129.393C193.722 126.393 194.062 123.403 194.392 120.403C195.822 117.053 207.862 116.983 206.862 114.413C206.102 112.433 199.442 118.403 193.892 115.413C193.222 107.253 192.562 99.1032 191.892 90.9432C195.072 85.1632 206.672 42.0532 205.862 39.5032C192.852 28.8732 166.872 25.3732 150.732 28.2632C143.582 30.7632 136.432 33.2532 129.282 35.7532C117.482 32.9332 105.082 30.3232 92.862 31.7532C80.582 28.0432 67.412 25.3432 54.442 26.2632V26.2732Z" fill="white"/>
<path d="M54.441 26.2732C67.411 25.3532 80.571 28.0532 92.861 31.7632C105.081 30.3332 117.481 32.9432 129.281 35.7632C136.431 33.2632 143.581 30.7732 150.731 28.2732C166.871 25.3832 192.851 28.8832 205.861 39.5132C206.671 42.0632 195.071 85.1732 191.891 90.9532C192.561 99.1132 193.221 107.263 193.891 115.423C199.441 118.413 206.101 112.443 206.861 114.423C207.851 116.993 195.821 117.063 194.391 120.413C194.061 123.413 193.721 126.403 193.391 129.403C195.881 131.233 198.381 133.063 200.871 134.893C200.871 137.703 197.351 133.993 196.631 133.643C188.471 129.653 191.411 138.083 179.671 145.633C166.011 154.413 105.041 171.873 85.371 173.603C78.381 173.673 51.771 155.763 44.961 150.633C41.041 147.683 24.211 133.593 22.761 130.403C21.131 126.823 21.501 122.093 22.761 118.413C19.801 114.253 10.311 115.623 13.531 113.673C16.691 113.843 19.851 114.003 23.011 114.173C28.971 105.663 21.021 106.583 16.271 101.443L26.751 104.443C28.751 97.7832 30.741 91.1232 32.741 84.4632C24.931 70.5032 17.531 55.8232 14.781 40.0132C24.961 33.2532 42.441 27.1332 54.441 26.2832V26.2732ZM129.771 38.2632C125.361 40.8432 120.961 43.4232 116.551 46.0032C118.971 47.7732 126.131 40.6632 118.801 49.7532C112.391 50.3432 117.921 51.7132 118.051 52.0032C118.191 52.3032 114.571 57.0132 117.801 57.7432C120.541 58.3632 121.451 51.3132 123.291 50.2532C125.371 49.8332 127.451 49.4232 129.531 49.0032C124.431 46.8432 121.181 51.6132 127.781 42.7632C134.501 42.8032 129.621 40.8332 129.531 40.5132C129.461 40.2832 131.561 38.4332 129.781 38.2632H129.771ZM60.921 70.7232C60.981 74.4532 73.391 74.3432 79.631 74.4732C75.671 69.3132 67.141 70.9932 60.921 70.7232ZM116.801 73.2132L116.051 73.9632C116.401 75.8332 134.811 76.1432 137.751 77.7132C138.171 77.4632 138.581 77.2132 139.001 76.9632C136.751 72.9532 119.371 72.3832 116.801 73.2132ZM50.451 87.7032V88.7032L75.151 89.4532C67.031 87.7832 58.721 87.6132 50.451 87.7032ZM48.951 89.2032C38.631 89.9132 45.971 93.1532 45.711 93.9432C45.601 94.2832 40.401 95.2232 46.461 98.1832C49.261 99.5532 49.771 97.8232 51.951 100.183C61.101 100.013 70.241 99.8532 79.391 99.6832C80.581 98.6932 77.471 97.7832 77.641 97.4332C78.451 95.8632 86.021 98.5832 83.381 93.1932C81.231 93.7432 79.581 91.4832 78.391 91.1932C68.581 90.5232 58.771 89.8632 48.951 89.1932V89.2032ZM121.791 91.1932C120.981 91.2832 116.571 91.9732 118.801 92.6932C127.701 92.7732 136.591 92.8632 145.491 92.9432C139.681 91.1832 127.581 90.5632 121.791 91.1932ZM122.291 93.1932C106.911 94.9732 119.711 98.7232 119.551 99.4332C118.721 99.9332 117.891 100.433 117.061 100.933C117.211 104.143 129.831 102.953 136.271 103.683C146.471 104.843 162.631 109.873 150.491 102.433C152.401 102.513 154.321 102.603 156.231 102.683C155.481 101.763 154.731 100.853 153.981 99.9332C154.251 99.5032 164.281 100.703 155.231 96.1832C150.621 93.8832 127.961 92.5332 122.301 93.1832L122.291 93.1932ZM63.921 101.183C61.241 102.053 68.921 102.663 69.911 102.683C84.361 103.023 68.331 99.7632 63.921 101.183ZM122.291 104.183L121.541 104.933C131.011 107.693 140.961 106.573 129.771 104.683C127.281 104.513 124.781 104.353 122.291 104.183ZM67.411 123.653C61.961 125.013 66.271 132.453 69.411 133.143C73.141 133.963 70.611 132.063 70.661 131.893L72.911 131.143C74.441 131.663 72.581 136.953 75.901 138.633C81.301 136.883 86.711 135.133 92.111 133.393C93.201 130.753 72.481 122.393 67.411 123.653ZM62.421 146.133V147.133C84.891 159.583 81.801 146.573 62.421 146.133Z" fill="black"/>
<path d="M129.771 38.2632C131.551 38.4332 129.451 40.2832 129.521 40.5132C129.611 40.8332 134.491 42.7932 127.771 42.7632C121.161 51.6132 124.421 46.8432 129.521 49.0032C127.441 49.4232 125.361 49.8332 123.281 50.2532C121.441 51.3132 120.531 58.3632 117.791 57.7432C114.561 57.0032 118.181 52.3032 118.041 52.0032C117.911 51.7232 112.381 50.3432 118.791 49.7532C126.131 40.6732 118.961 47.7832 116.541 46.0032C120.951 43.4232 125.351 40.8432 129.761 38.2632H129.771Z" fill="white"/>
<path d="M60.9219 70.7233C67.1419 70.9933 75.6719 69.3033 79.6319 74.4733C73.3919 74.3533 60.9819 74.4533 60.9219 70.7233Z" fill="white"/>
<path d="M116.803 73.2132C119.373 72.3732 136.763 72.9432 139.003 76.9632C138.583 77.2132 138.173 77.4632 137.753 77.7132C134.813 76.1532 116.403 75.8332 116.053 73.9632L116.803 73.2132Z" fill="white"/>
<path d="M50.4512 87.7033C58.7112 87.6033 67.0312 87.7833 75.1512 89.4533L50.4512 88.7033V87.7033Z" fill="white"/>
<path d="M48.9518 89.2032C58.7618 89.8732 68.5718 90.5332 78.3918 91.2032C79.5818 91.4932 81.2317 93.7532 83.3817 93.2032C86.0217 98.6032 78.4518 95.8832 77.6418 97.4432C77.4618 97.7832 80.5718 98.6932 79.3918 99.6932C70.2418 99.8632 61.1017 100.023 51.9517 100.193C49.7717 97.8332 49.2618 99.5632 46.4618 98.1932C40.4018 95.2232 45.6018 94.2832 45.7118 93.9532C45.9818 93.1632 38.6417 89.9132 48.9518 89.2132V89.2032Z" fill="white"/>
<path d="M63.9226 101.183C68.3326 99.7532 84.3525 103.013 69.9125 102.683C68.9225 102.663 61.2526 102.053 63.9226 101.183Z" fill="white"/>
</svg>
