<svg width="638" height="518" viewBox="0 0 638 518" fill="none" xmlns="http://www.w3.org/2000/svg">
<rect x="123.316" y="169.318" width="110.242" height="232.682" rx="25.3182" fill="url(#paint0_linear_160_6975)"/>
<rect x="123.316" y="169.318" width="110.242" height="232.682" rx="25.3182" stroke="url(#paint1_linear_160_6975)" stroke-width="4"/>
<path d="M166.53 298.855C166.53 292.135 169.986 288.631 178.05 284.071C179.922 283.015 180.738 281.959 180.738 280.615C180.738 279.223 179.922 278.311 178.626 278.311C177.09 278.311 176.034 279.607 175.938 281.575L166.338 280.423C166.77 273.943 171.81 269.383 178.53 269.383C185.202 269.383 189.954 273.319 189.954 278.887C189.954 282.343 187.938 284.791 185.634 286.375C182.562 288.487 179.298 289.591 178.434 291.943H189.474V301.159H166.53V298.855Z" fill="#696969"/>
<path d="M198.771 147.573C200.586 147.565 201.279 148.529 202.014 150.291C203.644 154.19 203.392 160.834 202.675 165.003C202.853 167.697 203.028 170.394 203.206 173.088C203.543 174.126 206.232 171.923 206.649 173.486C207.092 175.148 203.535 175.164 203.339 175.607C203.294 176.138 203.251 176.669 203.206 177.197C203.27 177.367 206.317 178.888 204.597 179.782C203.302 180.456 202.837 178.991 202.346 179.119C202.094 179.185 201.231 181.29 198.638 182.696C197.046 183.562 188.194 186.606 186.057 187.203C183.496 187.92 174.864 189.908 172.683 189.589C170.137 189.218 157.105 180.408 156.065 177.592C155.767 176.793 155.741 175.74 156.065 174.941C155.34 174.314 153.416 174.797 153.681 173.351C153.955 171.865 158.294 173.401 156.264 171.827C155.834 171.493 154.302 171.228 154.475 170.171C154.743 168.536 157.288 170.346 157.522 170.038C158.095 168.096 158.668 166.15 159.244 164.207C159.194 160.749 159.25 157.269 159.905 153.869C160.078 152.98 161.254 148.37 161.824 148.104C163.778 147.194 172.786 149.962 174.801 151.815C178.54 151.764 182.24 152.338 185.924 152.876C188.101 150.013 195.379 147.589 198.771 147.573ZM198.243 148.37C194.943 148.51 188.263 150.936 186.06 153.673C182.206 152.998 178.315 152.667 174.408 152.481C170.827 150.103 166.543 148.81 162.225 148.77C160.288 153.662 159.863 158.973 160.041 164.213C159.313 166.487 158.584 168.764 157.856 171.039C157.692 171.092 154.387 169.648 155.473 170.641C156.046 171.167 158.66 171.374 156.93 173.558C153.349 173.16 153.867 173.385 156.864 174.421C157.376 175.456 154.493 175.891 159.974 180.716C161.769 182.296 170.74 188.488 172.555 188.801C175.018 189.228 184.173 186.978 186.989 186.15C188.905 185.587 196.847 182.792 198.245 182.041C202.442 179.779 200.846 177.375 203.41 178.726C203.663 178.858 203.84 179.559 204.204 179.124C204.515 178.755 202.466 177.776 202.285 177.468C202.418 176.716 202.55 175.965 202.683 175.214C202.97 175.015 203.256 174.816 203.543 174.617C203.678 174.559 207.66 173.63 205.528 173.555C205.372 173.55 203.511 174.715 202.548 174.02C202.327 171.589 202.107 169.16 201.887 166.729C202.256 161.067 203.737 152.951 199.835 148.37H198.245H198.243Z" fill="white"/>
<path d="M198.244 148.369H199.834C203.738 152.948 202.257 161.067 201.885 166.728C202.106 169.16 202.326 171.588 202.546 174.019C203.507 174.717 205.37 173.55 205.527 173.555C207.658 173.627 203.674 174.558 203.541 174.617C203.255 174.816 202.968 175.015 202.681 175.214C202.549 175.965 202.416 176.716 202.283 177.467C202.466 177.775 204.513 178.757 204.202 179.123C203.836 179.559 203.658 178.858 203.409 178.725C200.845 177.372 202.44 179.779 198.244 182.04C196.848 182.792 188.904 185.586 186.987 186.149C184.171 186.977 175.017 189.225 172.554 188.801C170.738 188.487 161.767 182.295 159.973 180.716C154.492 175.891 157.372 175.455 156.862 174.42C153.865 173.385 153.348 173.159 156.928 173.558C158.659 171.373 156.047 171.166 155.471 170.641C154.386 169.648 157.69 171.092 157.855 171.039C158.582 168.764 159.312 166.487 160.039 164.212C159.861 158.973 160.289 153.662 162.223 148.77C166.542 148.81 170.826 150.102 174.406 152.481C178.316 152.669 182.207 153.001 186.058 153.672C188.261 150.936 194.942 148.51 198.241 148.369H198.244ZM185.795 154.466C185.488 154.731 185.177 154.997 184.869 155.262C183.916 155.785 182.218 156.279 183.147 156.587C184.699 155.172 184.214 157.263 182.682 157.449C183.622 158.129 182.671 158.423 182.682 158.774C182.722 160.183 184.078 158.553 184.601 157.383C186.549 157.226 186.645 156.764 184.667 156.918C185.599 154.986 186.493 155.65 186.52 155.328L186.122 154.93C186.085 154.76 186.783 154.259 185.79 154.466H185.795ZM168.315 160.032C168.007 160.119 167.696 160.21 167.389 160.297C167.2 161.027 168.97 160.332 169.374 160.297C169.472 160.289 172.19 160.427 170.566 160.032H168.315ZM186.987 161.492L186.456 161.757C189.416 162.264 190.374 161.757 188.442 161.492H186.985H186.987ZM167.521 164.276C166.085 164.44 162.794 166.901 162.953 168.451C163.033 169.237 164.716 172.021 165.403 172.493C168.862 174.877 174.573 169.86 174.475 169.114C174.433 168.799 171.691 164.414 170.303 164.541C171.019 171.731 168.312 169.818 168.912 164.342C168.448 164.321 167.986 164.297 167.521 164.276ZM185.53 165.069C183.972 165.205 179.853 168.679 180.431 170.041C180.54 170.293 183.149 174.051 183.807 174.349C187.027 175.803 192.139 172.687 194.599 170.572C193.586 170.455 193.519 169.25 193.01 168.584C191.701 166.869 190.196 165.507 187.977 165.401C188.091 172.353 185.586 171.201 186.52 165.136C186.188 165.115 185.859 165.091 185.527 165.069H185.53ZM169.905 176.204C168.026 176.679 170.592 179.184 170.897 178.656C170.94 178.585 170.648 177.948 171.229 178.059C171.81 178.171 171.285 179.694 172.023 179.914C173.456 179.45 174.892 178.985 176.325 178.524C176.418 178.056 171.349 175.84 169.902 176.204H169.905Z" fill="black"/>
<path d="M185.796 154.466C186.788 154.259 186.09 154.758 186.127 154.931L186.526 155.329C186.499 155.65 185.602 154.987 184.673 156.919C186.65 156.762 186.555 157.227 184.607 157.383C184.081 158.554 182.727 160.186 182.688 158.774C182.677 158.421 183.627 158.127 182.688 157.45C184.219 157.267 184.705 155.172 183.152 156.587C182.223 156.279 183.922 155.786 184.875 155.263C185.183 154.997 185.493 154.732 185.801 154.466H185.796Z" fill="white"/>
<path d="M186.985 161.492H188.442C190.375 161.755 189.416 162.265 186.457 161.758L186.988 161.492H186.985Z" fill="white"/>
<path d="M185.527 165.069C185.859 165.091 186.188 165.114 186.519 165.136C185.585 171.198 188.091 172.352 187.977 165.401C190.196 165.505 191.7 166.869 193.009 168.584C193.519 169.252 193.585 170.455 194.599 170.572C192.138 172.69 187.026 175.803 183.807 174.348C183.149 174.051 180.537 170.293 180.431 170.041C179.849 168.679 183.971 165.205 185.529 165.069H185.527Z" fill="white"/>
<path d="M168.315 160.032H170.566C172.19 160.428 169.473 160.29 169.374 160.298C168.968 160.332 167.201 161.028 167.389 160.298C167.697 160.21 168.007 160.12 168.315 160.032Z" fill="white"/>
<path d="M167.519 164.276C167.983 164.298 168.445 164.321 168.91 164.343C168.31 169.818 171.014 171.732 170.3 164.542C171.686 164.414 174.43 168.799 174.473 169.115C174.571 169.861 168.859 174.877 165.401 172.494C164.713 172.019 163.031 169.234 162.951 168.451C162.792 166.901 166.086 164.441 167.519 164.276Z" fill="white"/>
<path d="M169.903 176.204C171.346 175.841 176.419 178.057 176.326 178.524C174.892 178.988 173.457 179.453 172.023 179.915C171.285 179.694 171.808 178.171 171.23 178.059C170.648 177.948 170.94 178.585 170.898 178.657C170.59 179.185 168.026 176.679 169.905 176.204H169.903Z" fill="white"/>
<path d="M290.197 142H349.803C363.786 142 375.121 153.335 375.121 167.318V376.682C375.121 390.665 363.786 402 349.803 402H290.197C276.214 402 264.879 390.665 264.879 376.682V167.318C264.879 153.335 276.214 142 290.197 142Z" fill="url(#paint2_linear_160_6975)"/>
<path d="M290.197 142H349.803C363.786 142 375.121 153.335 375.121 167.318V376.682C375.121 390.665 363.786 402 349.803 402H290.197C276.214 402 264.879 390.665 264.879 376.682V167.318C264.879 153.335 276.214 142 290.197 142Z" stroke="url(#paint3_linear_160_6975)" stroke-width="4"/>
<path d="M317.176 287.5V271.372H311.608V262.54H313.24C315.784 262.54 317.464 260.956 317.464 258.508V256.3H327.352V287.5H317.176Z" fill="#713B00"/>
<path d="M339.784 120.314C341.599 120.306 342.292 121.269 343.027 123.032C344.657 126.933 344.405 133.58 343.688 137.755C343.866 140.451 344.041 143.148 344.219 145.845C344.556 146.883 347.245 144.68 347.661 146.243C348.11 147.92 344.545 147.928 344.351 148.366C344.306 148.897 344.264 149.428 344.219 149.959C344.282 150.129 347.329 151.649 345.61 152.544C344.333 153.207 343.882 151.742 343.359 151.88C343.107 151.947 342.244 154.052 339.651 155.461C338.069 156.321 329.196 159.376 327.07 159.97C324.522 160.682 315.856 162.675 313.695 162.357C311.134 161.982 298.123 153.181 297.075 150.354C296.746 149.465 296.793 148.467 297.075 147.57C296.215 147.01 294.381 147.642 294.691 146.11C294.994 144.618 299.304 146.163 297.274 144.584C296.844 144.25 295.312 143.984 295.485 142.925C295.753 141.287 298.298 143.1 298.532 142.792C299.105 140.847 299.679 138.901 300.254 136.956C300.196 133.492 300.26 130.018 300.915 126.61C301.088 125.721 302.264 121.108 302.834 120.839C304.775 119.934 313.804 122.695 315.813 124.553C319.508 124.502 323.168 125.062 326.805 125.614C329.199 122.806 336.269 120.325 339.784 120.309V120.314ZM339.253 121.11C335.954 121.251 329.273 123.677 327.07 126.416C323.171 125.742 319.24 125.402 315.283 125.222C311.832 122.756 307.445 121.58 303.232 121.508C301.29 126.403 300.868 131.714 301.048 136.958C300.321 139.236 299.591 141.513 298.864 143.788C297.982 143.562 295.572 142.506 296.48 143.39C297.019 143.912 299.676 144.106 297.937 146.307C294.221 145.985 295.052 146.044 297.871 147.169C298.325 148.348 295.572 148.701 300.984 153.47C302.784 155.057 311.739 161.244 313.565 161.56C316.028 161.988 325.183 159.734 327.999 158.909C329.915 158.346 337.859 155.551 339.255 154.797C343.452 152.536 341.857 150.129 344.42 151.482C344.673 151.615 344.85 152.316 345.214 151.88C345.541 151.493 343.746 150.768 343.295 150.221C343.744 146.161 344.843 148.088 346.87 146.508C346.719 146.02 344.662 147.498 343.561 146.774C343.34 144.342 343.12 141.911 342.9 139.48C343.253 133.699 344.784 125.882 340.848 121.11H339.258H339.253Z" fill="white"/>
<path d="M339.254 121.11H340.844C344.78 125.883 343.251 133.699 342.896 139.48C343.116 141.911 343.336 144.343 343.557 146.774C344.658 147.498 346.715 146.02 346.866 146.508C344.839 148.09 343.74 146.161 343.291 150.222C343.745 150.766 345.537 151.49 345.21 151.881C344.844 152.316 344.666 151.615 344.417 151.482C341.853 150.129 343.448 152.536 339.251 154.798C337.855 155.551 329.911 158.346 327.995 158.909C325.179 159.737 316.024 161.988 313.561 161.56C311.735 161.245 302.78 155.058 300.98 153.47C295.571 148.703 298.324 148.35 297.867 147.169C295.048 146.044 294.218 145.986 297.933 146.307C299.672 144.106 297.015 143.913 296.476 143.39C295.569 142.506 297.979 143.562 298.86 143.788C299.587 141.511 300.317 139.233 301.044 136.959C300.864 131.714 301.286 126.403 303.229 121.508C307.443 121.58 311.831 122.759 315.279 125.222C319.233 125.402 323.167 125.739 327.066 126.416C329.269 123.677 335.95 121.251 339.249 121.11H339.254ZM326.806 127.212C326.498 127.478 326.187 127.743 325.88 128.009C324.929 128.532 323.228 129.025 324.157 129.336C325.755 127.929 325.168 130.01 323.692 130.198C323.703 130.626 324.17 130.482 324.223 130.596C324.258 130.671 323.318 131.748 324.024 131.99C324.903 132.287 325.134 130.347 325.481 130.132C325.988 130.066 326.498 129.999 327.005 129.933C327.416 129.336 325.704 129.744 325.68 129.668C326.604 127.741 327.52 128.391 327.536 128.075C326.639 127.605 327.95 126.971 326.809 127.212H326.806ZM308.794 134.506C308.181 134.567 306.485 135.194 307.205 135.435C310.352 134.947 315.656 137.405 312.768 135.435C311.852 134.811 309.912 134.395 308.794 134.506ZM325.88 136.494C325.678 136.515 323.531 137.176 324.024 137.423C326.981 136.921 331.552 138.941 330.248 137.689C329.436 136.908 326.989 136.38 325.877 136.494H325.88ZM305.617 136.627C299.253 137.038 302.565 138.92 302.637 139.212C302.937 140.43 301.325 144.674 308.001 145.38C316.139 146.238 313.203 139.231 317.402 139.809C319.865 140.149 318.081 143.637 319.321 145.712C320.64 147.918 328.892 149.208 330.909 148.032C332.966 146.835 332.706 142.53 335.148 142.859C336.342 141.038 335.44 140.773 333.163 140.075C328.178 138.548 322.968 138.426 317.8 138.748C315.239 138.485 311.977 136.215 305.617 136.624V136.627ZM310.915 148.964C309.24 149.388 311.183 151.575 311.709 151.482C312.094 151.416 311.589 150.713 312.24 150.819C312.85 150.92 312.234 152.475 313.033 152.677C314.424 152.257 315.815 151.838 317.206 151.416C317.527 150.63 312.168 148.645 310.915 148.964Z" fill="black"/>
<path d="M326.804 127.212C327.945 126.971 326.636 127.605 327.531 128.075C327.518 128.388 326.599 127.74 325.675 129.667C325.699 129.744 327.411 129.336 327 129.933C326.493 129.999 325.983 130.066 325.476 130.132C325.131 130.344 324.898 132.287 324.019 131.99C323.313 131.751 324.253 130.671 324.218 130.596C324.165 130.482 323.698 130.626 323.688 130.198C325.163 130.01 325.75 127.929 324.152 129.336C323.22 129.025 324.922 128.531 325.875 128.009C326.182 127.743 326.493 127.478 326.801 127.212H326.804Z" fill="white"/>
<path d="M308.792 134.506C309.909 134.395 311.849 134.812 312.765 135.435C315.653 137.405 310.35 134.947 307.202 135.435C306.483 135.196 308.179 134.567 308.792 134.506Z" fill="white"/>
<path d="M325.88 136.494C326.989 136.377 329.439 136.908 330.251 137.688C331.555 138.941 326.984 136.921 324.027 137.423C323.531 137.176 325.678 136.515 325.883 136.494H325.88Z" fill="white"/>
<path d="M305.618 136.627C311.977 136.215 315.239 138.487 317.8 138.75C322.965 138.429 328.176 138.548 333.163 140.077C335.44 140.775 336.345 141.043 335.148 142.862C332.706 142.53 332.969 146.838 330.909 148.035C328.892 149.208 320.64 147.918 319.321 145.715C318.079 143.639 319.865 140.152 317.402 139.812C313.201 139.233 316.139 146.24 308.001 145.383C301.326 144.68 302.937 140.433 302.637 139.215C302.565 138.92 299.25 137.041 305.618 136.629V136.627ZM305.087 137.423C302.565 137.85 303.473 141.941 304.028 142.065C304.686 142.214 304.758 140.842 305.153 140.274C305.567 139.676 307.383 138.726 307.138 137.888C306.987 137.362 305.543 137.346 305.087 137.423ZM321.906 139.546C319.35 139.966 320.287 144.069 320.847 144.189C321.5 144.327 321.447 143.156 321.973 142.397C322.384 141.805 324.874 140.393 323.629 139.679C323.056 139.634 322.482 139.592 321.906 139.546Z" fill="white"/>
<path d="M305.086 137.423C305.545 137.346 306.987 137.362 307.138 137.887C307.382 138.728 305.567 139.679 305.153 140.273C304.757 140.841 304.685 142.213 304.027 142.065C303.472 141.94 302.565 137.85 305.086 137.423Z" fill="black"/>
<path d="M321.906 139.547C322.479 139.592 323.052 139.634 323.628 139.68C324.876 140.396 322.386 141.806 321.972 142.397C321.446 143.154 321.499 144.327 320.846 144.189C320.286 144.07 319.35 139.966 321.906 139.547Z" fill="black"/>
<path d="M310.913 148.963C312.166 148.644 317.525 150.63 317.204 151.415C315.813 151.835 314.422 152.254 313.031 152.676C312.232 152.475 312.848 150.922 312.238 150.818C311.59 150.709 312.092 151.415 311.707 151.482C311.181 151.572 309.238 149.388 310.913 148.963Z" fill="white"/>
<path d="M431.756 196.637H491.362C505.345 196.637 516.68 207.972 516.68 221.955V376.682C516.68 390.665 505.345 402 491.362 402H431.756C417.773 402 406.438 390.665 406.438 376.682V221.955C406.438 207.972 417.773 196.637 431.756 196.637Z" fill="url(#paint4_linear_160_6975)"/>
<path d="M431.756 196.637H491.362C505.345 196.637 516.68 207.972 516.68 221.955V376.682C516.68 390.665 505.345 402 491.362 402H431.756C417.773 402 406.438 390.665 406.438 376.682V221.955C406.438 207.972 417.773 196.637 431.756 196.637Z" stroke="url(#paint5_linear_160_6975)" stroke-width="4"/>
<path d="M461.849 315.394C454.361 315.394 448.793 310.786 448.793 304.45L458.777 303.49C458.777 305.266 459.881 306.562 461.465 306.562C463.049 306.562 464.153 305.218 464.153 303.298C464.153 300.37 461.657 299.458 459.929 300.61L457.433 296.77L464.153 292.354H450.521V283.618H472.985V293.41L468.233 296.626C471.833 297.874 474.329 301.426 474.329 305.41C474.329 311.218 469.001 315.394 461.849 315.394Z" fill="#6D2E25"/>
<path d="M480.879 174.848C483.077 174.757 483.939 175.41 484.919 178.495C486.4 183.163 485.635 188.684 485.184 193.483C485.362 195.694 485.537 197.905 485.715 200.116C485.999 200.769 488.767 198.908 489.158 200.381C489.611 202.088 486.172 201.799 485.848 202.635C485.803 203.078 485.76 203.518 485.715 203.962C485.784 204.161 488.635 205.432 487.106 206.547C486.129 207.261 485.261 205.859 484.988 205.883C484.51 205.926 483.815 209.1 477.174 211.056C475.913 212.575 474.931 215.741 472.407 215.035C471.462 214.772 471.061 213.408 470.023 213.443C467.948 214.019 465.875 214.592 463.799 215.168C461.028 215.741 456.675 216.739 454.13 215.699C452.601 215.072 445.974 210.685 444.198 209.198C441.995 211.404 439.776 208.524 440.158 205.95C439.919 205.01 438.576 204.004 439.365 201.706C439.203 201.193 436.49 201.854 436.981 200.113C437.353 198.799 440.121 200.084 440.028 199.184C439.277 198.653 438.526 198.122 437.777 197.592C437.44 196.397 438.805 195.951 440.493 196.994C440.604 196.928 440.713 196.862 440.825 196.795C441.31 195.115 441.796 193.435 442.282 191.755C441.268 189.751 439.869 186.59 439.367 184.461C438.852 182.28 438.571 181.966 442.083 180.416C444.426 179.381 447.994 178.566 450.557 178.426C455.125 178.179 463.709 179.495 468.702 180.018C470.732 177.321 477.731 174.975 480.887 174.845L480.879 174.848ZM480.746 175.644C477.264 175.798 471.252 178.067 468.959 180.817C461.586 180.127 452.062 178.07 444.989 180.153C444.134 180.406 439.781 182.115 439.758 182.871C440.554 185.948 441.623 188.926 443.067 191.758C442.449 193.791 441.83 195.824 441.212 197.86C440.328 197.639 439.447 197.416 438.563 197.196C439.314 197.727 440.065 198.258 440.814 198.789C440.883 198.993 440.466 200.649 439.954 200.448C439.524 200.278 437.438 200.052 437.77 200.514C441.499 201.026 439.556 201.719 439.888 203.696C440.195 204.272 440.506 204.846 440.814 205.422C441.058 206.284 440.689 208.559 442.072 209.068C443.861 209.729 443.489 207.991 443.927 208.007C445.737 209.334 447.548 210.658 449.358 211.985C456.715 216.694 456.113 215.701 464.986 214.109C472.893 211.436 470.775 213.599 472.534 214.241C474.613 215.001 475.531 211.478 476.773 210.396C478.405 209.687 480.04 208.981 481.673 208.272C484.914 206.093 483.557 204.171 486.044 205.621C486.203 205.713 486.357 206.3 486.705 205.886C487.021 205.512 485.235 204.726 484.916 204.36C485.004 203.609 485.094 202.858 485.182 202.106C485.455 201.488 490.057 200.546 488.03 200.448C487.876 200.44 486.541 201.342 485.049 201.045C484.895 197.809 484.375 194.611 484.518 191.362C485.251 187.71 485.293 181.51 483.987 178.099C482.963 175.426 482.249 175.58 480.744 175.647L480.746 175.644Z" fill="white"/>
<path d="M480.748 175.644C482.253 175.578 482.97 175.427 483.992 178.097C485.297 181.507 485.252 187.708 484.522 191.36C484.376 194.609 484.897 197.807 485.053 201.042C486.542 201.34 487.877 200.437 488.034 200.445C490.064 200.541 485.459 201.486 485.186 202.104C485.098 202.855 485.008 203.606 484.921 204.358C485.239 204.721 487.023 205.509 486.709 205.884C486.362 206.298 486.208 205.711 486.049 205.618C483.564 204.169 484.918 206.091 481.677 208.27C480.045 208.979 478.41 209.685 476.777 210.393C475.535 211.476 474.617 214.998 472.539 214.239C470.779 213.597 472.897 211.434 464.99 214.106C456.117 215.702 456.722 216.694 449.362 211.983C447.552 210.656 445.742 209.332 443.932 208.004C443.494 207.988 443.868 209.727 442.076 209.066C440.693 208.556 441.062 206.282 440.818 205.419C440.51 204.843 440.2 204.27 439.892 203.694C439.56 201.717 441.5 201.024 437.774 200.512C437.442 200.05 439.528 200.275 439.958 200.445C440.473 200.647 440.887 198.991 440.818 198.786C440.067 198.256 439.316 197.725 438.567 197.194C439.451 197.414 440.333 197.637 441.216 197.857C441.835 195.824 442.453 193.791 443.072 191.755C441.625 188.923 440.555 185.945 439.762 182.869C439.786 182.113 444.139 180.401 444.993 180.151C452.067 178.068 461.59 180.125 468.963 180.815C471.257 178.065 477.268 175.796 480.751 175.642L480.748 175.644ZM468.563 181.611C468.21 181.922 467.857 182.229 467.504 182.54C466.906 182.827 466.312 183.116 465.715 183.403C465.529 184.178 466.869 182.981 467.039 183.27C466.392 184.756 465.473 184.369 465.449 184.597C465.412 184.95 465.972 184.833 465.98 184.862C465.847 185.173 465.715 185.481 465.582 185.791C465.555 186.346 466.046 186.691 466.641 185.924C467.323 185.043 466.445 184.48 468.892 184.199C468.523 183.718 467.466 184.207 467.435 184.066C468.51 182.115 469.2 182.805 469.29 182.474L468.892 182.075C468.876 182.025 469.531 181.324 468.56 181.611H468.563ZM454.79 185.722C453.235 187.028 451.881 186.179 452.075 186.85C452.369 187.864 457.572 186.192 454.79 185.722ZM467.636 186.917C466.065 187.61 470.89 188.844 471.145 187.779C471.289 187.182 470.208 187.681 469.489 187.58C469.035 187.517 468.109 186.707 467.634 186.917H467.636ZM451.61 188.509C447.018 188.785 443.531 193.86 446.644 197.86C446.538 198.027 444.792 197.775 444.393 198.656C443.414 200.814 448.354 202.194 449.227 199.784C452.303 201.313 456.951 199.691 458.166 196.403C459.836 191.893 456.045 188.244 451.61 188.512V188.509ZM468.297 189.571C462.163 190.349 459.86 198.686 465.516 201.905C469.502 204.174 472.724 201.977 473.064 202.17C473.208 202.25 473.311 203.625 475.846 203.365C478.58 203.084 478.731 199.787 475.514 200.249C479.692 194.465 474.951 188.727 468.297 189.571ZM443.268 201.109C440.611 201.032 440.845 203.755 443.666 203.362C445.535 203.102 444.983 201.157 443.268 201.109ZM454.392 201.507C453.004 201.855 453.893 203.667 454.923 203.893C456.04 204.14 454.718 203.277 455.849 203.362C456.459 206.401 457.001 204.541 460.682 203.429C460.945 202.659 455.512 201.226 454.392 201.504V201.507ZM477.303 204.291C475.57 204.642 476.063 206.823 478.362 206.545C480.722 206.258 479.657 203.813 477.303 204.291Z" fill="black"/>
<path d="M468.562 181.611C469.531 181.324 468.878 182.022 468.893 182.075L469.292 182.473C469.204 182.803 468.511 182.112 467.436 184.066C467.468 184.207 468.525 183.718 468.893 184.199C466.444 184.477 467.325 185.04 466.643 185.924C466.048 186.694 465.557 186.346 465.584 185.791C465.716 185.481 465.849 185.173 465.982 184.862C465.974 184.833 465.414 184.95 465.451 184.597C465.475 184.369 466.393 184.756 467.041 183.27C466.871 182.98 465.531 184.177 465.716 183.402C466.314 183.116 466.908 182.826 467.505 182.54C467.858 182.229 468.211 181.921 468.564 181.611H468.562Z" fill="white"/>
<path d="M454.788 185.722C457.57 186.189 452.368 187.864 452.073 186.85C451.879 186.178 453.233 187.028 454.788 185.722Z" fill="white"/>
<path d="M467.636 186.916C468.108 186.707 469.034 187.516 469.491 187.58C470.208 187.681 471.29 187.182 471.147 187.779C470.89 188.843 466.067 187.609 467.638 186.916H467.636Z" fill="white"/>
<path d="M451.61 188.509C456.046 188.241 459.833 191.89 458.166 196.4C456.951 199.689 452.303 201.31 449.227 199.781C448.351 202.191 443.414 200.811 444.394 198.653C444.794 197.772 446.538 198.024 446.644 197.857C443.531 193.857 447.019 188.782 451.61 188.506V188.509ZM450.949 189.571C449.023 189.841 446.766 191.75 446.512 193.748C445.721 199.978 454.689 201.337 456.975 196.533C458.801 192.692 455.472 188.936 450.949 189.571ZM445.784 198.192C445.272 198.192 444.165 199.02 445.123 199.253C446.424 199.572 446.987 198.192 445.784 198.192Z" fill="white"/>
<path d="M450.948 189.571C455.473 188.939 458.799 192.695 456.973 196.533C454.688 201.337 445.719 199.975 446.51 193.749C446.762 191.75 449.018 189.842 450.948 189.571ZM451.213 190.099C450.813 190.171 449.377 191.137 449.292 191.493C448.957 192.897 450.937 191.116 452.602 194.808C453.18 196.092 453.111 198.386 455.317 197.26C457.974 195.906 456.978 189.075 451.211 190.099H451.213ZM448.299 193.417C445.666 194.003 449.101 199.909 451.742 198.723C454.032 197.693 451.24 192.764 448.299 193.417Z" fill="black"/>
<path d="M468.294 189.57C474.948 188.726 479.691 194.462 475.511 200.248C478.728 199.786 478.576 203.083 475.843 203.364C473.308 203.627 473.204 202.252 473.061 202.17C472.721 201.976 469.499 204.174 465.512 201.904C459.856 198.685 462.16 190.348 468.294 189.57ZM468.692 190.497C466.367 190.791 463.718 193.063 463.461 195.471C462.752 202.103 472.113 204.113 475.248 199.051C477.878 194.802 474.423 189.769 468.692 190.497ZM474.123 200.975C473.348 201.206 473.674 202.395 474.654 201.904C475.317 201.573 475.16 200.665 474.123 200.975Z" fill="white"/>
<path d="M451.214 190.098C456.982 189.074 457.977 195.906 455.32 197.259C453.115 198.385 453.184 196.092 452.605 194.807C450.938 191.115 448.961 192.896 449.295 191.492C449.38 191.136 450.813 190.17 451.217 190.098H451.214Z" fill="white"/>
<path d="M468.695 190.497C474.426 189.77 477.882 194.802 475.251 199.052C472.117 204.113 462.755 202.104 463.464 195.471C463.721 193.064 466.37 190.792 468.695 190.497ZM469.622 191.161C468.82 191.243 466.63 192.355 466.906 193.351C467.082 193.98 468.934 193.64 469.953 195.076C470.925 196.445 470.912 200.628 473.462 199.652C476.817 198.367 475.952 190.524 469.622 191.164V191.161ZM465.651 195.007C462.867 195.708 466.617 202.508 469.757 201.109C472.422 199.922 468.916 194.187 465.651 195.007Z" fill="black"/>
<path d="M469.622 191.161C475.952 190.521 476.818 198.365 473.463 199.649C470.912 200.626 470.925 196.443 469.954 195.073C468.935 193.637 467.082 193.977 466.907 193.348C466.631 192.355 468.82 191.241 469.622 191.158V191.161Z" fill="white"/>
<path d="M448.297 193.417C451.238 192.764 454.03 197.693 451.74 198.723C449.099 199.912 445.661 194.003 448.297 193.417Z" fill="white"/>
<path d="M465.649 195.007C468.911 194.187 472.417 199.92 469.755 201.109C466.618 202.507 462.867 195.707 465.649 195.007Z" fill="white"/>
<path d="M445.783 198.191C446.983 198.191 446.423 199.569 445.122 199.253C444.167 199.02 445.273 198.194 445.783 198.191Z" fill="black"/>
<path d="M474.125 200.976C475.163 200.665 475.317 201.571 474.656 201.905C473.677 202.396 473.353 201.21 474.125 200.976Z" fill="black"/>
<path d="M443.267 201.108C444.982 201.158 445.534 203.104 443.665 203.361C440.844 203.754 440.613 201.031 443.267 201.108ZM442.208 201.506C441.646 201.626 441.685 202.369 442.341 202.302C442.912 202.244 443.031 201.331 442.208 201.506Z" fill="white"/>
<path d="M442.209 201.507C443.032 201.331 442.913 202.245 442.342 202.303C441.686 202.369 441.647 201.626 442.209 201.507Z" fill="black"/>
<path d="M454.39 201.507C455.51 201.225 460.943 202.659 460.68 203.431C456.999 204.543 456.455 206.404 455.847 203.365C454.716 203.28 456.038 204.142 454.92 203.896C453.891 203.667 453.001 201.857 454.39 201.509V201.507Z" fill="white"/>
<path d="M477.3 204.291C479.654 203.813 480.718 206.261 478.359 206.545C476.06 206.823 475.567 204.641 477.3 204.291ZM477.037 204.689C476.588 204.817 476.689 205.491 477.17 205.486C477.738 205.48 478.011 204.411 477.037 204.689Z" fill="white"/>
<path d="M477.037 204.689C478.012 204.41 477.738 205.48 477.17 205.485C476.69 205.49 476.589 204.819 477.037 204.689Z" fill="black"/>
<g opacity="0.2" filter="url(#filter0_f_160_6975)">
<ellipse cx="328.586" cy="154.169" rx="58.5" ry="58" fill="#FFA800"/>
</g>
<g opacity="0.2" filter="url(#filter1_f_160_6975)">
<ellipse cx="477.086" cy="211.5" rx="65" ry="52.5" fill="#AB623A"/>
</g>
<g opacity="0.2" filter="url(#filter2_f_160_6975)">
<ellipse cx="181.086" cy="205.169" rx="60" ry="56" fill="#535353"/>
</g>
<defs>
<filter id="filter0_f_160_6975" x="174.472" y="0.555412" width="308.227" height="307.227" filterUnits="userSpaceOnUse" color-interpolation-filters="sRGB">
<feFlood flood-opacity="0" result="BackgroundImageFix"/>
<feBlend mode="normal" in="SourceGraphic" in2="BackgroundImageFix" result="shape"/>
<feGaussianBlur stdDeviation="47.8068" result="effect1_foregroundBlur_160_6975"/>
</filter>
<filter id="filter1_f_160_6975" x="316.472" y="63.3865" width="321.227" height="296.227" filterUnits="userSpaceOnUse" color-interpolation-filters="sRGB">
<feFlood flood-opacity="0" result="BackgroundImageFix"/>
<feBlend mode="normal" in="SourceGraphic" in2="BackgroundImageFix" result="shape"/>
<feGaussianBlur stdDeviation="47.8068" result="effect1_foregroundBlur_160_6975"/>
</filter>
<filter id="filter2_f_160_6975" x="25.4724" y="53.5554" width="311.227" height="303.227" filterUnits="userSpaceOnUse" color-interpolation-filters="sRGB">
<feFlood flood-opacity="0" result="BackgroundImageFix"/>
<feBlend mode="normal" in="SourceGraphic" in2="BackgroundImageFix" result="shape"/>
<feGaussianBlur stdDeviation="47.8068" result="effect1_foregroundBlur_160_6975"/>
</filter>
<linearGradient id="paint0_linear_160_6975" x1="178.438" y1="167.318" x2="178.438" y2="404" gradientUnits="userSpaceOnUse">
<stop stop-color="#D4D4D4"/>
<stop offset="1" stop-color="#F8F8F8"/>
</linearGradient>
<linearGradient id="paint1_linear_160_6975" x1="178.438" y1="167.318" x2="178.438" y2="404" gradientUnits="userSpaceOnUse">
<stop stop-color="#E5E5E5"/>
<stop offset="1" stop-color="#E4E4E4"/>
</linearGradient>
<linearGradient id="paint2_linear_160_6975" x1="320" y1="140" x2="320" y2="404" gradientUnits="userSpaceOnUse">
<stop stop-color="#FCEC95"/>
<stop offset="1" stop-color="#FDC53C"/>
</linearGradient>
<linearGradient id="paint3_linear_160_6975" x1="320" y1="140" x2="320" y2="404" gradientUnits="userSpaceOnUse">
<stop stop-color="#FADF79"/>
<stop offset="1" stop-color="#F5B04D"/>
</linearGradient>
<linearGradient id="paint4_linear_160_6975" x1="461.559" y1="194.637" x2="461.559" y2="404" gradientUnits="userSpaceOnUse">
<stop stop-color="#FDD9B1"/>
<stop offset="1" stop-color="#EC9965"/>
</linearGradient>
<linearGradient id="paint5_linear_160_6975" x1="461.559" y1="194.637" x2="461.559" y2="404" gradientUnits="userSpaceOnUse">
<stop stop-color="#F5CAA2"/>
<stop offset="1" stop-color="#DE7249"/>
</linearGradient>
</defs>
</svg>
