<svg width="220" height="200" viewBox="0 0 220 200" fill="none" xmlns="http://www.w3.org/2000/svg">
<path d="M53.7906 24.1997C65.6906 23.2797 79.8506 25.6397 91.2106 29.1997C104.361 28.6697 117.401 30.6397 130.131 33.6997C150.881 20.9197 190.151 22.9997 208.221 38.9497C209.451 43.4197 199.221 78.8897 197.241 86.4197C196.411 88.0897 195.581 89.7497 194.751 91.4197C195.421 98.9197 196.081 106.41 196.751 113.91C199.891 114.22 208.291 109.06 209.721 113.91C210.271 115.77 209.201 118.28 207.471 119.16C202.541 121.68 196.551 117.68 195.741 128.4C208.351 134.45 202.751 140.71 197.491 139.14C197.001 138.99 194.781 135.61 193.001 136.14C192.121 136.4 187.531 144.63 180.031 149.13C171.611 154.18 131.191 167.36 120.151 170.12C113.321 171.83 86.3806 177.49 81.2306 176.62C65.7506 168.79 45.7606 156.53 32.8306 145.14C24.8906 138.14 16.1306 131.5 19.1106 119.91C18.1806 117.73 8.79062 120.3 10.1306 113.91C11.1506 109.03 19.7506 112.74 21.6106 111.41C24.5706 109.29 15.1406 106.03 14.3706 105.16C11.0506 101.41 14.6006 96.0797 24.3506 101.66C26.1006 96.2497 27.8406 90.8297 29.5906 85.4197C25.7606 77.9197 21.9406 70.4297 18.1106 62.9297C15.9506 56.2697 13.7906 49.5997 11.6206 42.9397C10.6206 33.3697 45.9006 24.8097 53.7806 24.1997H53.7906ZM52.7906 27.1997C42.1506 28.1097 23.4006 34.3597 14.6206 40.9397C17.7106 56.8797 25.0406 71.2597 32.5806 85.4097C30.5006 91.9897 28.4206 98.5697 26.3406 105.15C22.9306 104.07 19.5206 102.98 16.1106 101.9C19.1006 104.07 22.1006 106.23 25.0906 108.4L23.5906 114.4C21.8906 115.69 11.1706 112.58 13.1106 115.4C13.4006 115.82 18.6006 115.3 22.5906 118.4C22.2606 121.56 21.9206 124.73 21.5906 127.89C22.5706 133.81 42.6306 149.54 48.2906 153.62C53.8106 157.61 79.1806 173.99 84.2206 174.11C104.281 172.45 168.181 154.56 181.521 144.63C192.181 136.69 188.511 130.12 196.491 134.14C196.831 134.31 200.751 138.52 200.731 135.39C198.071 133.39 195.411 131.39 192.751 129.39C193.251 126.56 193.751 123.73 194.251 120.9C195.691 117.74 208.391 117.1 206.721 114.9C205.591 113.42 200.371 118.11 193.751 116.4C193.081 107.91 192.421 99.4097 191.751 90.9197C192.581 89.4197 193.411 87.9197 194.241 86.4197C195.891 80.5197 206.271 42.8397 205.721 40.4497C185.481 25.1897 151.911 24.4597 129.631 36.6997C117.611 33.1497 104.471 31.7797 91.7106 32.1997C79.1806 28.5097 65.9506 26.0797 52.7906 27.1997Z" fill="white"/>
<path d="M52.7908 27.1997C65.9508 26.0697 79.1808 28.5097 91.7108 32.1997C104.471 31.7797 117.611 33.1497 129.631 36.6997C151.911 24.4597 185.481 25.1897 205.721 40.4497C206.281 42.8397 195.891 80.5197 194.241 86.4197C193.411 87.9197 192.581 89.4197 191.751 90.9197C192.421 99.4097 193.081 107.91 193.751 116.4C200.371 118.11 205.601 113.42 206.721 114.9C208.381 117.09 195.691 117.74 194.251 120.9C193.751 123.73 193.251 126.56 192.751 129.39C195.411 131.39 198.071 133.39 200.731 135.39C200.751 138.52 196.831 134.31 196.491 134.14C188.511 130.13 192.181 136.69 181.521 144.63C168.181 154.57 104.281 172.45 84.2208 174.11C79.1808 173.99 53.8108 157.61 48.2908 153.62C42.6408 149.53 22.5808 133.8 21.5908 127.89C21.9208 124.73 22.2608 121.56 22.5908 118.4C18.6008 115.3 13.4008 115.82 13.1108 115.4C11.1708 112.58 21.8908 115.69 23.5908 114.4L25.0908 108.4C22.1008 106.23 19.1008 104.07 16.1108 101.9C19.5208 102.98 22.9308 104.07 26.3408 105.15C28.4208 98.5697 30.5008 91.9897 32.5808 85.4097C25.0408 71.2597 17.7108 56.8697 14.6208 40.9397C23.4008 34.3597 42.1508 28.1097 52.7908 27.1997ZM129.141 39.1897C124.901 41.7697 120.661 44.3497 116.421 46.9397C116.681 49.3097 121.021 44.5897 121.911 45.9397C119.511 51.6197 115.421 50.5897 115.421 51.4397C116.251 51.7697 117.081 52.1097 117.911 52.4397C118.061 52.7097 114.921 57.1397 117.161 58.1897C121.501 60.2197 119.181 49.1297 128.891 49.9397C128.281 46.9497 123.901 50.3697 123.901 48.4397C127.391 41.4097 132.161 44.4197 130.641 41.6897C130.221 41.6097 129.811 41.5197 129.391 41.4397C129.021 40.8697 131.951 39.0797 129.141 39.1897ZM72.7508 87.1597C71.1508 87.3997 69.8508 90.6797 61.0208 89.4097C70.1208 94.2197 81.3208 85.8797 72.7508 87.1597ZM107.681 87.6597C108.261 92.7897 123.261 91.3197 122.401 89.9097C112.901 91.3497 113.281 87.1297 107.681 87.6597ZM138.621 95.1597C131.531 95.0197 109.211 116.35 107.931 124.89C108.541 126.7 128.611 125.97 131.631 126.14C133.631 126.25 145.911 129.47 146.351 126.89C145.351 126.22 144.351 125.56 143.361 124.89C143.001 123.8 148.411 122.29 135.381 120.39C134.951 119.48 148.651 119.72 142.621 118.64C134.891 119.06 127.151 119.47 119.421 119.89C126.801 100.34 151.111 99.3997 136.391 97.8997C137.971 97.0197 143.831 95.2497 138.641 95.1497L138.621 95.1597ZM44.8108 97.1597L44.3108 98.1597C51.5408 99.9197 43.5508 99.1697 43.5608 100.41C43.5708 101.68 55.4908 103.59 61.5208 117.4C55.2808 116.98 49.0508 116.57 42.8108 116.15C36.8608 117.21 49.0408 116.92 49.0508 117.4C46.4708 117.98 43.8908 118.57 41.3208 119.15C39.6308 120.39 42.0108 120.61 42.0708 120.9C42.1308 121.15 37.6508 122.65 40.3208 123.65C50.1308 123.15 59.9508 122.65 69.7608 122.15L70.5108 121.4C70.3208 114.45 50.2408 95.6597 44.8108 97.1597ZM119.661 101.65C117.041 102.72 107.791 119.7 121.911 101.9C121.161 101.82 120.411 101.73 119.661 101.65ZM59.2808 102.15C60.6908 104.07 62.1108 105.98 63.5208 107.9C67.8408 111.17 63.0708 102.53 59.2808 102.15ZM58.7808 123.64C57.7808 123.81 56.7808 123.97 55.7908 124.14V125.14C60.0308 124.72 64.2708 124.31 68.5108 123.89C65.2708 123.81 62.0208 123.72 58.7808 123.64ZM110.671 127.64C111.051 128.89 114.581 128.98 116.161 129.14C137.901 131.27 121.671 126.08 110.671 127.64ZM73.7508 138.13C65.3408 139.1 70.6008 147.34 74.7508 147.62C78.0408 147.85 75.3408 146.12 76.2508 145.62C79.9808 143.57 78.0808 152.8 82.7408 152.12C83.9008 151.29 85.0708 150.45 86.2308 149.62C95.7108 145.37 103.161 144.79 89.7208 140.63C84.4008 139.8 79.0808 138.96 73.7508 138.13Z" fill="black"/>
<path d="M129.14 39.1897C131.95 39.0797 129.02 40.8697 129.39 41.4397C129.81 41.5197 130.22 41.6097 130.64 41.6897C132.16 44.4197 127.39 41.4097 123.9 48.4397C123.9 50.3597 128.28 46.9497 128.89 49.9397C119.18 49.1297 121.5 60.2097 117.16 58.1897C114.92 57.1397 118.06 52.7097 117.91 52.4397C117.08 52.1097 116.25 51.7697 115.42 51.4397C115.42 50.5997 119.51 51.6197 121.91 45.9397C121.02 44.5897 116.68 49.3097 116.42 46.9397C120.66 44.3597 124.9 41.7797 129.14 39.1897Z" fill="white"/>
<path d="M72.7515 87.1597C81.3315 85.8697 70.1215 94.2097 61.0215 89.4097C69.8515 90.6797 71.1415 87.3997 72.7515 87.1597Z" fill="white"/>
<path d="M107.68 87.6597C113.28 87.1297 112.9 91.3397 122.4 89.9097C123.26 91.3197 108.26 92.7897 107.68 87.6597Z" fill="white"/>
<path d="M138.62 95.1597C143.82 95.2597 137.96 97.0297 136.37 97.9097C151.09 99.4097 126.78 100.35 119.4 119.9C127.13 119.48 134.87 119.07 142.6 118.65C148.64 119.73 134.94 119.49 135.36 120.4C148.39 122.3 142.98 123.8 143.34 124.9C144.34 125.57 145.34 126.23 146.33 126.9C145.89 129.48 133.61 126.26 131.61 126.15C128.59 125.98 108.52 126.71 107.91 124.9C109.19 116.35 131.51 95.0297 138.6 95.1697L138.62 95.1597Z" fill="white"/>
<path d="M44.81 97.1597C50.24 95.6597 70.31 114.44 70.51 121.4L69.76 122.15C59.95 122.65 50.13 123.15 40.32 123.65C37.64 122.65 42.12 121.15 42.07 120.9C42.01 120.61 39.63 120.39 41.32 119.15C43.9 118.57 46.48 117.98 49.05 117.4C49.05 116.92 36.86 117.21 42.81 116.15C49.05 116.57 55.28 116.98 61.52 117.4C55.49 103.59 43.57 101.68 43.56 100.41C43.55 99.1697 51.54 99.9197 44.31 98.1597L44.81 97.1597Z" fill="white"/>
<path d="M119.661 101.65C120.411 101.73 121.161 101.82 121.911 101.9C107.801 119.7 117.041 102.72 119.661 101.65Z" fill="white"/>
<path d="M59.2812 102.15C63.0812 102.52 67.8413 111.16 63.5213 107.9C62.1113 105.98 60.6912 104.07 59.2812 102.15Z" fill="white"/>
<path d="M58.781 123.64C62.021 123.72 65.271 123.81 68.511 123.89C64.271 124.31 60.031 124.72 55.791 125.14V124.14C56.791 123.97 57.791 123.81 58.781 123.64Z" fill="white"/>
<path d="M110.67 127.64C121.67 126.08 137.9 131.27 116.16 129.14C114.59 128.99 111.05 128.89 110.67 127.64Z" fill="white"/>
<path d="M73.7514 138.13C79.0714 138.96 84.3914 139.8 89.7214 140.63C103.161 144.8 95.7114 145.37 86.2314 149.62C85.0714 150.45 83.9014 151.29 82.7414 152.12C78.0814 152.8 79.9814 143.58 76.2514 145.62C75.3414 146.12 78.0414 147.85 74.7514 147.62C70.6114 147.33 65.3414 139.09 73.7514 138.13Z" fill="white"/>
</svg>
