<?xml version="1.0" encoding="UTF-8"?>
<svg xmlns="http://www.w3.org/2000/svg" version="1.1" viewBox="0 0 559 443">
  <defs>
    <style>
      .cls-1 {
        fill: #fff;
      }

      .cls-2 {
        stroke: #fff;
        stroke-width: 7.9px;
      }
    </style>
  </defs>
  <!-- Generator: Adobe Illustrator 28.7.0, SVG Export Plug-In . SVG Version: 1.2.0 Build 55)  -->
  <g>
    <g id="Layer_1">
      <path class="cls-2" d="M479.7,4.1c5-.1,8.9.4,12.3,3,3.1,2.3,5.2,6,7.7,10.3,10.7,19,15.9,43.5,18,68.1,2.1,24.7,1.1,49.8-.9,70.5h0c0,0,0,.2,0,.2l-.4,2.7v.5c-1.1,7.9-2.2,15.8-3.2,23.6-.9,12.3.4,29,2.1,46.3.4,4.1.8,8.2,1.2,12.4,1.3,12.4,2.5,24.6,3,34.8,6,.2,11.7-1,16.2-2.5,2.5-.8,4.7-1.7,6.3-2.4.7-.3,1.6-.7,2.1-.9.3-.1.6-.2.9-.4.2,0,.7-.3,1.2-.3h0c3.7-.5,6.6,1.5,7.8,4.2,1.1,2.4,1,6.3-2.5,8.3h0c-.5.3-1,.5-1.3.6-.4.1-.8.3-1.2.4-.9.3-2.1.6-3.4.9-1,.3-2.2.5-3.3.8-1.9.5-4,1-6.1,1.6-3.4.9-6.8,1.8-9.6,2.7-1.4.4-2.5.8-3.4,1.2-.7.3-1,.5-1.1.5,0,0,0,0,0,0,0,0-.2.2-.3.6-.3.5-.6,1.3-.8,2.3-.6,2-1.1,4.5-1.5,7.2-.4,2.7-.7,5.5-1,8,0,.7-.1,1.3-.2,1.9,0,.9-.2,1.7-.3,2.4.4.3.9.7,1.4,1.1,1.8,1.3,4.1,2.8,6.5,4.3.5.3.9.6,1.4.9,1.9,1.2,3.8,2.4,5.3,3.5.9.6,1.8,1.2,2.5,1.8.3.3.7.6,1,.9.2.2.4.4.6.7.2.2.5.7.7,1.4h0c.4,1.6.3,3.1-.3,4.5-.6,1.3-1.6,2.3-2.5,2.9-1.7,1.1-3.9,1.7-5.9,1.4l-1-.2-.8-.6c-1.5-1.2-3-2.4-4.5-3.5-1.4-1.1-2.9-2.3-4.4-3.4-3.1-1.7-4.7-2.3-5.6-2.4-.2,0-.3,0-.3,0,0,0,0,0,0,0,0,0,0,0,0,0,0,0,0,0,0,0,0,0-.2.1-.3.3-.7.7-1.3,1.8-2.5,3.9-.2.3-.4.6-.5.9-1.4,2.4-3.3,5.4-6.1,8.9h0c-7.4,9.2-18.8,18.5-29.1,24.2h0c-5,2.7-16,7.2-27,11.6-11.1,4.4-22.5,8.6-28.7,10.9h0c-45.2,16.5-93.2,31.3-140.4,41h0s0,0,0,0h0c-14,2.5-28,5-42,7.5h0s0,0,0,0c-1.3.2-2.6.4-3.9.6-4.8.7-10,1.5-15.1,1.9-6.6.5-13.4.4-19.8-1.4-2.2-.6-5.2-1.9-8.4-3.4-3.3-1.6-7-3.5-10.7-5.5-7.4-4-14.9-8.3-18.8-10.5-37.2-21.6-84.6-54.3-115.3-84.6-5.9-5.8-10.6-10.5-13.3-16.4-2.8-6-3.5-12.9-2.7-23h0c0-1.1.4-2.3.6-3.3,0-.3.2-.7.2-1,.2-.8.4-1.5.5-2.2.2-.8.3-1.4.3-1.9-1.2-.6-2.5-1.2-3.7-1.8h-.2c-1.7-.9-3.4-1.7-5.1-2.5-2-.3-3.9-.6-5.8-.9-2.1-.3-4.1-.6-6.3-1l-1.4-.2-1-1.1c-1.3-1.4-1.2-3.2-1.2-3.9,0-.9.3-1.7.6-2.4.3-.7.6-1.3.9-1.8.2-.3.4-.6.7-.9h0c.2-.2.8-.9,1.9-1.3l.8-.3h.8c4.2.4,8.4.7,12.5,1.1,3.5.3,6.9.6,10.4.8,0,0,0-.2.1-.3.6-1.3,1.2-3.2,1.8-5.1.6-2,1-4,1.3-5.5,0-.2,0-.3,0-.5-3.3-2.1-6.7-4.2-10-6.3-4-2.5-8.1-5-12.1-7.5l-2.4-1.5.6-2.8c.1-.6.2-.9.3-1.3,0-.4.2-.7.3-1.3l1-4.3,4.2,1.5c4.4,1.6,8.9,3.2,13.3,4.8,3.5,1.2,7,2.5,10.5,3.7,2.9-9.8,5.7-19.5,8.6-29.3,3.9-13.2,7.8-26.4,11.7-39.6-.5-47.5,1.6-87.6,14-134h0c0,0,0-.1,0-.1,2.5-8.3,5-16.6,7.5-25v-.3c0,0,.2-.3.2-.3,1-2.1,2.4-4,4.6-5.1,1.8-.8,3.8-.9,5.3-.9.1,0,.2,0,.3,0,0,0,0,0,0,0h.1s.2,0,.2,0h.2c4,.3,7.9.7,11.9,1h0c4,.3,7.9.7,11.9,1h0s0,0,0,0c23.2,2.9,48.9,10.4,70.1,20.1h.1c0,0,.1.1.1.1l32.4,17.7c37.7.4,75.1,5.3,112.2,10.2,2.6.3,5.2.7,7.8,1,1.7-1.7,3.4-3.4,5.2-5.2h0c2.2-2.2,4.3-4.4,6.5-6.5h.1c0-.1.1-.2.1-.2,11.4-9.5,29.7-18.7,48.4-26,18.8-7.3,38.6-12.9,53-14.9l25-2.4ZM28.8,284.2s0,0,0,0c0,0,0,0,0,0ZM32.1,270s0,0,0,0c0,0,0,0,0,0ZM36.2,255.9c0,0,0,0,0,0,0,0,0,0,0,0Z"/>
      <path class="cls-1" d="M341.5,71.8c7.5-.6-5.7,6.9,4.8,7.5,1.9,1.2-3.3,6-9.5,4.4-3.2,4.6-6.5,9.1-9.7,13.7-.3,3.3,9.7-2,13.3,1,5.4,4.6-12.5,2.7-15.8,5.2-2.1,1.6-8.2,17.3-9.3,18.4-2.8,2.9-9.7.3-8.7-5.2,1.3-2.5,2.6-5,4-7.5.4-3.3-4.3-2.1-5.5-5.2,5.5-3,7.9.8,13.5-7.9,9.6-15.1-5.5-1.8-8.5-1.8s-2.9-1.5-2.6-2.6c.6-2.1,18.4-9.2,21.2-10.9,3.1-1.9,9.1-8.8,13.1-9.1Z"/>
      <path class="cls-1" d="M349.4,158.2c22.1-1,47.3,10.4,60.8,27.9,18,23.5,14.4,45.1.8,69.7-19.6,35.6-59.5,46.5-96.5,31.1-47.2-19.7-41.3-83.2-4.4-112.9,10.9-8.8,25.1-15.2,39.2-15.8h0Z"/>
      <path class="cls-1" d="M160.4,182.7c17.7-1.3,32.4,6.9,39,23.6,16.5,41.6-25.9,79.3-58.8,52.1-27.3-22.6-21.5-72.6,19.8-75.7h0Z"/>
      <path class="cls-1" d="M173.5,301.2c9.3-1,32.8,7.7,42.4,11.5,3.2,1.3,31,11.8,19,16.2-9.5,2.5-19,5-28.5,7.5-10.4,3.6-17.9,12.2-18.8-12.9-.8-2.4-6.3-3.3-6.7-.4-.1.7,3.1,9-8.9.2-8.7-6.4-13.2-20.7,1.6-22.2h0Z"/>
    </g>
  </g>
</svg>