<svg width="43" height="95" viewBox="0 0 43 95" fill="none" xmlns="http://www.w3.org/2000/svg">
<path d="M10.3162 84.0908C9.96541 81.3163 16.9442 83.2084 18.059 84.1871C5.87622 62.4542 9.49918 35.2333 20.9951 14.29C22.5017 11.5458 28.9178 0.88943 31.6443 1.07368C36.1719 1.38046 28.0176 8.89991 23.9455 16.0471C12.8072 35.6075 9.21784 62.6608 21.1846 82.9051C21.0055 80.7303 24.4395 77.4184 25.9099 78.9454C27.4112 80.5039 23.0736 83.5597 28.2347 90.3611C24.122 94.6418 22.8717 91.0675 22.564 90.8931C18.4813 88.6245 14.3986 86.3559 10.3189 84.087L10.3162 84.0908Z" fill="black"/>
<path d="M4.71875 47.165C4.40701 39.1074 5.53164 30.8203 9.47802 24.0438C8.30599 31.8327 6.82427 39.6533 4.71875 47.165Z" fill="black"/>
</svg>
