<svg width="220" height="200" viewBox="0 0 220 200" fill="none" xmlns="http://www.w3.org/2000/svg">
<path d="M180.084 20.2121C184.822 20 186.532 20.0904 189.367 24.0725C190.682 25.9205 192.344 29.6231 193.145 31.7917C198.878 47.3122 198.038 69.4422 195.281 85.6664L195.116 89.4446L197.416 117.367C201.907 118.467 205.315 113.398 208.998 116.3C210.967 117.852 210.546 121.107 208.504 122.376C206.926 123.358 198.571 124.751 198.072 125.579L197.086 131.82C198.485 132.869 203.189 135.428 203.822 136.583C205.696 140.008 201.315 143.717 197.99 141.757C197.443 141.435 195.807 139.186 194.048 138.966C186.785 150.568 177.866 153.76 165.627 158.347C156.463 161.781 136.571 168.396 127.349 170.831C119.454 172.915 108.278 175.363 100.242 176.743C82.6038 179.773 81.9248 179.85 66.8925 171.158C54.065 163.739 35.2332 150.933 25.0002 140.442C19.1323 134.426 17.6707 131.718 19.1685 122.786C16.2501 120.926 9.45168 122.96 10.2968 117.53C11.0383 112.765 17.8565 114.649 21.0576 114.984C21.3223 114.922 22.1082 113.196 21.5508 112.52C20.7485 111.55 14.4745 109.432 13.5834 107.51C12.3766 104.904 14.8987 101.953 17.2794 102.172C18.1343 102.251 19.4003 103.341 20.2372 103.65C21.3765 104.071 24.5102 105.151 24.7552 104.717L31.3268 82.051C30.9766 67.0187 31.8496 51.9783 35.4338 37.3751C37.3574 33.2467 38.0332 22.4169 42.252 21.6885C45.44 21.1394 55.9032 22.7621 59.5022 23.4954C70.0279 25.641 80.5322 29.7826 89.4022 35.8149C102.629 36.0467 115.72 37.7615 128.83 39.2642C129.793 39.3744 130.803 39.8315 131.788 39.9219C134.384 37.2518 137.151 34.6673 140.331 32.6943C147.118 28.4837 164.309 22.2196 172.202 21.0325C173.363 20.8582 179.079 20.2565 180.087 20.2105L180.084 20.2121Z" fill="white"/>
<path d="M180.904 23.0055C184.398 22.8888 185.628 23.1156 188.051 27.3575C196.407 41.9902 195.19 70.2675 192.323 86.6529C192.53 97.9135 193.7 109.143 194.952 120.325C199.341 121.625 205.313 118.37 205.877 118.271C206.957 118.084 207.69 118.745 207.437 119.503C207.049 120.663 195.927 121.775 195.28 124.43L193.967 132.971C194.814 134.157 200.839 137.483 201.114 137.816C201.916 138.793 200.573 139.6 199.8 139.459C199.394 139.385 197.482 136.233 192.735 135.516C184.919 148.832 177.378 150.529 163.986 155.884C142.124 163.835 119.869 170.803 96.7941 174.444C91.375 175.299 84.7804 176.641 79.5439 174.773C78.028 174.232 69.3075 169.26 67.2228 168.039C56.3831 161.689 40.6274 150.935 31.4088 142.579C30.4042 141.669 24.6531 136.084 24.2618 135.599C20.5263 130.962 21.161 127.158 22.4549 121.637C18.2246 117.406 10.1322 119.905 14.1586 117.12C24.0711 117.776 23.078 120.234 25.0838 111.782C23.1701 109.585 17.1016 107.019 16.6232 106.608C15.7617 105.868 16.6906 104.973 16.7876 104.965C16.9619 104.949 17.2545 105.689 17.4452 105.787C17.7083 105.924 21.0393 106.813 22.3743 107.265C23.4693 107.637 25.9372 109.08 26.3992 108.497C27.2409 107.433 32.683 85.7634 34.2844 82.5442C33.8059 66.6028 34.7201 51.6544 38.7202 36.2259C39.0556 34.9336 41.3212 26.8462 41.5136 26.371C41.6534 26.0241 42.4425 24.5756 42.7451 24.4819C59.0087 24.8962 75.3103 29.5902 88.7444 38.771C95.1746 38.7217 101.56 39.3497 107.966 39.7558C116.336 40.9034 124.807 41.5019 133.101 43.0408C136.148 39.1656 140.084 35.9859 144.438 33.6792C148.854 31.3379 162.802 25.9846 167.602 24.8091C170.275 24.1547 178.219 23.0926 180.909 23.0022L180.904 23.0055Z" fill="black"/>
<path d="M147.309 109.566C154.208 110.335 152.988 116.251 145.831 115.315C143.727 115.04 139.588 113.299 139.753 111.783C139.978 109.707 145.736 109.39 147.309 109.566Z" fill="#F9F0EC"/>
<path d="M215.325 14.3004H215.16V14.1356L215.325 14.3004Z" fill="#D1D0D0"/>
<path d="M65.5021 91.3338C64.8921 93.3775 64.5731 95.0923 62.7909 96.5901C60.3214 94.4182 60.9166 91.1497 58.9305 93.8806C57.9835 95.1811 55.8921 99.6169 55.6455 101.19C55.6373 100.672 55.7623 100.612 55.3989 100.533C54.9764 100.441 48.4442 103.463 47.3493 103.653C46.7656 103.5 46.7738 99.7912 46.6094 99.1369C46.1803 97.4155 46.1096 100.643 46.1162 101.026C45.6492 98.1603 46.052 95.2189 46.9382 92.4847C47.1191 91.9241 47.244 91.3897 47.2671 91.3355C47.2753 91.3141 47.586 91.028 47.5959 91.0067C53.5525 90.8916 59.6062 90.1106 65.5021 91.3355V91.3338Z" fill="#5B2919"/>
<path d="M55.6449 106.609C55.5594 106.233 55.5199 106.009 55.4805 105.625C55.806 105.74 55.5857 106.373 55.6449 106.609Z" fill="#200F11"/>
<path d="M46.28 114.987C46.2256 114.932 46.1729 114.881 46.1152 114.822C46.1152 114.834 46.2981 114.781 46.28 114.987Z" fill="#F4D8DD"/>
<path d="M47.2688 91.3336C47.2458 91.3895 47.1209 91.9239 46.94 92.4829C45.4307 93.3411 45.7464 95.7267 45.1331 97.1637C44.7829 97.9825 41.7446 101.264 40.9439 102.502L40.6973 102.42V98.724C40.8584 97.0683 41.5292 92.5059 42.9152 92.154L47.2688 91.332V91.3336Z" fill="#EFB8AF"/>
<path d="M46.9424 92.4829C46.0562 95.2171 45.6534 98.1584 46.1203 101.024C46.1351 101.782 46.1581 102.244 46.2847 102.995C45.2127 102.474 46.5659 105.84 46.778 106.363C47.3929 107.877 48.8446 110.287 49.9001 111.537C49.5368 112.191 46.1335 114.462 46.1219 114.822C44.5206 113.15 43.9813 112.377 42.837 110.387C44.0323 110.764 41.7732 108.082 41.1945 106.118C40.5385 103.895 40.4777 101.029 40.7013 98.7257V102.422L40.9479 102.504C41.7486 101.266 44.7869 97.9842 45.1371 97.1654C45.7504 95.7284 45.4347 93.3428 46.944 92.4846L46.9424 92.4829Z" fill="#F4D8DD"/>
<path d="M55.6471 101.189C55.4696 102.315 55.3693 104.528 55.4827 105.623C55.126 105.496 54.3845 107.703 52.936 108.743C52.326 109.181 50.9976 109.674 50.2248 109.893C49.411 108.835 48.0677 105.958 47.7603 106.525C47.7899 106.904 47.9724 107.241 48.0891 107.592C47.3525 106.667 46.4729 104.127 46.2822 102.994C46.1556 102.242 46.1326 101.78 46.1178 101.022C46.1096 100.641 46.1803 97.412 46.611 99.1334C46.7738 99.7894 46.7672 103.497 47.3509 103.65C48.4459 103.459 54.9796 100.437 55.4005 100.529C55.7639 100.608 55.6389 100.669 55.6471 101.187V101.189Z" fill="#200F11"/>
<path d="M42.8342 110.387C42.7109 110.172 42.6764 110.233 42.6698 110.223C42.027 109.067 41.4795 107.855 41.0273 106.609L41.1918 106.116C41.7721 108.082 44.0295 110.764 42.8342 110.386V110.387Z" fill="#F2EDED"/>
<path d="M42.5053 110.552C41.943 111.303 40.9088 110.562 40.123 110.552C27.1935 110.395 27.8989 120.01 35.1939 124.349C40.3778 127.432 51.4641 129.356 57.1249 127.141V127.634C50.5878 130.432 36.6358 127.586 31.825 122.131C25.2189 114.639 33.3442 108.224 42.5036 110.552H42.5053Z" fill="#EFB8AF"/>
<path d="M42.8327 110.387C43.977 112.377 44.518 113.149 46.1177 114.821C46.1752 114.881 46.2278 114.932 46.2821 114.986C49.8942 118.644 54.3663 121.092 59.5074 121.885L59.7541 122.131C59.7458 122.98 59.8231 123.849 59.5897 124.676C59.2543 125.867 58.2086 126.717 57.1251 127.141C51.4644 129.354 40.3764 127.432 35.1941 124.349C27.8991 120.01 27.1922 110.395 40.1232 110.552C40.9091 110.562 41.9432 111.303 42.5055 110.552C42.517 110.537 42.7308 110.604 42.67 110.223C42.6749 110.233 42.7111 110.172 42.8344 110.387H42.8327Z" fill="#EFB8AF"/>
<path d="M83.4085 84.4351C83.7587 84.9136 85.0526 87.1068 85.3798 87.7201C87.8953 93.5255 88.4165 98.7472 87.0223 104.967C86.8595 105.488 86.5718 106.092 86.3646 106.609C84.5725 108.632 82.9941 107.593 81.5999 110.305C82.0258 110.85 82.2707 111.432 82.5864 112.03C82.7557 112.349 83.1618 112.017 83.0796 112.523C82.9119 112.76 82.7689 112.992 82.7508 113.017C82.7163 113.043 82.6275 112.992 82.5864 113.017C81.2645 113.804 78.7013 114.159 77.9039 114.495C76.9898 114.881 73.9662 117.216 70.6747 118.108C63.0986 120.164 54.9158 117.494 49.893 111.539C48.8391 110.289 47.3857 107.879 46.7708 106.364C46.5587 105.842 45.2055 102.476 46.2775 102.997C46.4682 104.13 47.3478 106.67 48.0844 107.596C49.0462 110.498 52.9346 114.016 55.5586 115.48C62.2223 119.199 71.3636 118.812 77.4896 114.166C78.6816 113.263 80.1958 111.458 81.1034 110.223C81.452 109.751 81.9583 109.257 82.2526 108.745C82.4187 108.456 82.2494 108.587 82.2526 108.581C82.4878 108.152 84.0283 104.931 84.0595 104.72C84.4065 102.451 75.0136 103.127 74.5318 104.885C74.1783 106.169 77.8365 107.637 78.8855 107.923C80.2304 108.291 81.7463 108.112 81.5966 108.581C80.0051 108.747 77.0293 107.931 75.6827 107.103C75.6087 107.057 74.4217 106.023 74.3691 105.953C73.9186 105.358 73.8183 105.089 74.2046 104.475C74.6486 103.77 76.3519 103.145 77.1624 102.997C78.9069 102.677 82.6407 102.742 84.2272 103.491C84.5709 103.653 85.3206 104.24 85.5409 104.558C86.3005 107.877 86.7921 102.92 86.6901 99.4657C86.478 98.4365 85.1644 98.3313 84.8832 97.4122C84.829 97.233 85.0033 96.919 84.7188 96.919C85.0329 92.8843 81.2662 86.8339 78.2295 84.2724C68.4387 76.0106 52.8096 79.2561 47.5912 91.0067C47.5813 91.0281 47.2706 91.3141 47.2624 91.3355L42.9087 92.1576C41.5227 92.5094 40.8519 97.0719 40.6908 98.7275C40.4672 101.029 40.528 103.897 41.184 106.12L41.0196 106.613C34.9758 89.9906 48.0877 73.0742 65.5796 74.4191C72.6625 74.9633 79.2439 78.7448 83.4035 84.4384L83.4085 84.4351Z" fill="white"/>
<path d="M55.4822 105.623C55.5217 106.009 55.5611 106.231 55.6466 106.608C55.8538 107.519 56.5608 108.479 56.7959 109.4C56.4802 109.033 56.2911 108.675 55.9738 108.333C59.2127 114.981 66.7412 116.903 72.813 112.193C73.2569 112.129 75.6063 113.913 76.1801 114.246C67.925 119.416 56.2402 117.711 50.2227 109.894C50.9954 109.676 52.3238 109.183 52.9338 108.745C54.3823 107.704 55.1238 105.498 55.4806 105.625L55.4822 105.623Z" fill="#19100D"/>
<path d="M50.2249 109.894C56.2408 117.712 67.9272 119.416 76.1824 114.246C75.6069 113.913 73.2575 112.129 72.8152 112.193C66.7435 116.903 59.215 114.981 55.9761 108.332C56.2934 108.674 56.4808 109.033 56.7981 109.4C58.1052 110.914 58.4932 111.137 60.0831 112.191C61.6237 113.212 61.354 113.316 63.3681 113.834C65.1832 114.301 65.7899 114.437 67.6395 113.998C68.3728 113.824 69.3823 113.324 70.1041 113.013C70.1468 112.995 70.6631 112.934 71.0083 112.849C72.7807 112.019 73.6274 110.172 75.0331 108.906C75.5741 109.143 75.5675 109.506 75.5264 110.056C71.8337 111.233 74.1683 113.188 77.1689 113.669C77.3727 113.911 77.5684 113.817 77.4977 114.163C71.37 118.809 62.2287 119.195 55.5667 115.476C52.9427 114.011 49.0527 110.495 48.0925 107.593C47.9758 107.239 47.7933 106.902 47.7637 106.526C48.0711 105.958 49.4144 108.836 50.2282 109.893L50.2249 109.894Z" fill="#030202"/>
<path d="M82.5866 113.015V113.18C79.517 117.093 74.6816 120.573 69.7723 121.721C67.2058 122.321 63.1514 122.349 60.4895 122.05C60.1212 122.148 60.3662 123.577 59.7497 125.17L59.5852 124.677C59.8187 123.85 59.7414 122.98 59.7497 122.132L59.503 121.885C54.3619 121.093 49.8915 118.645 46.2777 114.986C46.2958 114.781 46.1133 114.834 46.1133 114.822C46.1248 114.462 49.5281 112.191 49.8915 111.537C54.9143 117.492 63.0971 120.164 70.6732 118.107C73.9648 117.214 76.9867 114.88 77.9025 114.493C78.6982 114.158 81.2631 113.803 82.5849 113.015H82.5866Z" fill="#F9F0EC"/>
<path d="M59.752 125.17C59.1979 126.602 58.4778 127.054 57.123 127.634V127.141C58.2065 126.717 59.2522 125.867 59.5876 124.677L59.752 125.17Z" fill="#EFB8AF"/>
<path d="M133.597 45.8363C134.53 46.0681 132.084 47.8405 132.365 48.2186C133.666 48.2449 135.574 48.4965 133.761 49.7789C132.072 50.9726 131.144 49.8414 130.803 49.9433C130.479 50.0403 127.056 55.2752 127.107 55.6106C127.217 56.3373 129.277 54.6768 131.296 55.0352C131.339 55.0434 132.061 55.3278 132.119 55.364C134.96 57.1462 127.681 55.6189 125.958 57.9091C124.787 59.4645 123.941 65.5116 120.947 64.068C118.538 62.9073 122.088 58.7246 121.851 58.4007C120.491 58.5701 118.765 58.2955 119.386 57.2515C119.865 56.4475 121.363 57.4652 122.754 56.5116C123.15 56.2403 125.72 52.4112 125.629 52.1596C125.093 50.6898 121.665 54.8215 120.453 53.8843C118.609 52.4572 127.326 49.6688 128.174 49.1213C129.455 48.2943 130.266 45.9037 133.595 45.8363H133.597Z" fill="white"/>
<path d="M55.5605 60.1271C55.6197 60.1172 56.5602 60.3869 56.7098 60.4559C57.2277 60.691 64.2711 66.3156 65.7459 67.3547C68.7547 69.4739 71.8489 71.6097 74.9464 73.5958C76.7977 74.7845 85.6333 79.7349 86.1183 80.1657C87.3629 81.2705 84.4807 81.1522 83.8181 80.9878C83.6603 80.9483 82.0178 79.4916 81.518 79.1809C76.6382 76.1442 71.742 73.1634 67.0612 69.8192C65.0948 68.4151 56.7904 62.1494 55.725 61.1136C55.4389 60.8357 54.7253 60.2603 55.5605 60.1287V60.1271Z" fill="#FEFEFE"/>
<path d="M153.8 68.5037C155.903 68.3771 156.363 68.7964 154.949 69.3258C154.119 69.6365 148.37 70.526 146.406 70.9683C138.038 72.8541 129.645 75.0605 121.435 77.5382C119.857 78.015 111.321 81.1306 110.757 81.152C110.221 81.1717 109.787 80.9563 110.264 80.4943C112.011 78.8058 138.868 71.5815 143.12 70.6394C145.034 70.2152 152.6 68.5761 153.798 68.5037H153.8Z" fill="#FEFEFE"/>
<path d="M93.099 83.2861C92.3033 83.3453 91.3743 83.5705 90.6345 82.9573C90.207 79.6263 89.0578 75.756 92.4414 77.9476L93.099 83.2861Z" fill="#FDFDFD"/>
<path d="M153.064 112.851C152.825 112.839 152.907 113.083 152.899 113.344C152.898 113.398 152.906 113.456 152.899 113.508C152.618 113.507 152.787 113.809 152.735 114.002C152.713 114.081 152.623 114.329 152.57 114.495C152.523 114.643 152.459 114.839 152.406 114.988C152.35 115.148 152.297 115.345 152.242 115.481C152.233 115.503 151.992 115.794 151.913 115.81C151.9 115.705 151.913 115.59 151.913 115.481C151.913 115.427 151.911 115.371 151.913 115.317C152.161 115.329 152.056 115.085 152.077 114.824C152.082 114.77 152.074 114.714 152.077 114.659C152.294 114.673 152.232 114.513 152.242 114.331C152.246 114.222 152.233 114.11 152.242 114.002C152.459 114.015 152.398 113.855 152.406 113.673C152.409 113.619 152.403 113.563 152.406 113.508C152.651 113.527 152.559 113.216 152.57 112.851C152.57 112.797 152.57 112.741 152.57 112.686C152.829 112.7 152.712 112.382 152.735 112.029C152.863 110.089 153.2 108.16 153.064 106.197C152.848 105.418 148.554 103.77 148.299 102.501C148.248 102.513 148.184 102.485 148.135 102.501C145.785 83.2697 121.029 76.5485 108.542 90.4282C104.052 95.4198 103.587 100.351 103.286 100.859C103.279 100.868 103.237 100.89 103.122 101.023C102.926 101.247 101.305 101.102 100.986 106.197C100.822 108.818 101.343 112.211 102.3 114.656C102.166 115.496 101.902 114.533 101.642 113.998C99.7298 110.064 100.103 102.424 101.313 98.2296C103.477 90.734 110.027 83.6955 117.33 80.9827C135.746 74.1432 155.277 88.1149 154.047 107.838C153.938 109.571 153.414 111.192 153.06 112.848L153.064 112.851Z" fill="white"/>
<path d="M84.7214 96.9192C84.7033 97.1609 84.7346 97.4141 84.7214 97.6591L84.4748 97.7413C82.3769 95.6154 77.6467 93.6737 74.7005 93.1427C74.245 92.3025 67.5255 83.1875 66.8974 83.6166L65.9932 90.762C65.8962 91.1533 65.5114 91.3013 65.4999 91.3374C59.6024 90.1126 53.5504 90.8935 47.5938 91.0086C52.8122 79.258 68.4429 76.0125 78.232 84.2743C81.2687 86.8375 85.0354 92.8862 84.7214 96.9209V96.9192Z" fill="black"/>
<path d="M90.6346 82.9573C91.3728 83.5706 92.3018 83.3454 93.0992 83.2862C94.6035 83.1744 95.8892 82.7814 97.6172 83.1218C98.9703 83.3881 105.984 86.4199 106.242 87.6382C105.063 89.9054 103.14 91.9326 102.135 94.2903C100.902 92.6412 87.6834 89.1623 87.1852 89.9383C87.3513 91.0004 87.4861 92.0872 87.6785 93.1411L87.5141 93.3055C87.1162 91.3358 86.3122 89.4763 85.3783 87.7204C85.0512 87.1071 83.7572 84.9138 83.407 84.4354C84.5168 84.71 81.7547 81.8936 81.3535 80.4928C85.4984 82.8028 87.2757 80.0522 90.6363 82.9573H90.6346Z" fill="#19100D"/>
<path d="M148.134 102.503C148.109 102.511 148.303 102.917 147.723 102.831C147.353 102.777 144.028 101.02 143.122 100.696C139.27 99.3162 135.277 98.4416 131.212 97.9039C129.555 94.3937 122.61 85.3921 121.602 85.2573C121.468 85.2392 121.265 85.2162 121.191 85.3395C120.983 89.731 120.565 93.6325 118.562 97.5768L114.949 97.9056C113.214 95.1369 113.359 95.1566 111.335 98.5632C109.544 99.1716 107.622 99.4363 105.832 100.041C104.402 100.525 103.29 101.491 103.285 100.863C103.588 100.355 104.051 95.4246 108.541 90.433C121.029 76.5533 145.784 83.2729 148.134 102.506V102.503Z" fill="black"/>
<path d="M74.6999 93.141C75.0402 93.7675 76.372 97.0343 76.5068 97.6575C76.9902 99.8984 76.5561 102.393 77.1644 102.996C76.3539 103.144 74.6506 103.769 74.2067 104.474C73.5868 103.918 73.6148 101.991 73.0574 100.449C72.796 99.7258 72.0348 98.3513 71.4971 97.7397C71.1009 97.9583 72.6727 99.7192 71.4149 101.929C71.2505 102.218 70.6668 102.925 70.3479 102.996C67.839 103.558 69.5456 98.5979 66.9807 95.1946C64.434 91.8142 67.2125 97.1642 64.6806 101.6C64.5195 101.883 63.0693 103.724 62.9559 103.654C62.7981 103.141 62.8392 102.236 62.7093 101.764C61.8625 98.6752 61.9908 102.197 61.7228 103.078C61.1063 105.114 57.4842 106.521 60.0803 112.195C58.4904 111.139 58.1024 110.917 56.7954 109.403C56.5586 108.482 55.8516 107.522 55.6461 106.611C55.5869 106.373 55.8072 105.74 55.4817 105.627C55.3683 104.53 55.4685 102.317 55.6461 101.192C55.8927 99.6205 57.9841 95.1847 58.9311 93.8825C60.9188 91.1533 60.322 94.4202 62.7915 96.5921C64.5721 95.0943 64.8927 93.3794 65.5026 91.3358C65.5142 91.2996 65.8972 91.1533 65.9959 90.7603L66.9002 83.615C67.5282 83.1875 74.2478 92.3025 74.7032 93.141H74.6999Z" fill="#BF4934"/>
<path d="M131.214 97.9039C131.896 99.3491 132.832 101.432 133.021 102.996C133.04 103.155 133.006 103.328 133.021 103.489C133.131 104.679 132.94 106.052 133.021 107.267C132.8 109.051 132.338 111.008 131.707 112.688C131.485 113.28 130.41 115.412 130.064 115.973C129.632 116.522 128.69 117.3 128.258 117.944C127.159 118.774 126.365 119.072 125.135 119.587C130.85 115.203 130.72 108.201 127.271 102.34C127.255 102.312 127.307 102.159 127.107 102.175C127.092 102.119 127.126 102.049 127.107 102.011C127 101.801 126.969 101.87 126.942 101.847C126.934 101.838 127.01 101.759 126.778 101.682C126.761 101.677 126.743 101.343 126.449 101.6C126.38 102.08 126.607 101.99 126.613 102.011C126.673 102.241 126.775 102.164 126.778 102.175C126.924 102.549 126.937 102.486 126.942 102.504C126.99 102.718 126.832 103.002 127.107 102.997C127.805 106.153 125.512 108.716 124.231 107.76C123.712 107.372 123.348 100.651 121.191 98.3166C118.32 95.2076 122.602 103.764 116.837 108.418C116.788 108.04 116.181 104.614 115.688 104.969C115.877 111.024 109.353 111.452 113.799 118.931C111.974 117.795 109.958 116.33 109.034 114.332C108.002 112.096 107.777 108.028 108.212 105.626C108.512 103.979 110.425 100.092 111.335 98.5632C113.359 95.1566 113.214 95.1385 114.948 97.9056C114.988 97.9681 115.029 98.7375 115.442 99.3014C117.063 101.513 117.87 98.9414 118.564 97.5768C120.566 93.6325 120.984 89.731 121.193 85.3395C121.267 85.2162 121.467 85.2392 121.604 85.2573C122.613 85.3938 129.556 94.3937 131.214 97.9039Z" fill="#BF4934"/>
<path d="M87.5146 93.3051C88.2939 97.159 88.1854 101.233 87.0214 104.967C88.4156 98.7488 87.8944 93.5254 85.3789 87.72C86.3128 89.476 87.1167 91.3355 87.5146 93.3051Z" fill="#200F11"/>
<path d="M102.134 94.2901C101.746 95.2009 100.876 97.4468 101.312 98.2327C100.102 102.425 99.7271 110.067 101.641 114.001C102.169 116.205 103.315 118.686 104.599 120.571C104.574 122.181 107.206 124.69 108.541 125.992C101.768 132.274 94.147 135.102 84.8018 134.205C84.5058 134.177 83.567 133.999 83.5703 133.711C83.6081 133.696 83.6723 133.719 83.7347 133.711C83.858 133.695 83.9172 133.692 83.8991 133.547C85.2621 132.051 90.7469 130.441 92.7709 128.702L92.442 128.619C93.4384 128.075 93.542 128.047 93.4285 126.813C93.7721 127.357 93.4565 127.99 93.6751 128.126C94.1733 127.86 94.096 127.852 94.0862 127.304C94.3114 127.263 94.2193 127.644 94.3328 127.633C95.1844 127.547 100.326 123.253 101.643 121.638C104.227 118.472 102.756 119.557 101.149 115.069C99.6055 110.758 99.2076 105.97 99.8357 101.435C99.6334 100.276 88.8776 96.4094 88.4994 97.0012L88.335 99.7108C88.529 96.115 88.1821 95.9095 87.6773 93.1408C87.485 92.0869 87.3502 90.9985 87.1841 89.9381C87.6823 89.162 100.901 92.641 102.134 94.2901Z" fill="#200F11"/>
<path d="M84.7199 96.9194C85.0043 96.9194 84.83 97.2334 84.8843 97.4126C84.8169 99.4497 84.9172 101.546 84.2266 103.489C82.6417 102.743 78.9062 102.677 77.1618 102.996C76.5551 102.393 76.9875 99.8985 76.5042 97.6576C76.3693 97.0345 75.036 93.7659 74.6973 93.1412C77.6452 93.6722 82.3737 95.6139 84.4716 97.7398L84.7182 97.6576C84.7314 97.4126 84.7001 97.1611 84.7182 96.9177L84.7199 96.9194Z" fill="#5B291A"/>
<path d="M88.3358 99.7111C87.7982 109.699 81.3812 117.699 72.4009 121.639C75.5396 122.234 94.0179 123.682 94.087 127.306C94.0968 127.854 94.1757 127.862 93.6759 128.128C93.4573 127.992 93.7729 127.359 93.4293 126.815C93.237 126.51 92.4905 126.349 92.4428 126.321C88.617 124.052 75.5938 122.398 71.0856 122.872C70.2619 122.959 69.4448 123.12 68.6211 123.201C69.4136 122.824 70.1107 122.865 70.9212 122.625L69.772 121.723C74.6813 120.575 79.5151 117.096 82.5863 113.181C82.5929 113.172 82.6274 113.181 82.7507 113.017C82.9414 112.872 83.1585 112.853 83.0795 112.524C83.5218 111.901 83.7997 111.595 84.2288 110.881C85.0476 109.525 85.7759 108.083 86.3645 106.612C86.5717 106.094 86.8594 105.49 87.0221 104.969C88.1862 101.235 88.2931 97.1611 87.5154 93.3072L87.6798 93.1428C88.1845 95.9115 88.5298 96.117 88.3375 99.7127L88.3358 99.7111Z" fill="#1A110E"/>
<path d="M74.2054 104.474C73.819 105.087 73.9193 105.357 74.3698 105.952C74.2547 105.952 74.1133 105.9 74.041 106.034C73.7713 106.534 74.0804 109.832 70.0983 113.015C69.3766 113.326 68.3671 113.828 67.6338 114C68.2224 113.375 69.1102 112.802 69.4407 111.947C70.4436 109.352 68.8521 105.171 66.8939 103.323L66.6473 103.405C66.7279 106.164 65.7743 110.883 63.7717 107.43C63.4183 107.435 61.2069 112.581 63.3607 113.836C61.3467 113.318 61.6163 113.214 60.0758 112.193C57.4813 106.521 61.1017 105.114 61.7182 103.077C61.9846 102.195 61.858 98.672 62.7047 101.763C62.8346 102.235 62.7935 103.139 62.9513 103.652C63.0648 103.724 64.5149 101.881 64.676 101.599C67.208 97.1627 64.4278 91.8127 66.9761 95.193C69.541 98.5964 67.836 103.557 70.3433 102.994C70.6623 102.924 71.2459 102.217 71.4104 101.927C72.6681 99.7177 71.0963 97.9584 71.4926 97.7381C72.0318 98.3497 72.7914 99.7242 73.0528 100.448C73.6102 101.99 73.5839 103.917 74.2021 104.472L74.2054 104.474Z" fill="#D47A40"/>
<path d="M94.0825 127.306C94.0151 123.684 75.5351 122.235 72.3965 121.639C81.3767 117.699 87.7954 109.699 88.3314 99.7109L88.4958 97.0013C88.8723 96.4094 99.6298 100.276 99.832 101.436C99.204 105.97 99.6035 110.756 101.146 115.069C102.752 119.557 104.223 118.472 101.639 121.639C100.32 123.255 95.1808 127.548 94.3291 127.633C94.2157 127.645 94.3078 127.265 94.0825 127.304V127.306Z" fill="#3E181B"/>
<path d="M84.2285 103.489C84.919 101.546 84.8171 99.4497 84.8862 97.4126C85.169 98.3317 86.4826 98.4352 86.6931 99.4661C86.7934 102.92 86.3034 107.877 85.5438 104.558C85.3235 104.241 84.5738 103.652 84.2302 103.491L84.2285 103.489Z" fill="#EEB8AF"/>
<path d="M118.561 97.5751C117.869 98.9397 117.061 101.511 115.439 99.2998C115.026 98.7358 114.985 97.9664 114.945 97.9039L118.559 97.5751H118.561Z" fill="#5C2A1A"/>
<path d="M127.105 102.996C126.97 102.384 126.949 102.527 126.941 102.502C126.839 102.044 126.781 102.192 126.776 102.174C126.684 101.939 126.615 102.021 126.612 102.009C126.571 101.851 126.561 101.717 126.776 101.68C126.788 101.679 126.887 101.792 126.941 101.845C126.949 101.853 126.906 102.027 127.105 102.009C127.125 102.047 127.09 102.118 127.105 102.174C127.127 102.253 127.087 102.354 127.27 102.338C130.719 108.199 130.849 115.202 125.134 119.585C124.22 119.968 123.306 120.331 122.341 120.57C126.078 118.459 124.804 113.189 122.998 110.139C119.763 104.671 121.956 112.244 119.876 114.246C119.003 115.087 118.373 113.428 117.987 113.344C116.974 113.123 115.894 118.046 116.098 119.011C116.28 119.876 117.444 120.474 118.234 120.736C115.685 120.31 115.869 120.22 113.798 118.929C109.354 111.45 115.876 111.022 115.687 104.967C116.18 104.612 116.788 108.038 116.836 108.416C122.6 103.762 118.319 95.2058 121.19 98.3149C123.345 100.65 123.709 107.372 124.23 107.759C125.51 108.712 127.804 106.151 127.105 102.996Z" fill="#D47A40"/>
<path d="M148.134 102.503C148.182 102.486 148.248 102.514 148.299 102.503C148.438 104.301 148.67 107.285 148.134 108.908C145.042 108.65 141.906 109.03 139.345 110.879L133.842 107.512C133.742 106.126 133.76 103.851 133.02 102.996C132.831 101.432 131.895 99.3492 131.213 97.9041C135.277 98.4417 139.271 99.3164 143.123 100.696C144.029 101.02 147.353 102.776 147.723 102.831C148.302 102.917 148.11 102.511 148.134 102.503Z" fill="#5B2919"/>
<path d="M108.212 105.623C108.317 104.055 105.627 108.142 102.955 107.923C102.658 105.026 102.666 104.032 103.12 101.025C103.235 100.891 103.278 100.87 103.284 100.86C103.289 101.488 104.4 100.521 105.831 100.038C107.621 99.433 109.545 99.1683 111.334 98.56C110.426 100.089 108.511 103.976 108.212 105.623Z" fill="#5B291A"/>
<path d="M102.959 107.924C102.959 107.924 102.934 107.891 102.959 108.088C103.113 109.324 103.268 110.671 103.616 111.866C103.097 112.501 103.914 114.291 103.945 114.74C104.159 117.831 103.343 117.317 102.303 114.658C101.346 112.213 100.825 108.82 100.989 106.199C101.308 101.104 102.929 101.249 103.125 101.025C102.671 104.032 102.663 105.027 102.96 107.924H102.959Z" fill="#F4D8DD"/>
<path d="M126.777 101.682C126.562 101.718 126.572 101.852 126.613 102.011C126.606 101.99 126.38 102.082 126.449 101.6C126.743 101.343 126.761 101.677 126.777 101.682Z" fill="#CE6E3D"/>
<path d="M126.942 101.847C126.888 101.794 126.789 101.68 126.777 101.682C127.01 101.759 126.934 101.839 126.942 101.847Z" fill="#CE6E3D"/>
<path d="M127.106 102.012C126.907 102.03 126.95 101.855 126.941 101.847C126.968 101.87 126.999 101.801 127.106 102.012Z" fill="#CE6E3D"/>
<path d="M126.776 102.176C126.773 102.164 126.671 102.242 126.611 102.011C126.615 102.023 126.684 101.94 126.776 102.176Z" fill="#CE6E3D"/>
<path d="M126.942 102.503C126.937 102.485 126.924 102.549 126.777 102.174C126.782 102.192 126.84 102.044 126.942 102.503Z" fill="#CE6E3D"/>
<path d="M127.268 102.339C127.085 102.355 127.125 102.253 127.104 102.174C127.305 102.157 127.252 102.309 127.268 102.339Z" fill="#CE6E3D"/>
<path d="M127.105 102.996C126.83 103.001 126.988 102.718 126.94 102.502C126.947 102.527 126.97 102.384 127.105 102.996Z" fill="#CE6E3D"/>
<path d="M152.735 112.03C152.493 112.011 152.577 112.323 152.57 112.688C152.57 112.742 152.57 112.798 152.57 112.852C152.314 112.838 152.427 113.152 152.406 113.51C152.403 113.564 152.409 113.62 152.406 113.674C152.184 113.663 152.255 113.827 152.242 114.003C152.233 114.112 152.246 114.224 152.242 114.332C152.02 114.321 152.09 114.485 152.077 114.661C152.074 114.715 152.082 114.771 152.077 114.825C151.837 114.814 151.923 115.057 151.913 115.319C151.911 115.373 151.913 115.429 151.913 115.483C150.515 117.194 149.976 120.905 147.806 120.082C148.143 119.804 148.493 119.294 148.463 118.85C148.31 116.593 144.751 116.557 143.207 116.632C144.189 116.178 146.293 117.033 145.836 115.319C152.995 116.254 154.213 110.34 147.314 109.569C148.34 109.671 148.054 109.161 148.136 108.911C148.672 107.287 148.44 104.305 148.301 102.506C148.555 103.775 152.85 105.423 153.065 106.202C153.202 108.165 152.865 110.092 152.736 112.034L152.735 112.03Z" fill="#EFB8AF"/>
<path d="M148.134 108.91C148.052 109.16 148.338 109.669 147.312 109.567C145.737 109.392 139.981 109.709 139.756 111.785C139.591 113.3 143.73 115.042 145.834 115.317C146.291 117.032 144.188 116.178 143.205 116.631C142.299 116.675 141.245 116.67 140.412 117.124C139.797 116.501 138.546 117.867 138.769 118.684C138.87 119.047 140.882 120.604 141.398 120.82C141.002 121.277 140.525 121.647 140.085 122.051L131.213 115.153C131.236 115.113 131.192 115.032 131.213 114.988C131.468 114.998 131.338 114.763 131.377 114.659C131.384 114.643 131.419 114.778 131.542 114.33C131.555 114.279 131.53 114.219 131.542 114.166C131.693 114.184 131.685 114.12 131.706 114.002C131.724 113.901 131.683 113.762 131.706 113.673C131.772 113.423 132.076 112.941 132.035 112.606L131.706 112.688C132.338 111.008 132.801 109.051 133.02 107.267C133.173 106.023 133.383 104.727 133.02 103.489C133.005 103.328 133.04 103.155 133.02 102.996C133.758 103.851 133.742 106.126 133.842 107.512L139.345 110.879C141.906 109.03 145.042 108.65 148.134 108.908V108.91Z" fill="#3E181B"/>
<path d="M67.6356 114.002C65.786 114.441 65.1793 114.304 63.3642 113.837C61.2104 112.583 63.4217 107.437 63.7752 107.432C65.7761 110.885 66.7314 106.166 66.6508 103.407L66.8974 103.325C68.8556 105.173 70.4471 109.354 69.4442 111.948C69.1137 112.802 68.2242 113.377 67.6373 114.002H67.6356Z" fill="#FAF4A5"/>
<path d="M82.2579 108.581C82.0425 108.596 81.814 108.558 81.6003 108.581C81.7515 108.114 80.234 108.292 78.8891 107.923C77.8418 107.636 74.1836 106.167 74.5355 104.885C75.0188 103.127 84.4117 102.453 84.0632 104.721C84.0303 104.931 82.4914 108.152 82.2563 108.581H82.2579Z" fill="#F4D8DD"/>
<path d="M133.019 107.267C132.938 106.052 133.129 104.68 133.019 103.489C133.382 104.727 133.171 106.023 133.019 107.267Z" fill="#5B2919"/>
<path d="M108.213 105.623C107.778 108.024 108.001 112.093 109.035 114.329C108.419 114.424 109.03 116.565 107.146 117.614C106.022 115.998 104.601 113.296 104.764 114.658C104.414 113.862 103.845 112.657 103.615 111.866C103.266 110.671 103.112 109.326 102.957 108.088V107.923C105.63 108.142 108.319 104.055 108.213 105.623Z" fill="#3E181B"/>
<path d="M74.3727 105.952C74.4253 106.021 75.6124 107.055 75.6864 107.101L75.0287 108.908C73.623 110.174 72.7762 112.02 71.0039 112.851C70.6586 112.936 70.1424 112.997 70.0996 113.015C74.0817 109.832 73.7726 106.534 74.0422 106.034C74.1146 105.899 74.256 105.954 74.3711 105.952H74.3727Z" fill="#BF4A34"/>
<path d="M84.2286 110.88C83.9606 109.796 83.4772 111.97 82.5861 112.029C82.2704 111.43 82.0254 110.848 81.5996 110.304C82.9938 107.591 84.5705 108.63 86.3643 106.608C85.7757 108.08 85.0473 109.523 84.2286 110.878V110.88Z" fill="#EEB8AF"/>
<path d="M81.5992 108.581C81.813 108.558 82.0415 108.596 82.2569 108.581V108.746C81.9626 109.257 81.4545 109.752 81.1076 110.224C79.6641 109.589 78.2025 109.689 76.6718 109.895C76.2344 109.954 76.0947 109.877 75.5225 110.059C75.5636 109.51 75.5719 109.147 75.0293 108.91L75.6869 107.103C77.0335 107.932 80.0094 108.747 81.6009 108.581H81.5992Z" fill="#221113"/>
<path d="M102.956 108.088C102.932 107.892 102.956 107.932 102.956 107.924V108.088Z" fill="#5B291A"/>
<path d="M122.342 120.572C121.387 120.809 121.176 121.055 121.111 121.065C119.919 121.226 119.167 120.892 118.235 120.736C117.446 120.475 116.282 119.876 116.099 119.011C115.895 118.046 116.976 113.124 117.988 113.344C118.375 113.428 119.004 115.087 119.877 114.247C121.957 112.244 119.762 104.671 123 110.14C124.805 113.19 126.081 118.459 122.342 120.57V120.572Z" fill="#FAF4A5"/>
<path d="M82.2559 108.746V108.581C82.2559 108.581 82.4223 108.456 82.2559 108.746Z" fill="#F4D8DD"/>
<path d="M81.1066 110.224C80.1991 111.457 78.6832 113.262 77.4928 114.166C77.5635 113.823 77.3679 113.915 77.164 113.673C76.365 112.728 75.5528 112.94 74.7817 112.359C72.475 110.621 77.1328 110.64 76.6708 109.895C78.2015 109.689 79.6631 109.587 81.1066 110.224Z" fill="#F4D8DD"/>
<path d="M76.6699 109.895C77.1319 110.638 72.4741 110.621 74.7808 112.359C75.5503 112.939 76.3641 112.727 77.1631 113.673C74.161 113.191 71.828 111.236 75.5207 110.059C76.0928 109.876 76.2326 109.954 76.6699 109.895Z" fill="#F1E8E5"/>
<path d="M144.276 110.059C145.343 109.951 146.625 110.138 147.725 110.059C148.345 110.319 146.581 114.918 146.247 114.987C142.102 114.526 136.726 110.82 144.276 110.059Z" fill="#F4D8DD"/>
<path d="M84.2265 110.879C83.7957 111.593 83.5178 111.899 83.0772 112.522C83.1594 112.015 82.7533 112.349 82.584 112.029C83.4751 111.968 83.9585 109.796 84.2265 110.879Z" fill="#F0E3DE"/>
<path d="M104.763 114.658C105.406 116.116 106.106 117.477 107.063 118.765C105.914 118.827 109.696 122.622 110.595 123.363C117.175 128.782 126.842 130.239 134.744 126.977C136.131 126.403 137.782 125.297 139.097 124.513L143.698 126.977C138.588 130.949 132.082 132.727 125.627 132.398C122.587 132.243 118.582 131.436 115.935 129.933C119.125 131.23 121.405 131.694 124.807 132.069C124.82 132.079 124.844 132.406 125.135 132.151C125.055 132.011 124.923 132.082 124.807 132.069C123.738 131.301 119.68 130.759 117.824 130.098C111.006 127.673 106.981 122.316 106.325 122.05C106.208 122.002 105.898 122.009 105.914 122.214C105.48 121.688 104.982 121.132 104.6 120.572C103.318 118.686 102.17 116.205 101.643 114.002C101.902 114.536 102.167 115.499 102.3 114.659C103.343 117.318 104.156 117.832 103.943 114.741C103.911 114.291 103.094 112.502 103.614 111.868C103.844 112.66 104.413 113.865 104.763 114.659V114.658Z" fill="#F9F0EC"/>
<path d="M152.567 112.687C152.574 112.322 152.49 112.011 152.732 112.029C152.709 112.382 152.826 112.7 152.567 112.687Z" fill="#EAE4E2"/>
<path d="M82.75 113.015C82.7681 112.992 82.9095 112.759 83.0788 112.522C83.1577 112.851 82.9407 112.869 82.75 113.015Z" fill="#F0E3DE"/>
<path d="M131.707 113.673L131.543 113.426C131.237 114.444 130.702 115.161 130.064 115.972C130.41 115.411 131.485 113.278 131.707 112.687L132.036 112.604C132.077 112.941 131.773 113.422 131.707 113.671V113.673Z" fill="#200F11"/>
<path d="M152.406 113.509C152.427 113.15 152.313 112.836 152.57 112.851C152.56 113.214 152.651 113.527 152.406 113.509Z" fill="#EAE4E2"/>
<path d="M152.898 113.344C152.906 113.083 152.824 112.839 153.062 112.851C153.016 113.07 153.171 113.349 152.898 113.344Z" fill="#EAE4E2"/>
<path d="M82.584 113.18V113.015C82.6252 112.99 82.7142 113.041 82.7488 113.015C82.6252 113.178 82.5906 113.17 82.584 113.18Z" fill="#F0E3DE"/>
<path d="M131.705 113.673C131.682 113.762 131.723 113.9 131.705 114.002C131.54 113.984 131.563 114.062 131.54 114.166C131.529 114.219 131.554 114.279 131.54 114.33C131.284 114.321 131.415 114.564 131.376 114.659C131.361 114.694 131.263 114.884 131.212 114.988C131.19 115.032 131.235 115.111 131.212 115.152C130.94 115.619 128.957 117.808 128.911 118.026C128.78 118.654 136.706 123.753 137.208 123.858C137.952 124.014 139.468 122.614 140.083 122.051C140.526 121.647 141.001 121.275 141.397 120.82C140.881 120.604 138.868 119.049 138.768 118.684C138.544 117.867 139.797 116.501 140.41 117.124C137.875 118.503 140.412 119.468 141.724 120.08C142.041 120.228 142.505 120.305 142.546 120.491C142.369 120.726 142.232 120.997 142.053 121.231C141.711 121.675 138.174 124.458 137.535 124.845C127.591 130.844 113.94 128.011 107.061 118.768C106.104 117.482 105.404 116.119 104.761 114.661C104.598 113.3 106.019 116.001 107.143 117.617C109.027 116.568 108.416 114.427 109.032 114.332C109.956 116.33 111.972 117.795 113.797 118.931C115.869 120.221 115.684 120.312 118.233 120.738C119.165 120.894 119.915 121.228 121.108 121.066C121.174 121.058 121.385 120.81 122.34 120.573C123.305 120.335 124.219 119.97 125.133 119.588C126.361 119.074 127.156 118.776 128.255 117.946C129.321 117.14 129.355 117.121 130.062 115.975C130.7 115.162 131.236 114.447 131.54 113.429L131.705 113.676V113.673Z" fill="#19100D"/>
<path d="M152.734 114.002C152.787 113.809 152.617 113.507 152.898 113.508C152.808 114.169 152.741 113.975 152.734 114.002Z" fill="#EAE4E2"/>
<path d="M152.242 114.002C152.253 113.826 152.184 113.661 152.406 113.673C152.398 113.855 152.459 114.013 152.242 114.002Z" fill="#EAE4E2"/>
<path d="M131.541 114.165C131.564 114.061 131.541 113.982 131.706 114C131.684 114.119 131.693 114.183 131.541 114.165Z" fill="#200F11"/>
<path d="M152.568 114.493C152.621 114.327 152.711 114.079 152.733 114C152.591 114.582 152.575 114.469 152.568 114.493Z" fill="#EAE4E2"/>
<path d="M131.377 114.658C131.416 114.564 131.285 114.319 131.541 114.329C131.418 114.776 131.384 114.64 131.377 114.658Z" fill="#200F11"/>
<path d="M152.076 114.658C152.087 114.482 152.018 114.318 152.24 114.329C152.23 114.512 152.293 114.669 152.076 114.658Z" fill="#EAE4E2"/>
<path d="M152.406 114.987C152.459 114.839 152.523 114.643 152.571 114.493C152.515 114.686 152.472 114.804 152.406 114.987Z" fill="#EAE4E2"/>
<path d="M131.213 114.987C131.264 114.885 131.363 114.694 131.377 114.658C131.338 114.76 131.468 114.996 131.213 114.987Z" fill="#200F11"/>
<path d="M151.913 115.315C151.923 115.054 151.838 114.81 152.078 114.822C152.056 115.083 152.162 115.325 151.913 115.315Z" fill="#EAE4E2"/>
<path d="M152.242 115.48C152.298 115.344 152.351 115.146 152.407 114.987C152.347 115.153 152.318 115.286 152.242 115.48Z" fill="#EAE4E2"/>
<path d="M140.084 122.05C139.47 122.612 137.953 124.013 137.208 123.857C136.707 123.751 128.78 118.655 128.912 118.025C128.958 117.804 130.941 115.616 131.212 115.151L140.084 122.05Z" fill="#200F11"/>
<path d="M151.912 115.807C151.928 115.93 151.933 115.989 152.076 115.971C150.978 118.554 148.882 121.961 146.983 124.019C146.833 124.182 143.989 126.75 143.698 126.975L139.098 124.511C139.126 124.494 139.279 124.547 139.262 124.346C140.737 123.376 143.46 121.001 142.055 121.226C142.235 120.992 142.371 120.723 142.549 120.486C142.509 120.3 142.044 120.223 141.727 120.075C142.769 119.764 139.06 118.954 140.331 117.775C141.345 116.833 145.102 116.862 145.013 117.528C144.89 118.449 140.055 121.537 145.589 120.895C146.085 120.838 147.407 120.404 147.807 120.073C149.977 120.897 150.516 117.186 151.914 115.475C151.914 115.583 151.9 115.698 151.914 115.804L151.912 115.807Z" fill="#F4D8DD"/>
<path d="M152.077 115.971C151.933 115.989 151.929 115.93 151.912 115.807C151.991 115.792 152.233 115.499 152.241 115.478C152.19 115.608 152.182 115.721 152.077 115.971Z" fill="#EAE4E2"/>
<path d="M128.258 117.943C128.69 117.298 129.632 116.52 130.065 115.971C129.358 117.117 129.323 117.137 128.258 117.943Z" fill="#200F11"/>
<path d="M143.208 116.629C144.754 116.552 148.313 116.589 148.464 118.847C148.494 119.291 148.144 119.8 147.807 120.078C147.407 120.409 146.085 120.843 145.589 120.9C140.055 121.542 144.892 118.454 145.013 117.533C145.102 116.867 141.347 116.838 140.331 117.78C139.06 118.959 142.769 119.769 141.727 120.08C140.415 119.468 137.878 118.503 140.413 117.124C141.247 116.67 142.301 116.677 143.207 116.631L143.208 116.629Z" fill="#F9F0EC"/>
<path d="M107.064 118.765C113.944 128.008 127.595 130.841 137.537 124.841C138.177 124.455 141.713 121.672 142.055 121.228C143.461 121.002 140.737 123.38 139.262 124.348L139.098 124.513C137.782 125.295 136.132 126.403 134.744 126.977C126.842 130.239 117.175 128.782 110.595 123.363C109.696 122.622 105.913 118.827 107.064 118.765Z" fill="#FDFDFD"/>
<path d="M124.806 132.069C121.404 131.694 119.123 131.231 115.934 129.933C111.98 128.325 108.627 125.503 105.913 122.214C105.895 122.009 106.207 122.002 106.324 122.05C106.982 122.316 111.005 127.673 117.823 130.098C119.679 130.759 123.737 131.301 124.806 132.069Z" fill="#FCFBFA"/>
<path d="M92.4432 126.319L92.1143 126.648C89.7879 125.053 75.8621 122.982 72.3174 123.692C73.8284 125.198 82.7609 131.628 83.8986 131.904C82.4239 132.597 80.7912 134.871 79.0518 134.532C75.969 133.933 77.0739 126.407 72.7268 129.769C72.8353 129.765 72.9471 129.775 73.0556 129.769C72.8994 130.203 72.4259 129.978 72.5624 130.591C72.2549 130.448 72.4933 130.19 72.3158 130.098C71.7272 131.752 68.0016 128.899 67.4689 128.044C66.8491 127.048 66.8441 125.626 67.7155 124.841C69.0966 123.598 73.3532 123.623 71.0827 122.87C75.5909 122.397 88.614 124.051 92.4399 126.319H92.4432Z" fill="#F9F0EC"/>
<path d="M71.0871 122.87C73.3576 123.623 69.0993 123.598 67.7199 124.841C66.8485 125.626 66.8534 127.048 67.4733 128.044C68.0043 128.899 71.7315 131.752 72.3201 130.098C72.4977 130.19 72.2593 130.448 72.5668 130.591C72.8232 130.711 73.4217 130.762 73.6338 130.92C74.5874 131.622 73.4776 132.34 71.1693 131.577C67.5341 130.374 63.6753 125.548 68.6225 123.2C69.4462 123.12 70.2633 122.959 71.0871 122.872V122.87Z" fill="#FDFCFC"/>
<path d="M92.1117 126.648C92.5211 126.929 93.1031 127.188 92.6871 127.798C92.4241 128.182 85.3247 131.206 84.2265 131.74C84.187 131.76 84.0456 131.706 84.062 131.905C84.0226 131.913 83.9371 131.914 83.8976 131.905C82.7583 131.628 73.8274 125.198 72.3164 123.692C75.8595 122.982 89.7852 125.053 92.1133 126.648H92.1117Z" fill="#F4D8DD"/>
<path d="M147.643 124.184C146.079 124.851 149.223 124.669 151.503 125.498C160.25 128.674 156.658 137.439 147.561 139.624C145.356 140.153 141.006 140.055 141.318 140.773C142.056 140.765 142.799 140.783 143.536 140.773C139.562 141.544 130.697 140.589 127.519 138.309C125.271 136.696 125.534 134.826 125.63 132.396C132.085 132.725 138.59 130.949 143.7 126.976C143.991 126.749 146.836 124.182 146.985 124.019C147.737 123.936 147.608 124.179 147.643 124.184Z" fill="#EFB8AF"/>
<path d="M147.642 124.184C151.098 124.672 156.079 126.047 157.007 130.016C158.419 136.068 149.822 140.683 143.535 140.775C142.798 140.785 142.057 140.767 141.317 140.775C141.004 140.056 145.355 140.155 147.559 139.626C156.656 137.44 160.249 128.677 151.502 125.499C149.222 124.671 146.078 124.853 147.642 124.186V124.184Z" fill="#EFB8AF"/>
<path d="M139.1 124.513L139.264 124.348C139.281 124.549 139.128 124.496 139.1 124.513Z" fill="#F9F0EC"/>
<path d="M83.57 133.711C83.5684 133.999 84.5072 134.175 84.8015 134.205C94.1467 135.102 101.767 132.275 108.541 125.992C109.444 126.874 111.107 127.895 111.006 128.375C102.157 136.996 90.5461 140.446 78.6426 136.094C80.9756 136.206 82.4389 134.162 83.5717 133.711H83.57Z" fill="#19100D"/>
<path d="M92.4413 126.319C92.489 126.347 93.2354 126.507 93.4278 126.813C93.5412 128.047 93.4376 128.075 92.4413 128.619C91.0027 129.405 87.7358 130.505 85.7875 131.576C80.2419 134.625 77.8184 139.804 75.4377 129.604C74.6239 129.499 73.8479 129.716 73.0554 129.769C72.9469 129.775 72.8351 129.765 72.7266 129.769C77.0736 126.406 75.9688 133.933 79.0515 134.532C80.791 134.869 82.4236 132.595 83.8984 131.904C83.9379 131.914 84.0234 131.913 84.0628 131.904C84.1598 131.881 84.2453 131.911 84.2272 131.74C85.3255 131.206 92.4248 128.184 92.6879 127.797C93.1055 127.187 92.5235 126.929 92.1125 126.648L92.4413 126.319Z" fill="#FDFCFC"/>
<path d="M74.9469 131.083C75.4764 131.017 75.3613 132.661 76.3428 134.285C79.7083 137.302 74.7809 134.428 71.5781 132.643C72.1914 132.316 73.1844 132.909 73.6316 132.725C73.7286 132.686 74.5622 131.239 74.9453 131.083H74.9469Z" fill="#18100D"/>
<path d="M84.0638 131.905C84.0473 131.706 84.1891 131.76 84.2286 131.74C84.2467 131.91 84.161 131.882 84.0638 131.905Z" fill="#F9F0EC"/>
<path d="M124.805 132.069C124.92 132.082 125.053 132.011 125.134 132.151C124.844 132.406 124.819 132.079 124.805 132.069Z" fill="#FCFBFA"/>
<path d="M83.7337 133.712C83.7156 133.513 83.8903 133.555 83.8985 133.547C83.9166 133.692 83.8573 133.695 83.7337 133.712Z" fill="#19100D"/>
</svg>
